<svg width="500" height="500" viewBox="0 0 500 500" fill="none" xmlns="http://www.w3.org/2000/svg">
<path d="M364.394 312.879C349.243 312.879 336.364 325.758 336.364 340.909C336.364 356.061 349.243 368.94 364.394 368.94C379.546 368.94 392.424 356.061 392.424 340.909C392.424 325 380.303 312.879 364.394 312.879ZM364.394 353.03C357.576 353.03 351.515 346.97 351.515 340.152C351.515 333.333 357.576 327.273 364.394 327.273C371.212 327.273 377.273 333.333 377.273 340.152C377.273 347.727 371.97 353.03 364.394 353.03Z" fill="#273A2C"/>
<path d="M271.212 375.758C253.03 375.758 241.666 363.636 238.636 348.485H265.909C270.454 348.485 273.485 345.455 273.485 340.909C273.485 336.364 270.454 333.333 265.909 333.333H238.636C241.666 315.909 253.788 306.061 270.454 306.061C280.303 306.061 286.363 308.333 290.909 310.606L293.939 297.727C289.394 295.455 279.545 292.424 267.424 292.424C241.666 292.424 224.242 308.333 221.212 333.333H205.303C200.757 333.333 197.727 336.364 197.727 340.909C197.727 345.455 200.757 348.485 205.303 348.485H221.969C225.757 372.727 243.939 389.394 271.212 389.394C281.06 389.394 290.151 387.121 294.697 384.849L290.909 371.212C287.121 373.485 280.303 375.758 271.212 375.758Z" fill="#273A2C"/>
<path d="M473.485 212.879H26.5151C16.6666 212.879 9.09082 220.455 9.09082 230.303V451.515C9.09082 461.364 16.6666 468.94 26.5151 468.94H473.485C483.333 468.94 490.909 461.364 490.909 451.515V229.546C490.909 220.455 483.333 212.879 473.485 212.879ZM475.757 450.758C475.757 452.273 475 453.03 473.485 453.03H26.5151C24.9999 453.03 24.2423 452.273 24.2423 450.758V229.546C24.2423 228.03 24.9999 227.273 26.5151 227.273H473.485C475 227.273 475.757 228.03 475.757 229.546V450.758Z" fill="#273A2C"/>
<path d="M437.879 290.91C423.485 290.91 412.121 279.546 412.121 265.152C412.121 260.606 409.091 257.576 404.545 257.576H95.4545C90.9091 257.576 87.8787 260.606 87.8787 265.152C87.8787 279.546 76.5151 290.91 62.1212 290.91C57.5757 290.91 54.5454 293.94 54.5454 298.485V382.576C54.5454 387.122 57.5757 390.152 62.1212 390.152C76.5151 390.152 87.8787 401.516 87.8787 415.91C87.8787 420.455 90.9091 423.485 95.4545 423.485H405.303C409.848 423.485 412.879 420.455 412.879 415.91C412.879 401.516 424.242 390.152 438.636 390.152C443.182 390.152 446.212 387.122 446.212 382.576V298.485C445.455 294.697 442.424 290.91 437.879 290.91ZM430.303 375.758C413.636 378.788 400.758 391.667 397.727 408.334H102.273C99.2424 391.667 86.3636 378.788 69.6969 375.758V306.061C86.3636 303.031 99.2424 290.152 102.273 273.485H397.727C400.758 290.152 413.636 303.031 430.303 306.061V375.758Z" fill="#273A2C"/>
<path d="M135.606 312.879C120.454 312.879 107.576 325.758 107.576 340.909C107.576 356.061 120.454 368.94 135.606 368.94C150.758 368.94 163.636 356.061 163.636 340.909C162.879 325 150.758 312.879 135.606 312.879ZM135.606 353.03C128.788 353.03 122.727 346.97 122.727 340.152C122.727 333.333 128.788 327.273 135.606 327.273C142.424 327.273 148.485 333.333 148.485 340.152C147.727 347.727 142.424 353.03 135.606 353.03Z" fill="#273A2C"/>
<path d="M18.1817 180.303H475C479.545 180.303 482.576 177.273 482.576 172.728C482.576 168.182 479.545 165.152 475 165.152H18.1817C13.6363 165.152 10.606 168.182 10.606 172.728C10.606 177.273 14.3938 180.303 18.1817 180.303Z" fill="#273A2C"/>
<path d="M38.6363 135.606H456.061C460.606 135.606 463.636 132.576 463.636 128.03C463.636 123.485 460.606 120.455 456.061 120.455H38.6363C34.0908 120.455 31.0605 123.485 31.0605 128.03C31.0605 132.576 34.0908 135.606 38.6363 135.606Z" fill="#273A2C"/>
<path d="M60.606 91.6667H432.576C437.121 91.6667 440.151 88.6363 440.151 84.0909C440.151 79.5454 437.121 76.5151 432.576 76.5151H60.606C56.0606 76.5151 53.0303 79.5454 53.0303 84.0909C53.0303 87.8788 56.8182 91.6667 60.606 91.6667Z" fill="#273A2C"/>
<path d="M93.1817 46.9699H400.757C405.303 46.9699 408.333 43.9396 408.333 39.3941C408.333 34.8487 405.303 31.8184 400.757 31.8184H93.1817C88.6363 31.8184 85.606 34.8487 85.606 39.3941C85.606 43.9396 88.6363 46.9699 93.1817 46.9699Z" fill="#273A2C"/>
</svg>
