<svg width="512" height="512" viewBox="0 0 512 512" fill="none" xmlns="http://www.w3.org/2000/svg">
<path d="M443.015 439.781C423.074 450.56 398.282 440.32 381.036 425.768C364.328 411.217 343.309 384.269 324.985 370.796C295.343 348.699 252.227 347.082 220.968 366.484C202.105 377.802 188.632 395.587 173.541 411.217C158.451 426.846 140.665 441.937 119.107 446.248C93.2379 451.099 65.7516 438.164 51.2 416.606C36.6484 395.048 33.9537 366.484 41.499 341.693C49.5832 316.901 67.3684 295.882 88.9263 280.792C107.79 267.857 132.042 256.539 135.276 233.903C137.971 214.501 124.497 200.488 116.952 183.781C109.406 167.613 104.556 149.827 102.4 132.581C100.783 119.646 100.783 106.173 107.251 95.3937C118.568 76.5305 147.133 73.8358 166.535 84.6147C185.937 95.3937 197.255 116.952 204.261 137.971C206.956 146.055 209.112 154.139 213.423 161.145C217.735 168.152 224.202 174.619 232.286 176.236C240.909 177.853 250.072 174.08 256.539 167.613C266.779 157.373 270.552 141.743 277.558 129.347C285.642 115.335 294.804 101.322 306.661 90.5431C322.83 75.4526 343.848 65.2126 365.406 65.7516C387.503 66.2905 409.061 79.2253 416.606 100.244C424.152 120.724 416.606 143.36 404.75 161.684C392.893 180.008 376.724 195.099 364.867 212.884C352.472 230.669 344.387 253.305 350.855 273.785C360.017 290.493 377.263 295.882 397.204 312.051C417.145 328.219 446.787 351.394 457.566 374.029C468.884 395.048 465.651 427.924 443.015 439.781Z" fill="#CFE096"/>
<path d="M231.208 436.547C230.67 438.703 227.975 439.781 226.358 438.703L220.968 436.547L218.813 441.937C218.274 444.093 215.579 445.171 213.423 444.093C211.267 443.554 210.19 440.859 211.267 439.242L213.423 433.853L208.034 431.697C205.878 431.158 204.8 428.463 205.878 426.307C206.417 424.152 209.112 423.074 210.728 424.152L216.118 426.307L218.274 420.918C218.813 418.762 221.507 417.684 223.124 418.762C225.28 419.301 226.358 421.996 225.28 423.613L223.124 429.002L228.514 431.158C231.208 432.236 232.286 434.392 231.208 436.547Z" fill="#CFE096"/>
<path d="M61.44 233.364C61.9789 235.52 60.3621 237.676 58.2063 237.676L52.8168 238.754L53.8947 244.143C54.4337 246.299 52.8168 248.455 50.661 248.455C48.5053 248.994 46.3495 247.377 46.3495 245.221L45.2716 239.832L39.8821 240.909C37.7263 241.448 35.5705 239.832 35.5705 237.676C35.0316 235.52 36.6484 233.364 38.8042 233.364L44.1937 232.286L43.1158 226.897C42.5768 224.741 44.1937 222.585 46.3495 222.585C48.5053 222.046 50.661 223.663 50.661 225.819L51.7389 231.208L57.1284 230.131C58.7453 230.131 60.901 231.208 61.44 233.364Z" fill="#CFE096"/>
<path d="M291.032 208.034C291.032 226.897 284.564 244.143 273.785 257.617C257.078 278.636 247.377 304.505 247.377 331.453V334.147H231.208H202.105H174.619V331.453C174.619 304.505 164.379 278.636 147.672 257.617C136.893 244.143 130.425 226.897 130.425 208.034C130.425 163.84 166.535 127.731 210.728 127.731C254.922 127.731 291.032 163.84 291.032 208.034Z" fill="white"/>
<path d="M291.032 208.034C291.032 226.897 284.564 244.143 273.785 257.617C257.078 278.636 247.377 304.505 247.377 331.453V334.147H174.619H230.67V331.453C230.67 304.505 240.371 278.636 257.078 257.617C267.857 243.604 274.324 226.358 274.324 208.034C274.324 166.535 243.065 132.581 202.644 128.269C205.339 127.731 208.034 127.731 210.728 127.731C254.922 127.731 291.032 163.84 291.032 208.034Z" fill="#CFE096"/>
<path d="M245.221 365.406C245.221 384.27 230.131 399.899 210.728 399.899C191.865 399.899 176.236 384.808 176.236 365.406H245.221Z" fill="white"/>
<path d="M271.63 349.777C271.63 358.4 264.623 365.406 256 365.406H165.457C156.834 365.406 149.827 358.4 149.827 349.777C149.827 341.154 156.834 334.147 165.457 334.147H256C264.623 334.147 271.63 341.154 271.63 349.777Z" fill="white"/>
<path d="M271.63 349.777C271.63 358.4 264.623 365.406 256 365.406H236.598C245.221 365.406 252.227 358.4 252.227 349.777C252.227 341.154 245.221 334.147 236.598 334.147H256C264.623 334.147 271.63 341.154 271.63 349.777Z" fill="#CFE096"/>
<path d="M242.526 241.987L236.059 247.377L230.131 240.371C212.884 219.891 216.118 189.171 236.598 171.924L239.293 169.768C241.448 167.613 245.221 168.152 247.377 170.307L248.994 172.463C266.779 193.482 263.545 224.202 242.526 241.987Z" fill="white"/>
<path d="M242.526 241.987L236.059 247.377L231.747 241.448C252.227 223.663 254.922 193.482 237.676 172.463L237.137 171.385L239.832 169.229C241.987 167.074 245.76 167.613 247.916 169.768L249.533 171.924C266.779 193.482 263.545 224.202 242.526 241.987Z" fill="#CFE096"/>
<path d="M205.339 252.766L204.8 258.695L198.333 258.156C178.931 256.539 164.379 239.293 165.996 219.89L166.535 213.423L172.463 213.962C192.404 215.579 206.956 233.364 205.339 252.766Z" fill="white"/>
<path d="M205.339 252.766L204.8 258.695L198.333 258.156C178.931 256.539 164.379 239.293 165.996 219.89L166.535 213.423L172.463 213.962C192.404 215.579 206.956 233.364 205.339 252.766Z" fill="white"/>
<path d="M205.339 252.766L204.8 258.695L198.872 258.156C198.872 239.832 184.859 223.663 165.996 222.046C165.996 220.968 165.996 220.429 165.996 219.352L166.535 212.884L172.463 213.423C192.404 215.579 206.956 233.364 205.339 252.766Z" fill="#CFE096"/>
<path d="M404.211 301.272V369.718H359.478C353.549 369.718 348.16 364.867 348.16 358.4V312.589C348.16 306.661 353.011 301.272 359.478 301.272H404.211Z" fill="white"/>
<path d="M404.211 312.589V369.718H377.802C384.269 369.718 389.12 364.867 389.12 358.4V312.589C389.12 306.122 384.269 301.272 377.802 301.272H393.432C399.36 301.272 404.211 306.661 404.211 312.589Z" fill="#CFE096"/>
<path d="M486.131 100.244C486.131 98.0884 484.514 96.4716 482.358 95.9326H476.43V90.0042C476.43 87.8484 474.813 86.2316 472.657 85.6926C470.501 85.6926 468.884 87.3095 468.345 89.4653V95.3937H462.417C460.261 95.3937 458.644 97.0105 458.105 99.1663C458.105 101.322 459.722 102.939 461.878 103.478H467.806V109.406C467.806 111.562 469.423 113.179 471.579 113.718C473.735 113.718 475.352 112.101 475.891 109.945V104.017H481.819C484.514 104.556 486.131 102.4 486.131 100.244Z" fill="#273A2C"/>
<path d="M467.267 312.59L461.878 310.434L464.034 305.044C464.573 302.888 464.034 300.733 461.878 300.194C459.722 299.655 457.566 300.194 457.027 302.349L454.872 307.739L449.482 305.583C447.326 305.044 445.171 305.583 444.632 307.739C444.093 309.895 444.632 312.051 446.787 312.59L452.177 314.745L450.021 320.135C449.482 322.291 450.021 324.446 452.177 324.985C454.333 325.524 456.489 324.985 457.027 322.83L459.183 317.44L464.573 319.596C466.728 320.135 468.884 319.596 469.423 317.44C470.501 315.823 469.423 313.667 467.267 312.59Z" fill="#273A2C"/>
<path d="M498.526 400.438H482.897C479.663 400.438 477.507 402.594 477.507 405.827C477.507 409.061 479.663 411.217 482.897 411.217H498.526C501.76 411.217 503.916 409.061 503.916 405.827C503.916 402.594 501.76 400.438 498.526 400.438Z" fill="#273A2C"/>
<path d="M43.1158 400.438H13.4737C10.24 400.438 8.08423 402.594 8.08423 405.827C8.08423 409.061 10.24 411.217 13.4737 411.217H43.1158C46.3495 411.217 48.5053 409.061 48.5053 405.827C48.5053 402.594 46.3495 400.438 43.1158 400.438Z" fill="#273A2C"/>
<path d="M455.411 400.438H228.514C232.286 398.821 235.52 396.126 238.754 392.893C239.293 392.354 239.832 391.815 240.371 391.276H296.421C306.661 391.276 315.284 383.192 315.284 372.413V347.082C315.284 342.771 319.057 338.998 323.368 338.998H343.848V357.861C343.848 367.023 351.394 374.568 360.556 374.568H398.821V377.802C398.821 381.036 400.977 383.192 404.211 383.192C407.444 383.192 409.6 381.036 409.6 377.802V369.179V358.939H429.541C432.775 358.939 434.931 356.783 434.931 353.549C434.931 350.316 432.775 348.16 429.541 348.16H409.6V321.213H429.541C432.775 321.213 434.931 319.057 434.931 315.823C434.931 312.589 432.775 310.434 429.541 310.434H409.6V300.194V291.571C409.6 288.337 407.444 286.181 404.211 286.181C400.977 286.181 398.821 288.337 398.821 291.571V294.804H359.478C350.316 294.804 342.771 302.349 342.771 311.512V328.219H322.291C312.051 328.219 303.427 336.303 303.427 347.082V372.413C303.427 376.724 299.655 380.497 295.343 380.497H246.299C247.916 377.263 248.455 374.029 248.994 370.257H254.922C266.24 370.257 275.941 361.095 275.941 349.238C275.941 337.92 266.779 328.219 254.922 328.219H251.688C252.227 304.505 260.851 281.331 277.019 260.851C288.876 245.76 295.343 226.897 295.343 207.495C295.343 184.859 286.181 163.301 270.013 147.133C254.383 131.503 232.825 122.341 209.112 122.341C161.684 122.341 123.419 161.145 123.419 208.573C123.419 227.975 129.886 246.299 141.743 261.928C157.912 281.869 166.535 305.044 167.613 329.297H163.84C152.522 329.297 142.821 338.459 142.821 350.316C142.821 361.634 151.983 371.335 163.84 371.335H169.768C171.385 384.27 179.47 395.587 190.787 401.516H78.1474C74.9137 401.516 72.7579 403.672 72.7579 406.905C72.7579 410.139 74.9137 412.295 78.1474 412.295H455.411C458.644 412.295 460.8 410.139 460.8 406.905C460.8 403.672 458.644 400.438 455.411 400.438ZM354.088 312.589C354.088 309.356 356.783 306.661 360.017 306.661H398.821V364.328H359.478C356.244 364.328 353.55 361.634 353.55 358.4V312.589H354.088ZM151.983 254.922C141.204 241.448 135.815 225.28 135.815 208.573C135.815 167.074 169.23 133.659 210.728 133.659C230.67 133.659 249.533 141.204 263.545 155.217C277.558 169.229 285.642 188.093 285.642 208.034C285.642 225.28 280.253 240.909 269.474 254.383C251.688 277.019 242.526 302.349 241.987 328.758H224.202C224.202 328.219 224.741 327.141 224.741 326.602C225.28 322.291 224.202 317.979 222.046 315.284C220.43 313.667 218.813 312.589 217.196 311.512C213.962 309.895 211.267 308.278 208.034 306.661C211.267 305.044 214.501 302.888 217.196 300.733C217.735 300.194 218.274 300.194 218.813 299.655C231.747 288.876 239.832 272.168 241.987 249.533L246.838 245.76C270.013 226.358 273.246 191.865 254.383 168.691L252.766 166.535C251.15 164.379 248.455 162.762 245.221 162.762C242.526 162.762 239.293 163.301 237.137 165.457L234.442 167.613C211.267 186.476 208.034 220.968 227.436 243.604L231.747 248.994C230.67 261.928 227.436 272.707 222.046 281.331C221.507 274.324 218.274 265.701 211.267 257.078L211.806 253.844C213.962 231.208 196.716 210.728 174.08 209.112L167.074 208.034C165.457 208.034 164.379 208.573 163.301 209.112C162.223 210.189 161.684 211.267 161.145 212.884L160.606 219.352C158.451 241.987 175.158 261.928 197.794 263.545L202.644 264.084C212.345 275.941 210.728 288.337 209.651 292.648C204.8 295.882 199.95 298.577 194.021 300.194C192.404 300.733 189.171 301.272 188.632 305.583C188.632 307.739 189.71 309.895 191.865 310.973C196.716 313.128 200.488 315.284 204.8 317.44C206.956 318.518 209.112 319.596 211.267 321.213C212.345 321.752 212.884 322.291 213.423 322.291C213.962 322.829 213.962 323.368 213.962 324.985C213.962 326.063 213.423 327.141 212.884 328.758H180.008C178.931 302.349 169.23 277.019 151.983 254.922ZM240.91 236.598C240.371 226.897 241.448 214.501 247.916 208.034C250.072 205.878 250.072 202.644 247.916 200.488C245.76 198.333 242.526 198.333 240.371 200.488C233.364 208.034 230.67 219.891 230.67 229.592C220.968 211.806 225.28 189.171 241.448 175.697L244.143 173.541L245.76 175.697C260.312 194.021 258.156 220.429 240.91 236.598ZM199.95 253.305H198.872C182.164 251.688 170.307 237.137 171.385 220.968V219.891H171.924C188.632 221.507 201.566 236.059 199.95 253.305ZM155.217 349.777C155.217 344.387 159.528 339.537 165.457 339.537H247.377H256C261.39 339.537 266.24 343.848 266.24 349.777C266.24 355.166 261.928 360.017 256 360.017C256.539 360.017 247.916 360.017 165.457 360.017C159.528 360.017 155.217 355.166 155.217 349.777ZM182.164 370.796H238.754C236.059 384.27 224.741 394.509 210.19 394.509C196.716 394.509 184.859 384.27 182.164 370.796Z" fill="#273A2C"/>
<path d="M210.728 107.789C213.962 107.789 216.118 105.634 216.118 102.4V80.8421C216.118 77.6084 213.962 75.4526 210.728 75.4526C207.495 75.4526 205.339 77.6084 205.339 80.8421V102.4C205.339 105.634 207.495 107.789 210.728 107.789Z" fill="#273A2C"/>
<path d="M152.522 120.185C154.139 122.88 157.373 123.419 160.067 122.341C162.762 120.724 163.301 117.491 162.223 114.796L151.444 96.4716C149.827 93.7768 146.594 93.2379 143.899 94.3158C141.204 95.9326 140.665 99.1663 141.743 101.861L152.522 120.185Z" fill="#273A2C"/>
<path d="M96.4716 150.905L114.796 161.684C117.491 163.301 120.724 162.223 122.341 159.528C123.958 156.834 122.88 153.6 120.185 151.983L101.861 141.204C99.1664 139.587 95.9327 140.665 94.3158 143.36C93.2379 146.055 93.7769 149.288 96.4716 150.905Z" fill="#273A2C"/>
<path d="M82.459 216.118H104.017C107.251 216.118 109.406 213.962 109.406 210.728C109.406 207.495 107.251 205.339 104.017 205.339H82.459C79.2253 205.339 77.0695 207.495 77.0695 210.728C77.0695 213.962 79.2253 216.118 82.459 216.118Z" fill="#273A2C"/>
<path d="M115.874 259.773L97.5495 270.552C94.8548 272.168 94.3158 275.402 95.3937 278.097C97.0106 280.792 100.244 281.331 102.939 280.253L121.263 269.474C123.958 267.857 124.497 264.623 123.419 261.928C121.802 259.234 118.568 258.695 115.874 259.773Z" fill="#273A2C"/>
<path d="M307.739 258.695C305.044 257.078 301.811 258.156 300.194 260.851C298.577 263.545 299.655 266.779 302.349 268.396L320.674 279.175C323.368 280.792 326.602 279.714 328.219 277.019C329.836 274.324 328.758 271.091 326.063 269.474L307.739 258.695Z" fill="#273A2C"/>
<path d="M313.667 209.112C313.667 212.345 315.823 214.501 319.057 214.501H340.615C343.848 214.501 346.004 212.345 346.004 209.112C346.004 205.878 343.848 203.722 340.615 203.722H319.057C316.362 203.722 313.667 206.417 313.667 209.112Z" fill="#273A2C"/>
<path d="M307.2 160.067L325.524 149.288C328.219 147.672 328.758 144.438 327.68 141.743C326.063 139.048 322.83 138.509 320.135 139.587L301.811 150.905C299.116 152.522 298.577 155.756 299.655 158.451C301.272 160.606 304.505 161.684 307.2 160.067Z" fill="#273A2C"/>
<path d="M261.928 121.263C264.623 122.88 267.857 121.802 269.474 119.107L280.253 100.783C281.869 98.0884 280.792 94.8547 278.097 93.2379C275.402 91.621 272.168 92.6989 270.552 95.3937L259.773 113.718C258.695 116.413 259.234 119.646 261.928 121.263Z" fill="#273A2C"/>
</svg>
