<svg width="512" height="512" viewBox="0 0 512 512" fill="none" xmlns="http://www.w3.org/2000/svg">
<path d="M476.429 257.078C476.429 283.486 453.794 305.044 429.541 313.667C405.288 322.291 378.341 321.752 352.472 324.446C326.602 327.141 296.421 350.855 278.097 369.718C266.24 382.114 260.312 398.821 251.688 413.912C243.065 429.002 231.208 443.554 214.501 447.326C196.177 451.099 177.314 439.242 166.535 424.152C155.756 408.522 150.905 389.659 145.516 371.335C140.126 353.011 137.432 316.901 124.497 302.888C113.179 291.032 98.0884 283.486 83.5368 275.941C68.9852 268.396 53.8947 260.312 44.7326 246.838C35.0316 233.364 32.3368 213.962 42.5768 201.027C55.5116 184.859 79.2252 187.015 99.7052 185.398C137.971 182.164 173.541 158.989 192.943 126.114C199.949 113.718 204.8 100.244 212.884 87.8484C220.968 75.9916 232.286 65.2126 246.838 63.5958C266.779 61.44 283.486 77.6084 297.499 92.16C323.907 120.185 349.238 155.756 383.731 174.08C417.145 192.404 476.429 208.573 476.429 257.078Z" fill="#CFE096"/>
<path d="M63.5958 98.0884C64.6737 100.244 63.5958 102.4 61.44 103.478L56.0505 105.634L58.2063 111.023C59.2842 113.179 58.2063 115.335 56.0505 115.874C53.8947 116.413 51.7389 115.874 51.2 113.718L49.0442 108.328L43.6547 110.484C41.4989 111.562 39.3431 110.484 38.8042 108.328C38.2652 106.173 38.8042 104.017 40.96 103.478L46.3495 101.322L44.1937 95.9326C43.6547 93.7768 44.1937 91.6211 46.3495 91.0821C48.5052 90.0042 50.661 91.0821 51.7389 93.2379L53.8947 98.6274L59.2842 96.4716C60.3621 95.3937 62.5179 96.4716 63.5958 98.0884Z" fill="#CFE096"/>
<path d="M365.945 365.945H317.44V187.554C317.44 180.008 323.368 174.08 330.914 174.08H423.074C428.463 174.08 433.314 177.314 435.469 182.164L469.962 264.623C471.579 267.857 472.118 271.091 472.118 274.863V351.933C472.118 359.478 466.189 365.406 458.644 365.406H435.469" fill="white"/>
<path d="M471.579 275.402V352.472C471.579 360.017 465.651 365.945 458.105 365.945H441.937C449.482 365.945 455.411 360.017 455.411 352.472V275.402C455.411 271.629 454.872 268.396 453.255 265.162L418.762 182.703C416.606 177.853 411.756 174.619 406.366 174.619H422.535C427.924 174.619 432.775 177.853 434.931 182.703L469.423 265.162C471.04 268.396 471.579 272.168 471.579 275.402Z" fill="#CFE096"/>
<path d="M434.392 260.851L412.834 209.651C411.756 206.956 409.6 205.339 406.905 205.339H356.783C353.011 205.339 350.316 208.573 350.316 211.806V263.006C350.316 266.779 353.549 269.474 356.783 269.474H428.463C433.314 270.013 436.547 265.162 434.392 260.851Z" fill="white"/>
<path d="M428.463 270.013H411.217C416.067 270.013 419.301 265.162 417.145 260.851L395.587 209.651C394.509 206.956 392.354 205.339 389.659 205.339H406.905C409.6 205.339 411.756 206.956 412.834 209.651L434.392 260.851C436.547 265.162 433.314 270.013 428.463 270.013Z" fill="#CFE096"/>
<path d="M381.036 127.731C381.036 132.042 379.419 135.815 376.724 138.509C374.029 141.204 370.257 142.821 365.945 142.821H317.979C298.038 142.821 281.331 158.989 281.331 179.469V331.453H85.1537L48.5053 286.72C43.1158 280.253 40.4211 272.168 40.4211 263.545V176.775C40.4211 169.229 46.3495 163.301 53.8947 163.301H216.118C225.28 163.301 233.903 158.989 238.754 151.444L256.539 125.036C261.389 117.491 270.013 113.179 279.175 113.179H365.945C374.029 112.64 381.036 119.646 381.036 127.731Z" fill="white"/>
<path d="M381.036 127.731C381.036 132.042 379.419 135.815 376.724 138.509C374.029 141.204 370.257 142.821 365.945 142.821H317.979C298.038 142.821 281.331 158.989 281.331 179.469V331.453H85.1537L48.5053 286.72C43.1158 280.253 40.4211 272.168 40.4211 263.545V176.775C40.4211 169.229 46.3495 163.301 53.8947 163.301H216.118C225.28 163.301 233.903 158.989 238.754 151.444L256.539 125.036C261.389 117.491 270.013 113.179 279.175 113.179H365.945C374.029 112.64 381.036 119.646 381.036 127.731Z" fill="white"/>
<path d="M93.2379 365.945H72.2189C62.5179 365.945 54.9726 358.4 54.9726 348.699C54.9726 343.848 57.1284 339.537 59.8232 336.842C62.5179 334.147 67.3684 331.992 72.2189 331.992H119.107" fill="white"/>
<path d="M61.44 333.07L317.44 331.453V365.945H58.7453L61.44 333.07Z" fill="white"/>
<path d="M317.44 331.453H296.96V365.945H317.44V331.453Z" fill="#CFE096"/>
<path d="M214.501 157.912C214.501 159.528 214.501 161.684 213.962 163.301H59.2842C58.7453 161.684 58.7453 160.067 58.7453 157.912C58.7453 144.977 72.7579 134.198 89.4653 134.198C95.9326 134.198 102.4 134.737 105.634 131.503C116.413 120.724 119.646 107.789 136.354 107.789C153.6 107.789 155.756 121.802 167.074 131.503C169.768 133.659 176.775 134.198 183.242 134.198C200.488 134.198 214.501 144.977 214.501 157.912Z" fill="white"/>
<path d="M214.501 157.912C214.501 159.528 214.501 161.684 213.962 163.301H59.2842C59.2842 162.223 58.7453 161.684 58.7453 160.606H190.248C190.787 158.989 190.787 157.373 190.787 155.217C190.787 144.977 182.703 136.893 171.385 133.12C174.619 133.659 178.931 134.198 182.703 134.198C200.488 134.198 214.501 144.977 214.501 157.912Z" fill="#CFE096"/>
<path d="M162.762 369.718C162.762 389.12 147.133 404.75 127.731 404.75C108.328 404.75 92.6989 389.12 92.6989 369.718C92.6989 350.316 108.328 335.225 127.731 335.225C147.133 335.225 162.762 350.316 162.762 369.718Z" fill="white"/>
<path d="M162.762 369.718C162.762 389.12 147.133 404.75 127.731 404.75C125.036 404.75 122.88 404.75 120.724 404.211C136.354 400.977 148.211 386.964 148.211 370.257C148.211 353.549 136.354 339.537 120.724 336.303C122.88 335.764 125.575 335.764 127.731 335.764C147.133 334.686 162.762 350.316 162.762 369.718Z" fill="#CFE096"/>
<path d="M128.269 382.114C121.263 382.114 115.874 376.724 115.874 369.718C115.874 362.712 121.263 357.322 128.269 357.322C135.276 357.322 140.665 362.712 140.665 369.718C140.665 376.185 135.276 382.114 128.269 382.114Z" fill="white"/>
<path d="M223.663 382.114C216.657 382.114 211.267 376.724 211.267 369.718C211.267 362.712 216.657 357.322 223.663 357.322C230.669 357.322 236.059 362.712 236.059 369.718C236.059 376.185 230.13 382.114 223.663 382.114Z" fill="white"/>
<path d="M258.156 369.718C258.156 389.12 242.526 404.75 223.124 404.75C203.722 404.75 188.632 388.581 188.632 369.718C188.632 350.316 204.261 335.225 223.663 335.225C243.065 335.225 258.156 350.316 258.156 369.718Z" fill="white"/>
<path d="M258.156 369.718C258.156 389.12 242.526 404.75 223.124 404.75C220.43 404.75 218.274 404.75 216.118 404.211C231.747 400.977 243.604 386.964 243.604 370.257C243.604 353.549 231.747 339.537 216.118 336.303C218.274 335.764 220.968 335.764 223.124 335.764C242.526 334.686 258.156 350.316 258.156 369.718Z" fill="#CFE096"/>
<path d="M400.438 382.114C393.432 382.114 388.042 376.724 388.042 369.718C388.042 362.712 393.432 357.322 400.438 357.322C407.444 357.322 412.834 362.712 412.834 369.718C412.834 376.185 407.444 382.114 400.438 382.114Z" fill="white"/>
<path d="M434.931 369.718C434.931 389.12 419.301 404.749 399.899 404.749C380.497 404.749 364.867 389.12 364.867 369.718C364.867 350.316 380.497 335.225 399.899 335.225C419.301 334.686 434.931 350.316 434.931 369.718Z" fill="white"/>
<path d="M434.931 369.718C434.931 389.12 419.301 404.75 400.438 404.75C398.282 404.75 396.126 404.75 393.971 404.211C410.139 401.516 422.535 386.964 422.535 370.257C422.535 353.011 410.139 338.998 393.971 336.303C396.126 335.764 398.282 335.764 400.438 335.764C419.301 334.686 434.931 350.316 434.931 369.718Z" fill="#CFE096"/>
<path d="M115.335 220.968L88.3874 278.097C87.3095 280.253 85.6926 281.331 83.5368 281.331C82.9979 281.331 81.92 281.331 81.381 280.792C78.6863 279.714 77.6084 276.48 78.6863 273.785L105.634 216.657C106.712 213.962 109.945 212.884 112.64 213.962C115.335 215.04 116.413 218.274 115.335 220.968Z" fill="#CFE096"/>
<path d="M161.684 220.43L134.737 277.558C133.659 279.175 131.503 280.253 129.347 280.253C128.808 280.253 127.731 280.253 127.192 279.714C124.497 278.636 123.419 275.402 124.497 272.707L151.444 215.579C152.522 212.884 155.756 211.806 158.451 212.884C161.684 214.501 162.762 217.735 161.684 220.43Z" fill="#CFE096"/>
<path d="M207.495 219.352L180.547 276.48C179.469 278.636 177.853 279.714 175.697 279.714C175.158 279.714 174.08 279.714 173.541 279.175C170.846 278.097 169.768 274.863 170.846 272.168L197.794 215.04C198.872 212.345 202.105 211.267 204.8 212.345C207.495 213.423 209.112 216.657 207.495 219.352Z" fill="#CFE096"/>
<path d="M253.844 218.813L226.897 275.941C225.819 278.097 224.202 279.175 222.046 279.175C221.507 279.175 220.429 279.175 219.891 278.636C217.196 277.558 216.118 274.324 217.196 271.63L244.143 214.501C245.221 211.806 248.455 210.728 251.149 211.806C253.844 212.884 254.922 216.118 253.844 218.813Z" fill="#CFE096"/>
<path d="M471.579 290.493V317.44H451.638C446.248 317.44 441.937 313.128 441.937 307.739V300.194C441.937 294.804 446.248 290.493 451.638 290.493H471.579Z" fill="white"/>
<path d="M471.579 290.493V317.44H451.638C446.248 317.44 441.937 313.128 441.937 307.739V300.194C441.937 294.804 446.248 290.493 451.638 290.493H471.579Z" fill="white"/>
<path d="M471.579 291.032H461.339V316.362H471.579V291.032Z" fill="#CFE096"/>
<path d="M425.768 133.659H431.697V139.587C431.697 141.743 433.314 143.36 435.47 143.899C437.625 143.899 439.242 142.282 439.781 140.126V134.198H445.71C447.865 134.198 449.482 132.581 450.021 130.425C450.021 128.27 448.404 126.653 446.248 126.114H440.32V120.185C440.32 118.03 438.703 116.413 436.547 115.874C434.392 115.874 432.775 117.491 432.236 119.646V125.575H426.307C424.152 125.575 422.535 127.192 421.996 129.347C421.996 131.503 423.613 133.12 425.768 133.659Z" fill="#273A2C"/>
<path d="M18.8631 329.836L24.2526 327.68L26.4084 333.069C27.4863 335.225 29.6421 336.303 31.2589 335.225C33.4147 334.147 34.4926 331.992 33.4147 330.375L31.2589 324.985L36.6484 322.83C38.8042 322.291 39.8821 319.596 38.8042 317.44C38.2653 315.284 35.5705 314.206 33.9537 315.284L28.5642 317.44L26.4084 312.051C25.8695 309.895 23.1747 308.817 21.0189 309.895C18.8631 310.434 17.7853 313.128 18.8631 314.745L21.0189 320.135L15.6295 322.291C13.4737 323.368 12.3958 325.524 13.4737 327.141C14.5516 329.297 16.7074 330.375 18.8631 329.836Z" fill="#273A2C"/>
<path d="M320.674 423.613L315.284 424.691L314.206 419.301C313.667 417.145 312.051 415.528 309.895 416.067C307.739 416.606 306.122 418.223 306.661 420.379L307.739 425.768L302.349 426.846C300.194 427.385 298.577 429.002 299.116 431.158C299.655 433.314 301.272 434.931 303.427 434.392L308.817 433.314L309.895 438.703C310.434 440.859 312.051 442.476 314.206 441.937C316.362 441.398 317.979 439.781 317.44 437.625L316.362 432.236L321.752 431.158C323.907 430.619 325.524 429.002 324.985 426.846C324.446 424.691 322.829 423.074 320.674 423.613Z" fill="#273A2C"/>
<path d="M34.4926 398.282H13.4737C10.24 398.282 8.0842 400.438 8.0842 403.672C8.0842 406.905 10.24 409.061 13.4737 409.061H34.4926C37.7263 409.061 39.8821 406.905 39.8821 403.672C39.8821 400.977 37.1874 398.282 34.4926 398.282Z" fill="#273A2C"/>
<path d="M498.526 398.821H427.924C435.47 391.815 440.32 382.114 440.859 371.335H458.105C468.345 371.335 476.968 362.712 476.968 352.472C476.968 351.933 476.968 273.246 476.968 275.402C476.968 271.091 475.891 266.779 474.274 263.006L439.781 180.547C437.086 173.541 430.08 169.229 422.535 169.229H330.914C320.674 169.229 312.051 177.853 312.051 188.093V326.602H287.259V180.008C287.259 162.762 301.272 148.75 318.518 148.75H365.945C371.335 148.75 376.724 146.594 380.497 142.821C384.269 139.048 386.425 133.659 386.425 128.269C386.425 116.952 377.263 107.789 365.945 107.789H279.175C268.396 107.789 258.156 113.179 252.227 122.341L234.442 148.75C231.208 153.6 225.819 156.834 219.891 157.912C219.352 142.282 203.722 129.347 183.781 129.347C173.541 129.347 171.385 128.27 171.385 127.731C168.152 125.036 165.457 121.802 163.301 118.029C157.912 110.484 151.444 102.4 137.432 102.4C122.341 102.4 115.874 111.023 109.945 119.107C107.789 121.802 105.634 125.036 102.939 127.731C101.861 128.808 97.0105 128.808 93.2379 128.808H90.5432C70.6021 128.808 54.4337 141.743 54.4337 157.912C44.1937 158.451 36.1095 166.535 36.1095 176.775V263.545C36.1095 273.246 39.3431 282.408 45.2716 289.954L74.3747 326.063H73.2968C60.901 326.063 50.661 336.303 50.661 348.699C50.661 361.095 60.901 371.335 73.2968 371.335H88.9263C89.4653 382.114 94.3158 391.815 101.322 398.282H68.9853C65.7516 398.282 63.5958 400.438 63.5958 403.672C63.5958 406.905 65.7516 409.061 68.9853 409.061C98.6274 409.061 -26.4084 409.061 298.038 409.061C301.272 409.061 303.427 406.905 303.427 403.672C303.427 400.438 301.272 398.282 298.038 398.282H251.688C259.234 391.276 263.545 381.575 264.084 370.796C299.655 370.796 324.985 370.796 361.095 370.796C361.634 381.575 366.484 391.276 373.491 398.282H337.381C334.147 398.282 331.992 400.438 331.992 403.672C331.992 406.905 334.147 409.061 337.381 409.061H398.821C399.36 409.061 399.899 409.061 400.977 409.061C401.516 409.061 402.055 409.061 403.133 409.061H499.604C502.838 409.061 504.994 406.905 504.994 403.672C503.916 401.516 501.76 398.821 498.526 398.821ZM89.4653 139.587H92.16C98.6274 139.587 105.095 139.587 109.406 135.276C112.64 132.042 115.335 128.269 117.491 125.575C122.88 118.029 126.653 113.179 136.354 113.179C144.977 113.179 148.749 117.491 153.6 124.497C156.295 128.27 159.528 132.042 163.301 135.815C166.535 138.51 172.463 140.126 182.703 140.126C196.716 140.126 208.034 148.211 208.034 158.451H64.1347C64.1347 147.672 75.4526 139.587 89.4653 139.587ZM52.8168 283.486C48.5053 278.097 45.8105 271.091 45.8105 264.084V176.775C45.8105 172.463 49.5832 168.691 53.8947 168.691C107.789 168.691 161.684 168.691 216.118 168.691C226.897 168.691 237.137 163.301 243.065 154.139L260.851 127.731C265.162 121.802 271.629 118.029 279.175 118.029H365.945C371.335 118.029 375.646 122.341 375.646 127.731C375.646 130.425 374.568 133.12 372.952 134.737C370.796 136.354 368.64 137.432 365.945 137.432H317.979C294.804 137.432 275.941 156.295 275.941 179.469V326.063C216.118 326.063 147.133 326.063 87.3095 326.063L52.8168 283.486ZM199.949 336.842C192.404 342.232 186.476 350.855 184.32 360.556H167.613C165.457 350.855 159.528 342.771 151.983 336.842H199.949ZM72.7579 360.556C66.2905 360.556 60.901 355.166 60.901 348.699C60.901 342.232 66.2905 336.842 72.7579 336.842C73.8358 336.842 105.634 336.842 105.095 336.842C97.5495 342.232 91.6211 350.855 89.4653 360.556H72.7579ZM98.6274 369.718C98.6274 353.55 111.562 340.615 128.269 340.615C144.438 340.615 157.912 353.55 157.912 369.718C157.912 384.808 146.594 396.665 132.581 398.821H123.958C109.945 396.665 98.6274 384.27 98.6274 369.718ZM155.756 398.821C162.762 391.815 167.613 382.114 168.152 371.335H183.242C183.781 382.114 188.632 391.815 195.638 398.821H155.756ZM226.897 398.821H219.891C205.339 397.204 194.021 384.808 194.021 369.718C194.021 353.55 206.956 340.615 223.663 340.615C239.832 340.615 253.305 353.55 253.305 369.718C252.766 384.27 241.448 396.665 226.897 398.821ZM312.051 360.556H262.467C260.312 350.855 254.383 342.771 246.838 336.842C275.941 336.842 293.187 336.842 312.051 336.842V360.556ZM466.19 312.051H451.638C449.482 312.051 447.326 309.895 447.326 307.739V300.194C447.326 298.038 449.482 295.882 451.638 295.882H466.19V312.051ZM322.829 360.556C322.829 298.577 322.829 252.766 322.829 187.554C322.829 183.242 326.602 179.469 330.914 179.469H423.074C426.307 179.469 429.002 181.625 430.08 184.32L464.573 266.779C465.651 269.474 466.19 272.168 466.19 274.863V284.025H451.638C443.554 284.025 436.547 291.032 436.547 299.116V307.2C436.547 315.823 443.554 322.291 451.638 322.291H466.19V352.472C466.19 356.783 462.417 360.556 458.105 360.556H439.242C434.931 342.771 419.301 329.297 399.899 329.297C380.497 329.297 364.867 342.771 360.556 360.556H322.829ZM370.796 369.718C370.796 353.55 383.731 340.615 400.438 340.615C416.606 340.615 430.08 353.55 430.08 369.718C430.08 385.347 417.684 398.282 402.594 398.821H398.821C383.192 397.743 370.796 384.808 370.796 369.718Z" fill="#273A2C"/>
<path d="M438.703 270.013C440.859 266.779 441.398 262.467 439.781 258.695L418.223 207.495C416.606 203.183 411.756 199.949 406.905 199.949H356.783C350.316 199.949 344.926 205.339 344.926 211.806V263.006C344.926 269.474 350.316 274.863 356.783 274.863H428.463C432.775 275.402 436.008 273.785 438.703 270.013ZM355.705 263.545V212.345C355.705 211.806 356.244 211.267 356.783 211.267H406.905C407.444 211.267 407.983 211.806 407.983 211.806L429.541 263.006C429.541 263.545 429.541 264.084 429.541 264.084C429.541 264.084 429.002 264.623 428.463 264.623H356.783C356.244 264.623 355.705 264.084 355.705 263.545Z" fill="#273A2C"/>
<path d="M140.665 369.718C140.665 362.712 135.276 357.322 128.269 357.322C121.263 357.322 115.874 362.712 115.874 369.718C115.874 376.724 121.263 382.114 128.269 382.114C135.276 382.114 140.665 376.185 140.665 369.718Z" fill="#273A2C"/>
<path d="M223.663 356.783C216.657 356.783 211.267 362.173 211.267 369.179C211.267 376.185 216.657 381.575 223.663 381.575C230.669 381.575 236.059 376.185 236.059 369.179C236.059 362.712 230.13 356.783 223.663 356.783Z" fill="#273A2C"/>
<path d="M412.834 369.718C412.834 362.712 407.444 357.322 400.438 357.322C393.432 357.322 388.042 362.712 388.042 369.718C388.042 376.724 393.432 382.114 400.438 382.114C407.444 382.114 412.834 376.185 412.834 369.718Z" fill="#273A2C"/>
</svg>
