<svg width="512" height="512" viewBox="0 0 512 512" fill="none" xmlns="http://www.w3.org/2000/svg">
<path d="M456.488 440.32C436.547 451.099 411.756 440.859 394.509 426.307C377.263 411.756 356.244 384.808 338.459 371.335C308.817 349.238 265.162 347.621 233.903 367.023C215.04 378.341 201.027 396.126 185.937 412.295C170.846 428.463 153.061 443.554 131.503 447.326C105.634 452.177 78.1474 439.242 63.5958 417.145C49.0442 395.587 46.3495 367.023 53.8947 341.693C61.9789 316.901 79.7642 295.343 101.322 280.792C120.185 267.857 144.438 256 147.672 233.903C150.366 214.501 136.893 200.488 129.347 183.781C121.802 167.613 116.952 149.827 114.796 132.042C113.179 119.107 113.179 105.634 119.646 94.8548C130.964 75.9916 159.528 72.7579 178.931 84.0758C198.333 95.3937 209.651 116.413 216.657 137.432C219.352 145.516 221.507 153.6 225.819 160.606C230.131 167.613 236.598 174.08 244.682 175.697C253.305 177.314 262.467 173.541 268.935 167.074C279.175 156.834 282.947 141.204 289.954 128.269C298.038 114.257 307.2 100.244 319.057 88.9263C335.225 73.8358 356.244 63.5958 378.341 64.1347C400.438 64.6737 422.535 78.1474 430.08 98.6274C437.625 119.107 430.08 141.743 418.223 160.067C406.366 178.392 390.198 193.482 378.341 211.267C365.945 229.053 357.861 251.688 363.789 272.168C372.952 288.876 390.198 294.265 410.139 310.434C430.08 326.602 459.722 349.777 471.04 372.413C482.897 395.587 479.124 427.924 456.488 440.32Z" fill="#CFE096"/>
<path d="M240.371 431.697C240.371 433.853 238.215 435.469 236.059 435.469H230.131V441.398C230.131 443.554 227.975 445.171 225.819 445.171C223.663 445.171 222.046 443.554 222.046 440.859V434.931H216.118C213.962 434.931 212.345 432.775 212.345 430.619C212.345 428.463 213.962 426.846 216.657 426.846H222.585V420.918C222.585 418.762 224.741 417.145 226.897 417.145C229.053 417.145 230.67 419.301 230.67 421.457V427.385H236.598C238.754 427.924 240.371 429.541 240.371 431.697Z" fill="#CFE096"/>
<path d="M500.143 265.701C500.143 267.857 497.987 269.474 495.832 269.474H490.442V275.402C490.442 277.558 488.286 279.175 486.131 279.175C483.975 279.175 482.358 277.558 482.358 274.863V268.935H476.43C474.274 268.935 472.657 266.779 472.657 264.623C472.657 262.467 474.274 260.851 476.968 260.851H482.897V254.922C482.897 252.766 485.053 251.149 487.208 251.149C489.364 251.149 490.981 253.305 490.981 255.461V261.389H496.909C498.526 261.928 500.143 263.545 500.143 265.701Z" fill="#CFE096"/>
<path d="M260.312 159.528V403.672H80.3032L81.3811 247.377C72.219 250.072 61.979 245.76 57.6674 236.598C53.3558 226.897 57.6674 215.04 67.3684 210.189L82.459 201.027V140.126H80.8421C76.5305 140.126 72.7579 138.509 70.0632 135.815C66.8295 132.581 65.2127 128.269 65.7516 123.958C66.2905 115.874 73.8358 109.406 81.92 109.406H132.581C141.204 109.406 148.211 116.413 148.211 125.036C148.211 133.659 141.204 140.665 132.581 140.665H130.425V174.08L201.027 132.581C205.339 130.425 210.189 131.503 214.501 133.659L260.312 159.528Z" fill="white"/>
<path d="M260.312 159.528V403.672H237.137V164.918C237.137 161.684 235.52 158.451 232.825 156.834L196.177 135.276L202.105 132.042C206.417 129.886 211.267 130.964 215.579 133.12L260.312 159.528Z" fill="#CFE096"/>
<path d="M453.794 194.56L431.697 215.04C427.385 218.813 421.996 220.968 416.067 220.968H260.312V159.528H416.067C421.996 159.528 427.385 161.684 431.697 165.457L453.794 185.937C456.488 188.093 456.488 192.404 453.794 194.56Z" fill="white"/>
<path d="M453.794 194.56L431.158 215.04C426.846 218.813 421.457 220.968 415.528 220.968H395.587C401.516 220.968 406.905 218.813 411.217 215.04L433.853 194.56C436.547 192.404 436.547 188.093 433.853 185.937L411.217 165.457C406.905 161.684 401.516 159.528 395.587 159.528H415.528C421.457 159.528 426.846 161.684 431.158 165.457L453.794 185.937C456.488 188.093 456.488 192.404 453.794 194.56Z" fill="#CFE096"/>
<path d="M453.794 255.461L431.697 275.941C427.385 279.714 421.996 281.869 416.067 281.869H260.312V220.968H416.067C421.996 220.968 427.385 223.124 431.697 226.897L453.794 247.377C456.488 249.533 456.488 253.305 453.794 255.461Z" fill="white"/>
<path d="M453.794 255.461L431.158 275.941C426.846 279.714 421.457 281.869 415.528 281.869H395.587C401.516 281.869 406.905 279.714 411.217 275.941L433.853 255.461C436.547 253.305 436.547 248.994 433.853 246.838L411.217 226.358C406.905 222.585 401.516 220.43 395.587 220.43H415.528C421.457 220.43 426.846 222.585 431.158 226.358L453.794 246.838C456.488 249.533 456.488 253.305 453.794 255.461Z" fill="#CFE096"/>
<path d="M453.794 316.362L431.697 336.842C427.385 340.615 421.996 342.771 416.067 342.771H260.312V281.87H416.067C421.996 281.87 427.385 284.025 431.697 287.798L453.794 308.278C456.488 310.434 456.488 314.206 453.794 316.362Z" fill="white"/>
<path d="M453.794 316.362L431.158 336.842C426.846 340.615 421.457 342.771 415.528 342.771H395.587C401.516 342.771 406.905 340.615 411.217 336.842L433.853 316.362C436.547 314.206 436.547 309.895 433.853 307.739L411.217 287.259C406.905 283.486 401.516 281.331 395.587 281.331H415.528C421.457 281.331 426.846 283.486 431.158 287.259L453.794 307.739C456.488 310.434 456.488 314.206 453.794 316.362Z" fill="#CFE096"/>
<path d="M453.794 377.802L431.697 398.282C427.385 402.055 421.996 404.211 416.067 404.211H260.312V342.771H416.067C421.996 342.771 427.385 344.926 431.697 348.699L453.794 369.179C456.488 371.335 456.488 375.107 453.794 377.802Z" fill="white"/>
<path d="M453.794 377.802L431.158 398.282C426.846 402.055 421.457 404.211 415.528 404.211H395.587C401.516 404.211 406.905 402.055 411.217 398.282L433.853 377.802C436.547 375.646 436.547 371.335 433.853 369.179L411.217 348.699C406.905 344.926 401.516 342.771 395.587 342.771H415.528C421.457 342.771 426.846 344.926 431.158 348.699L453.794 369.179C456.488 371.335 456.488 375.107 453.794 377.802Z" fill="#CFE096"/>
<path d="M28.0253 269.474H33.9537V275.402C33.9537 277.558 35.5705 279.175 37.7263 279.714C39.8821 279.714 41.4989 278.097 42.0379 275.941V270.013H47.9663C50.1221 270.013 51.7389 268.396 52.2779 266.24C52.2779 264.084 50.661 262.467 48.5053 261.928H42.5768V256C42.5768 253.844 40.96 252.227 38.8042 251.688C36.6484 251.688 35.0316 253.305 34.4926 255.461V261.39H28.5642C26.4084 261.39 24.7916 263.006 24.2526 265.162C24.2526 267.857 25.8695 269.474 28.0253 269.474Z" fill="#273A2C"/>
<path d="M486.131 115.335V109.406H492.059C494.215 109.406 495.832 107.789 496.371 105.634C496.371 103.478 494.754 101.861 492.598 101.322H486.67V95.3937C486.67 93.2379 485.053 91.6211 482.897 91.0821C480.741 91.0821 479.124 92.699 478.585 94.8548V100.783H472.657C470.501 100.783 468.884 102.4 468.345 104.556C468.345 106.712 469.962 108.328 472.118 108.867H478.046V114.796C478.046 116.952 479.663 118.568 481.819 119.107C483.975 119.646 486.131 117.491 486.131 115.335Z" fill="#273A2C"/>
<path d="M458.644 398.282H439.242L458.105 381.575C460.261 379.419 461.878 376.724 461.878 373.491C461.878 370.257 460.8 367.562 458.105 365.406L434.931 344.926C433.853 344.387 433.314 343.848 432.236 342.771C433.314 342.232 433.853 341.693 434.931 340.615L457.027 320.135C459.183 317.979 460.8 315.284 460.8 312.051C460.8 308.817 459.722 306.122 457.027 303.966L434.931 283.486C433.853 282.947 433.314 282.408 432.236 281.331C433.314 280.792 433.853 280.253 434.931 279.175L457.027 258.695C459.183 256.539 460.8 253.844 460.8 250.611C460.8 247.377 459.722 244.682 457.027 242.526L434.931 222.046C433.853 221.507 433.314 220.968 432.236 219.891C433.314 219.352 433.853 218.813 434.931 217.735L457.027 197.255C459.183 195.099 460.8 192.404 460.8 189.171C460.8 185.937 459.722 183.242 457.027 181.086L434.931 161.684C429.541 156.834 423.074 154.139 416.067 154.139H261.928L217.735 128.269C211.806 125.036 204.8 124.497 199.411 126.653C199.411 126.653 198.872 126.653 198.872 127.192L136.354 163.84V144.977C146.055 143.36 153.6 134.737 153.6 124.497C153.6 113.179 144.438 103.478 132.581 103.478H81.92C70.6021 103.478 60.9011 112.101 60.3621 122.88C59.8232 128.808 61.979 134.737 66.2905 139.048C69.5242 142.282 73.2969 143.899 77.6084 144.977V198.333L65.2127 205.878C52.8169 211.806 47.4274 226.358 53.3558 239.293C57.6674 248.455 66.8295 254.383 76.5305 253.844L75.4527 398.821H13.4737C10.24 398.821 8.08423 400.977 8.08423 404.211C8.08423 407.444 10.24 409.6 13.4737 409.6H458.644C461.878 409.6 464.034 407.444 464.034 404.211C464.034 400.977 461.339 398.282 458.644 398.282ZM427.924 291.571L450.56 312.051L428.463 332.531C425.23 335.225 420.918 336.842 416.606 336.842H265.701V286.72H416.067C420.379 287.259 424.691 288.876 427.924 291.571ZM427.924 230.669L450.56 251.149L427.924 271.629C424.691 274.324 420.379 275.941 416.067 275.941H265.701V226.358H416.067C420.379 226.358 424.691 227.975 427.924 230.669ZM427.924 169.768L450.56 190.248L428.463 210.728C424.691 213.962 420.379 215.579 416.067 215.579H265.701V165.457H416.067C420.379 164.918 424.691 166.535 427.924 169.768ZM63.0569 234.442C59.8232 227.436 63.0569 218.813 70.0632 215.579H70.6021L85.6927 206.417C87.3095 205.339 88.3874 203.722 88.3874 201.566V140.126C88.3874 136.893 86.2316 134.737 82.9979 134.737H81.3811C78.6863 134.737 75.9916 133.659 74.3748 132.042C72.219 129.886 71.1411 127.192 71.68 123.958C72.219 119.107 77.0695 114.796 82.459 114.796H133.12C138.51 114.796 143.36 119.107 143.36 125.036C143.36 130.964 137.971 134.737 132.581 134.737H130.425C127.192 134.737 125.036 136.893 125.036 140.126V173.541C125.036 175.697 126.114 177.314 127.731 178.392C129.347 179.469 131.503 179.469 133.12 178.392L203.183 136.893C205.878 135.815 208.573 136.354 211.806 137.971L254.383 163.301V399.36H231.747V296.421C231.747 293.187 229.592 291.032 226.358 291.032H143.899C140.665 291.032 138.51 293.187 138.51 296.421V398.821H85.6927L86.7705 247.916C86.7705 246.299 86.2316 244.682 84.6148 243.604C82.9979 242.526 81.3811 242.526 79.7642 242.526C73.2969 244.143 65.7516 240.909 63.0569 234.442ZM149.288 301.811H220.968V398.821H149.288V301.811ZM265.701 398.282V348.16H416.067C420.379 348.16 424.691 349.777 427.924 352.472L450.56 372.952L428.463 393.432C425.23 396.126 420.918 397.743 416.606 397.743H265.701V398.282Z" fill="#273A2C"/>
<path d="M498.526 398.282H488.286C485.053 398.282 482.897 400.438 482.897 403.672C482.897 406.905 485.053 409.061 488.286 409.061H498.526C501.76 409.061 503.916 406.905 503.916 403.672C503.916 400.438 501.76 398.282 498.526 398.282Z" fill="#273A2C"/>
<path d="M346.004 209.112C346.543 208.573 347.082 208.034 347.621 207.495L350.855 200.488H366.484L369.718 207.495C370.257 208.034 370.257 208.573 371.335 209.112C372.413 209.651 372.413 209.651 373.491 209.651C374.568 209.651 375.646 209.112 376.185 208.573C376.724 208.034 377.263 206.956 377.263 205.878C377.263 205.339 377.263 204.8 376.724 204.261L363.79 173.541C363.251 173.002 362.712 171.924 362.173 171.385C361.634 170.846 360.556 170.307 359.478 170.307H358.939C357.861 170.307 356.783 170.846 356.244 171.385C355.705 171.924 355.166 172.463 354.627 173.541L341.693 204.261C341.693 204.8 341.154 205.339 341.154 205.878C341.154 206.956 341.693 207.495 342.232 208.573C342.232 209.651 344.387 210.189 346.004 209.112ZM357.861 181.625L362.712 193.482H353.011L357.861 181.625Z" fill="#273A2C"/>
<path d="M347.082 270.552H359.478C364.328 270.552 368.101 269.474 370.257 267.857C372.413 265.701 374.03 263.006 374.03 259.773C374.03 257.078 373.491 254.922 371.874 253.305C370.796 252.227 369.718 251.688 368.64 250.611C369.179 250.072 369.718 249.533 370.257 248.455C371.335 246.838 371.874 245.221 371.874 242.526C371.874 239.293 370.796 236.598 368.64 234.981C366.484 233.364 363.251 232.286 359.478 232.286H347.621C346.543 232.286 345.465 232.825 344.926 233.364C344.387 233.903 343.848 234.981 343.848 236.059V266.779C343.848 267.857 344.387 268.396 344.926 269.474C345.465 270.013 346.543 270.552 347.082 270.552ZM350.855 239.293H358.939C361.095 239.293 362.712 239.832 363.79 240.371C364.867 240.909 365.406 241.987 365.406 243.065C365.406 244.682 364.867 245.76 363.79 246.299C363.251 246.838 361.634 247.377 358.4 247.377H351.394V239.293H350.855ZM350.855 254.383H358.939C366.484 254.383 366.484 257.617 366.484 258.695C366.484 260.312 365.945 261.389 364.867 261.928C364.328 262.467 362.173 263.006 358.4 263.006H350.316V254.383H350.855Z" fill="#273A2C"/>
<path d="M350.855 329.297C353.55 330.914 356.783 331.453 360.556 331.453C363.251 331.453 365.406 330.914 367.023 330.375C369.179 329.836 370.796 328.758 372.952 327.68C374.029 327.141 374.568 326.063 374.568 324.446C374.568 323.368 374.03 322.83 373.491 322.291C372.413 321.213 370.796 321.213 369.718 321.752C368.101 322.291 367.023 322.83 365.406 323.368C364.328 323.907 362.712 323.907 361.095 323.907C358.4 323.907 356.244 323.368 354.088 322.291C352.472 321.213 350.855 319.596 349.777 317.979C348.699 315.823 348.16 313.667 348.16 311.512C348.16 309.356 348.699 306.661 349.777 305.044C350.855 303.427 351.933 301.811 354.088 300.733C355.705 299.655 358.4 299.116 361.095 299.116C362.712 299.116 364.328 299.116 365.406 299.655C366.484 300.194 368.101 300.733 369.718 301.272C370.796 301.811 372.413 301.811 373.491 300.733C374.03 300.194 374.568 299.116 374.568 298.577C374.568 296.96 374.029 295.882 372.952 295.343C371.335 294.265 369.179 293.726 367.023 292.648C364.867 292.11 362.712 291.571 360.556 291.571C356.783 291.571 353.55 292.11 350.855 293.726C348.16 295.343 345.465 297.499 343.848 300.733C342.232 303.427 341.154 307.2 341.154 310.973C341.154 314.745 342.232 318.518 343.848 321.213C346.004 325.524 348.16 327.68 350.855 329.297Z" fill="#273A2C"/>
<path d="M365.945 356.783C363.251 355.166 359.478 354.088 355.166 354.088H344.926C343.848 354.088 342.771 354.627 342.232 355.166C341.693 355.705 341.154 356.783 341.154 357.861V388.581C341.154 389.659 341.693 390.198 342.232 391.276C342.771 391.815 343.848 392.354 344.926 392.354H355.166C359.478 392.354 362.712 391.276 365.945 389.659C368.64 388.042 370.796 385.347 372.413 382.653C374.03 379.958 374.568 376.724 374.568 373.491C374.568 370.257 374.03 367.023 372.413 364.328C370.796 361.095 368.64 358.939 365.945 356.783ZM365.945 379.958C364.867 381.575 363.251 383.192 361.634 384.27C359.478 385.347 357.322 385.886 355.166 385.886H349.238V361.095H355.166C357.861 361.095 360.017 361.634 361.634 362.712C363.79 363.79 364.867 364.867 365.945 367.023C367.023 368.64 367.562 370.796 367.562 373.491C367.023 375.646 366.484 377.802 365.945 379.958Z" fill="#273A2C"/>
</svg>
