<svg width="512" height="512" viewBox="0 0 512 512" fill="none" xmlns="http://www.w3.org/2000/svg">
<path d="M476.43 257.078C476.43 283.486 453.794 305.044 429.541 313.667C405.288 322.291 378.341 321.752 352.472 324.446C326.602 327.141 296.421 350.855 278.097 369.718C266.24 382.114 260.312 398.821 251.688 413.912C243.065 429.002 231.208 443.554 214.501 447.326C196.177 451.099 177.314 439.242 166.535 424.152C155.756 408.522 150.905 389.659 145.516 371.335C140.126 353.011 137.432 316.901 124.497 302.888C113.179 291.032 98.0884 283.486 83.5368 275.941C68.9853 268.396 53.8947 260.312 44.7326 246.838C35.0316 233.364 32.3368 213.962 42.5768 201.027C55.5116 184.859 79.2253 187.015 99.7053 185.398C137.971 182.164 173.541 158.989 192.943 126.114C199.949 113.718 204.8 100.244 212.884 87.8484C220.968 75.9916 232.286 65.2126 246.838 63.5958C266.779 61.44 283.486 77.6084 297.499 92.16C323.907 120.185 349.238 155.756 383.731 174.08C417.145 192.404 476.43 208.573 476.43 257.078Z" fill="#CFE096"/>
<path d="M99.1663 136.893C99.1663 139.048 97.0105 140.665 94.8547 140.665H88.9263V146.594C88.9263 148.749 86.7705 150.366 84.6147 150.366C82.4589 150.366 80.8421 148.749 80.8421 146.055V140.126H74.9137C72.7579 140.126 71.141 137.971 71.141 135.815C71.141 133.659 72.7579 132.042 75.4526 132.042H81.381V126.114C81.381 123.958 83.5368 122.341 85.6926 122.341C87.8484 122.341 89.4653 124.497 89.4653 126.653V132.581H95.3937C97.5495 132.581 99.1663 134.737 99.1663 136.893Z" fill="#CFE096"/>
<path d="M56.5895 312.589C56.5895 314.745 54.4337 316.362 52.2779 316.362H46.3495V322.291C46.3495 324.446 44.1937 326.063 42.0379 326.063C39.8821 326.063 38.2653 324.446 38.2653 321.752V315.823H32.3368C30.181 315.823 28.5642 313.667 28.5642 311.512C28.5642 309.356 30.181 307.739 32.8758 307.739H38.8042V301.811C38.8042 299.655 40.96 298.038 43.1158 298.038C45.2716 298.038 46.8884 300.194 46.8884 302.349V308.278H52.8168C54.9726 308.817 56.5895 310.434 56.5895 312.589Z" fill="#CFE096"/>
<path d="M382.114 128.269V352.472H340.076C334.147 352.472 329.297 357.322 329.297 363.251V404.211H139.048V128.269C139.048 119.107 146.055 112.101 155.217 112.101H365.945C375.107 112.101 382.114 119.107 382.114 128.269Z" fill="white"/>
<g opacity="0.3">
<path d="M382.114 229.592V328.219L381.036 328.758H380.497L338.998 343.848C337.381 344.387 335.225 344.926 333.608 344.926C329.297 344.926 324.985 343.309 322.291 340.076C317.979 335.764 316.362 328.758 318.518 323.368L334.686 279.175L335.225 277.558L335.764 277.019C336.842 275.402 337.92 274.324 338.998 273.246L382.114 229.592Z" fill="#CFE096"/>
</g>
<g opacity="0.3">
<path d="M208.573 349.238C208.573 368.64 200.488 386.425 187.015 399.899C185.398 401.516 184.32 402.594 182.703 404.211H139.048V276.48C157.912 277.019 175.158 284.564 188.093 298.038C201.566 312.051 209.112 329.836 208.573 349.238Z" fill="#CFE096"/>
</g>
<path d="M355.166 243.065C355.166 246.299 352.472 248.455 349.777 248.455H171.385C168.691 248.455 165.996 246.299 165.996 243.065C165.996 239.832 168.691 237.676 171.385 237.676H349.777C353.011 237.676 355.166 240.371 355.166 243.065Z" fill="#CFE096"/>
<path d="M165.996 200.488C165.996 197.255 168.691 195.099 171.385 195.099H349.777C352.472 195.099 355.166 197.255 355.166 200.488C355.166 203.722 352.472 205.878 349.777 205.878H171.385C168.152 205.878 165.996 203.722 165.996 200.488Z" fill="#CFE096"/>
<path d="M300.194 371.335C300.194 374.029 297.499 376.724 294.804 376.724H171.385C168.691 376.724 165.996 374.029 165.996 371.335C165.996 368.64 168.691 365.945 171.385 365.945H294.804C297.499 365.945 300.194 368.64 300.194 371.335Z" fill="#CFE096"/>
<path d="M338.998 328.758C338.998 331.992 336.303 334.147 333.608 334.147H171.385C168.691 334.147 165.996 331.992 165.996 328.758C165.996 326.063 168.691 323.368 171.385 323.368H333.608C336.842 323.368 338.998 326.063 338.998 328.758Z" fill="#CFE096"/>
<path d="M355.166 286.181C355.166 289.415 352.472 291.571 349.777 291.571H171.385C168.691 291.571 165.996 289.415 165.996 286.181C165.996 282.947 168.691 280.792 171.385 280.792H349.777C353.011 280.792 355.166 282.947 355.166 286.181Z" fill="#CFE096"/>
<path d="M382.114 352.472L329.297 404.21V363.251C329.297 357.322 334.147 352.472 340.076 352.472H382.114Z" fill="white"/>
<path d="M382.114 352.472L329.297 404.21V363.251C329.297 357.322 334.147 352.472 340.076 352.472H382.114Z" fill="white"/>
<path d="M350.498 284.367L440.803 194.061L468.238 221.496L377.933 311.802L350.498 284.367Z" fill="white"/>
<path d="M350.855 284.025L334.686 327.141L378.341 311.512L350.855 284.025Z" fill="white"/>
<path d="M461.339 173.541L440.859 194.021L468.345 221.507L488.825 201.027C492.059 197.794 492.059 192.943 488.825 189.709L472.657 173.541C469.423 170.307 464.034 170.307 461.339 173.541Z" fill="white"/>
<path d="M192.404 348.699C191.865 379.419 166.535 404.211 135.815 403.672C105.095 403.133 80.3031 377.802 80.8421 347.082C81.381 316.362 106.712 291.571 137.432 292.109C168.152 292.648 192.943 317.979 192.404 348.699Z" fill="white"/>
<path d="M192.404 348.699C191.865 379.419 166.535 404.21 135.815 403.672C133.12 403.672 130.425 403.672 127.731 403.133C154.678 399.36 175.697 376.724 176.236 348.699C176.775 320.674 156.295 296.96 129.347 292.648C132.042 292.109 134.737 292.109 137.432 292.109C168.152 292.648 192.943 317.979 192.404 348.699Z" fill="#CFE096"/>
<path d="M407.983 140.126H413.912V146.055C413.912 148.21 415.528 149.827 417.684 150.366C419.84 150.366 421.457 148.749 421.996 146.594V140.665H427.924C430.08 140.665 431.697 139.048 432.236 136.893C432.236 134.737 430.619 133.12 428.463 132.581H422.535V126.653C422.535 124.497 420.918 122.88 418.762 122.341C416.606 122.341 414.989 123.958 414.451 126.114V132.042H408.522C406.366 132.042 404.749 133.659 404.211 135.815C404.211 137.97 405.827 139.587 407.983 140.126Z" fill="#273A2C"/>
<path d="M460.8 427.924H454.872V421.996C454.872 419.84 453.255 418.223 451.099 417.684C448.943 417.684 447.326 419.301 446.787 421.457V427.385H440.859C438.703 427.385 437.086 429.002 436.547 431.158C436.547 433.314 438.164 434.931 440.32 435.469H446.248V441.398C446.248 443.554 447.865 445.17 450.021 445.709C452.177 445.709 453.794 444.093 454.333 441.937V436.008H460.261C462.417 436.008 464.034 434.392 464.573 432.236C465.112 430.08 462.956 427.924 460.8 427.924Z" fill="#273A2C"/>
<path d="M498.526 398.821H480.741C477.507 398.821 475.352 400.977 475.352 404.21C475.352 407.444 477.507 409.6 480.741 409.6H498.526C501.76 409.6 503.916 407.444 503.916 404.21C503.916 401.516 501.76 398.821 498.526 398.821Z" fill="#273A2C"/>
<path d="M171.385 144.438C170.846 144.977 170.307 146.055 170.307 146.594V173.541C170.307 174.619 170.846 175.158 171.385 175.697C171.924 176.236 173.002 176.775 173.541 176.775C174.619 176.775 175.158 176.236 175.697 175.697C176.236 175.158 176.775 174.08 176.775 173.541V146.594C176.775 145.516 176.236 144.977 175.697 144.438C174.619 142.821 172.463 142.821 171.385 144.438Z" fill="#273A2C"/>
<path d="M206.417 144.438C205.878 144.977 205.339 146.055 205.339 146.594V165.996L190.787 144.977C189.709 143.36 188.093 143.36 187.554 143.36H187.015C185.937 143.36 184.859 143.899 183.781 144.438C183.242 145.516 182.703 146.055 182.703 147.672V174.08C182.703 175.158 183.242 175.697 183.781 176.236C184.859 177.314 187.015 177.314 188.632 176.236C189.171 175.697 189.709 174.619 189.709 174.08V154.678L204.261 175.697C204.8 176.236 205.339 176.775 205.878 176.775C206.417 177.314 206.956 177.314 208.034 177.314H208.573C209.651 177.314 210.728 176.775 211.806 176.236C212.884 175.697 212.884 174.619 212.884 173.002V146.594C212.884 145.516 212.345 144.977 211.806 144.438C210.189 142.821 208.034 142.821 206.417 144.438Z" fill="#273A2C"/>
<path d="M243.065 143.36C242.526 143.36 241.448 143.36 240.909 143.899C240.371 144.438 239.832 144.977 239.832 145.516L230.669 168.152L221.507 145.516C220.968 144.977 220.968 144.438 220.429 143.899C219.891 143.36 219.352 143.36 218.274 143.36C217.196 143.36 216.118 143.899 215.579 144.438C215.04 144.977 214.501 146.055 214.501 146.594V147.672L225.28 174.08C226.358 176.236 227.975 176.775 229.053 176.775H230.131C231.208 176.775 232.825 176.236 233.903 174.08L244.682 147.672C244.682 147.133 244.682 147.133 244.682 146.594C244.682 145.516 244.143 144.977 243.604 144.438C244.682 143.899 244.143 143.36 243.065 143.36Z" fill="#273A2C"/>
<path d="M254.383 175.158C257.078 176.775 259.773 177.314 263.006 177.314C266.24 177.314 269.474 176.775 271.629 175.158C274.324 173.541 275.941 171.385 277.558 169.229C279.175 166.535 279.714 163.84 279.714 160.606C279.714 157.373 278.636 154.678 277.558 151.983C275.941 149.288 274.324 147.133 271.629 146.055C268.935 144.438 266.24 143.899 263.006 143.899C259.773 143.899 256.539 144.438 254.383 146.055C251.688 147.672 250.072 149.827 248.455 151.983C246.838 154.678 246.299 157.373 246.299 160.606C246.299 163.84 246.838 167.074 248.455 169.229C250.072 171.385 251.688 173.541 254.383 175.158ZM254.383 154.678C254.922 153.061 256 151.983 257.617 150.905C259.234 149.827 260.851 149.288 263.006 149.288C265.162 149.288 266.779 149.827 268.396 150.905C270.013 151.983 271.091 153.061 271.629 154.678C272.707 156.295 272.707 158.451 272.707 160.067C272.707 162.223 272.168 163.84 271.629 165.457C271.091 167.074 269.474 168.152 268.396 169.229C265.162 170.846 260.312 170.846 257.617 169.229C256 168.152 254.922 167.074 254.383 165.457C253.305 163.84 253.305 162.223 253.305 160.067C253.305 157.912 253.305 156.295 254.383 154.678Z" fill="#273A2C"/>
<path d="M289.415 176.236C289.954 175.697 290.493 174.619 290.493 174.08V147.133C290.493 146.055 289.954 145.516 289.415 144.977C288.337 143.899 286.181 143.899 284.564 144.977C284.025 145.516 283.486 146.594 283.486 147.133V174.08C283.486 175.158 284.025 175.697 284.564 176.236C285.103 176.775 286.181 177.314 286.72 177.314C288.337 177.314 288.876 176.775 289.415 176.236Z" fill="#273A2C"/>
<path d="M306.122 150.905C307.739 149.827 309.895 149.288 312.051 149.288C313.667 149.288 314.745 149.288 315.823 149.827C316.901 150.366 317.979 150.905 319.596 151.444C320.674 151.983 322.291 151.983 323.368 150.905C323.907 150.366 324.446 149.827 324.446 148.749C324.446 147.672 323.907 146.594 322.829 146.055C321.213 144.977 319.596 144.438 317.979 143.899C316.362 143.36 314.206 143.36 312.051 143.36C308.817 143.36 306.122 143.899 303.427 145.516C300.733 147.133 299.116 148.749 297.499 151.444C295.882 154.139 295.343 156.834 295.343 160.606C295.343 164.379 295.882 167.074 297.499 169.768C299.116 172.463 300.733 174.619 303.427 175.697C306.122 177.314 308.817 177.853 312.051 177.853C314.206 177.853 316.362 177.853 317.979 177.314C319.596 176.775 321.213 176.236 322.829 175.158C323.907 174.619 324.446 173.541 324.446 172.463C324.446 171.385 323.907 170.846 323.368 170.307C322.291 169.229 321.213 169.229 319.596 169.768C318.518 170.307 317.44 170.846 315.823 171.385C314.745 171.924 313.128 171.924 312.051 171.924C309.895 171.924 307.739 171.385 306.122 170.307C304.505 169.229 303.427 168.152 302.888 166.535C302.349 164.918 301.811 163.301 301.811 161.145C301.811 158.989 302.349 157.373 302.888 155.756C303.427 153.061 304.505 151.983 306.122 150.905Z" fill="#273A2C"/>
<path d="M348.16 149.827C349.238 149.827 349.777 149.288 350.316 148.749C350.855 148.211 351.394 147.133 351.394 146.594C351.394 145.516 350.855 144.977 350.316 144.438C349.777 143.899 348.699 143.36 348.16 143.36H330.375C329.297 143.36 328.758 143.899 328.219 144.438C327.68 144.977 327.141 146.055 327.141 146.594V173.541C327.141 174.619 327.68 175.158 328.219 175.697C328.758 176.236 329.836 176.775 330.375 176.775H348.16C349.238 176.775 349.777 176.236 350.316 175.697C350.855 175.158 351.394 174.08 351.394 173.541C351.394 172.463 350.855 171.924 350.316 171.385C349.777 170.846 348.699 170.307 348.16 170.307H334.147V163.301H347.082C348.16 163.301 348.699 162.762 349.238 162.223C349.777 161.684 350.316 160.606 350.316 160.067C350.316 158.989 349.777 158.451 349.238 157.912C348.699 157.373 347.621 156.834 347.082 156.834H334.147V149.827H348.16Z" fill="#273A2C"/>
<path d="M490.981 187.554L474.813 171.385C469.423 165.996 461.339 165.996 455.949 171.385C362.173 264.623 394.509 232.286 387.503 239.293V128.269C387.503 116.413 377.802 106.712 365.945 106.712H155.217C143.36 106.712 133.659 116.413 133.659 128.269V287.259C101.861 288.876 75.9916 315.284 75.4526 347.621C75.4526 368.64 85.6926 387.503 101.861 398.821H13.4737C10.24 398.821 8.0842 400.977 8.0842 404.211C8.0842 407.444 10.24 409.6 13.4737 409.6H222.046H222.585H225.819C229.053 409.6 231.208 407.444 231.208 404.211C231.208 400.977 229.053 398.821 225.819 398.821H171.385C180.008 392.893 188.093 383.731 192.943 372.413C196.177 364.867 197.794 357.322 197.794 349.238C198.333 317.44 174.08 291.571 144.438 287.798V128.269C144.438 122.341 149.288 117.49 155.217 117.49H365.945C371.874 117.49 376.724 122.341 376.724 128.269V250.072L345.465 281.331C344.926 281.869 344.387 282.408 343.848 283.486L328.219 326.602C327.68 328.758 328.219 330.914 329.297 332.531C330.914 334.147 333.069 334.686 334.686 333.608L376.185 318.518V346.543H339.537C330.375 346.543 323.368 353.549 323.368 362.712V398.282H256C253.305 398.282 250.611 400.438 250.611 403.672C250.611 406.905 253.305 409.061 256 409.061H258.695H259.234H452.177C455.411 409.061 457.566 406.905 457.566 403.672C457.566 400.438 455.411 398.282 452.177 398.282H342.232C368.101 372.952 360.556 380.497 385.886 355.705H386.425C387.503 354.627 388.042 353.011 388.042 351.933V309.356C398.821 298.577 349.777 347.621 491.52 205.878C496.371 201.027 496.371 192.404 490.981 187.554ZM187.015 348.16V348.699C187.015 377.263 162.762 398.821 135.815 398.821C135.276 398.821 134.198 398.821 133.12 398.821C106.712 397.204 85.6926 375.107 85.6926 348.16C86.2316 321.752 106.712 300.194 133.12 298.577H136.354H136.893C163.301 297.499 187.015 319.596 187.015 348.16ZM342.771 319.596L351.394 295.343L367.023 310.973L342.771 319.596ZM334.686 391.276V363.251C334.686 360.017 336.842 357.861 340.076 357.861H368.64L334.686 391.276ZM376.724 305.583C376.185 305.044 355.705 284.564 356.783 285.642C380.497 261.928 412.295 230.131 439.242 203.183L459.183 223.124C438.703 243.604 397.743 284.564 376.724 305.583ZM483.436 198.872L467.267 215.04L447.326 195.099L463.495 178.931C464.573 177.853 466.189 177.853 467.267 178.931L483.436 195.099C484.514 196.177 484.514 197.794 483.436 198.872Z" fill="#273A2C"/>
<path d="M155.217 353.011C153.6 350.855 150.905 349.238 148.211 348.16C147.133 347.621 145.516 347.082 143.899 346.543C142.821 346.004 141.204 346.004 139.587 345.465L138.509 344.926V325.524H140.665C141.743 325.524 142.821 325.524 144.438 326.063L150.905 327.68C151.444 328.219 151.983 328.219 152.522 328.219C153.061 328.219 154.139 327.68 154.678 327.141C155.217 326.602 155.756 325.524 155.756 324.446C155.756 322.829 154.678 321.752 153.061 321.213C150.366 320.135 147.133 319.596 143.899 319.057C142.821 319.057 141.204 318.518 140.126 318.518H138.509V312.589C138.509 312.051 138.509 311.512 137.971 310.973C137.432 310.434 136.893 310.434 136.354 310.434C135.815 310.434 135.276 310.434 134.737 310.973V312.051V317.979H133.659H133.12C129.886 318.518 126.653 319.057 124.497 320.674C121.802 322.291 119.107 324.446 118.029 326.602C116.413 329.297 115.874 331.992 115.874 334.686C115.874 337.92 116.952 341.154 118.568 343.309C120.185 345.465 122.88 347.082 125.575 348.16C127.731 349.238 130.964 350.316 134.198 350.855H134.737L135.815 351.394V370.257H134.737H133.659C128.808 369.718 124.497 368.64 120.724 367.023C120.185 367.023 119.646 366.484 119.107 366.484C118.029 366.484 116.952 367.023 116.413 367.562C115.874 368.101 115.335 369.179 115.335 370.257C115.335 370.796 115.874 371.874 115.874 372.413C116.413 372.952 116.952 373.491 117.491 373.491C122.341 375.646 127.731 376.724 133.12 377.263H133.659H134.737V383.73C134.737 384.269 134.737 384.808 135.276 385.347C135.815 385.886 135.815 385.886 136.893 385.886C137.432 385.886 137.971 385.886 138.509 385.347C139.048 384.808 139.048 384.808 139.048 383.73V377.263H140.665C142.282 377.263 143.36 376.724 144.438 376.724L149.288 375.107C151.983 373.49 154.678 371.874 156.295 369.179C157.912 367.023 158.451 364.328 158.451 361.095C157.912 357.861 157.373 355.166 155.217 353.011ZM133.659 343.309L132.042 342.77C129.347 341.693 127.192 341.154 125.575 340.076C123.419 338.998 122.341 336.842 122.341 334.147C122.341 331.453 123.419 329.297 125.575 327.68C127.192 326.602 129.347 325.524 131.503 324.985H132.581H133.659V343.309ZM144.438 369.179C143.36 369.718 142.282 369.718 141.204 370.257L139.048 370.796V353.011L141.743 353.549C142.821 354.088 143.899 354.088 144.977 354.627L148.211 356.244C150.366 357.322 151.444 358.939 151.444 361.095C150.366 365.406 148.211 368.101 144.438 369.179Z" fill="#273A2C"/>
</svg>
