<svg width="512" height="512" viewBox="0 0 512 512" fill="none" xmlns="http://www.w3.org/2000/svg">
<path fill-rule="evenodd" clip-rule="evenodd" d="M283.372 157.402C267.989 143.861 244.833 143.861 229.449 157.402L172.574 207.467C163.884 215.116 158.91 226.091 158.91 237.618V324.386C158.91 346.647 177.099 364.693 199.535 364.693H313.286C335.723 364.693 353.911 346.647 353.911 324.386V237.618C353.911 226.091 348.938 215.116 340.247 207.467L283.372 157.402ZM202.488 127.251C233.255 100.168 279.566 100.168 310.333 127.251L367.209 177.315C384.589 192.615 394.537 214.565 394.537 237.618V324.386C394.537 368.908 358.159 405 313.286 405H199.535C154.662 405 118.285 368.908 118.285 324.386V237.618C118.285 214.565 128.232 192.615 145.613 177.315L202.488 127.251Z" fill="#273A2C"/>
<path d="M247.706 282.267L220.047 274.856C212.542 272.845 208.79 271.84 207.877 268.959C206.965 266.079 209.454 263.096 214.431 257.13L269.549 191.076C272.697 187.303 274.271 185.417 275.255 185.927C276.239 186.438 275.603 188.811 274.331 193.557L260.151 246.477C259.815 247.733 259.646 248.361 259.932 248.855C260.218 249.35 260.846 249.518 262.102 249.855L289.76 257.266C297.265 259.277 301.018 260.282 301.93 263.163C302.843 266.043 300.354 269.026 295.376 274.992L240.258 341.046C237.11 344.819 235.536 346.705 234.553 346.195C233.569 345.684 234.204 343.311 235.476 338.565L249.656 285.645C249.993 284.39 250.161 283.762 249.875 283.267C249.59 282.772 248.962 282.604 247.706 282.267Z" fill="#273A2C"/>
</svg>
