<svg width="512" height="512" viewBox="0 0 512 512" fill="none" xmlns="http://www.w3.org/2000/svg">
<path d="M476.43 257.078C476.43 283.486 453.794 305.044 429.541 313.667C405.288 322.291 378.341 321.752 352.472 324.446C326.602 327.141 296.421 350.855 278.097 369.718C266.24 382.114 260.312 398.821 251.688 413.912C243.065 429.002 231.208 443.554 214.501 447.326C196.177 451.099 177.314 439.242 166.535 424.152C155.756 408.522 150.905 389.659 145.516 371.335C140.126 353.011 137.432 316.901 124.497 302.888C113.179 291.032 98.0885 283.486 83.5369 275.941C68.9853 268.396 53.8948 260.312 44.7327 246.838C35.0316 233.364 32.3369 213.962 42.5769 201.027C55.5116 184.859 79.2253 187.015 99.7053 185.398C137.971 182.164 173.541 158.989 192.943 126.114C199.95 113.718 204.8 100.244 212.884 87.8484C220.968 75.9916 232.286 65.2126 246.838 63.5958C266.779 61.44 283.486 77.6084 297.499 92.16C323.907 120.185 349.238 155.756 383.731 174.08C417.145 192.404 476.43 208.573 476.43 257.078Z" fill="#CFE096"/>
<path d="M63.5958 98.0884C64.6737 100.244 63.5958 102.4 61.44 103.478L56.0506 105.634L58.2064 111.023C59.2843 113.179 58.2064 115.335 56.0506 115.874C53.8948 116.413 51.739 115.874 51.2 113.718L49.0443 108.328L43.6548 110.484C41.499 111.562 39.3432 110.484 38.8043 108.328C38.2653 106.173 38.8043 104.017 40.96 103.478L46.3495 101.322L44.1937 95.9326C43.6548 93.7768 44.1937 91.621 46.3495 91.0821C48.5053 90.0042 50.6611 91.0821 51.739 93.2379L53.8948 98.6274L59.2843 96.4716C60.3621 95.3937 62.5179 96.4716 63.5958 98.0884Z" fill="#CFE096"/>
<path d="M256 141.204C271.776 141.204 284.564 128.416 284.564 112.64C284.564 96.8644 271.776 84.0758 256 84.0758C240.224 84.0758 227.436 96.8644 227.436 112.64C227.436 128.416 240.224 141.204 256 141.204Z" fill="white"/>
<path d="M284.564 112.64C284.564 128.269 271.63 141.204 256 141.204C253.844 141.204 251.15 140.665 248.994 140.126C261.39 136.893 270.552 126.114 270.552 112.64C270.552 99.1663 261.39 88.3874 248.994 85.1537C251.15 84.6147 253.305 84.0758 256 84.0758C271.63 84.0758 284.564 96.4716 284.564 112.64Z" fill="#CFE096"/>
<path d="M256 404.211C271.776 404.211 284.564 391.422 284.564 375.646C284.564 359.871 271.776 347.082 256 347.082C240.224 347.082 227.436 359.871 227.436 375.646C227.436 391.422 240.224 404.211 256 404.211Z" fill="white"/>
<path d="M284.564 375.646C284.564 391.276 271.63 404.211 256 404.211C253.844 404.211 251.15 403.672 248.994 403.133C261.39 399.899 270.552 389.12 270.552 375.646C270.552 362.173 261.39 351.394 248.994 348.16C251.15 347.621 253.305 347.082 256 347.082C271.63 347.621 284.564 360.017 284.564 375.646Z" fill="#CFE096"/>
<path d="M381.036 337.92C396.811 337.92 409.6 325.131 409.6 309.356C409.6 293.58 396.811 280.792 381.036 280.792C365.26 280.792 352.472 293.58 352.472 309.356C352.472 325.131 365.26 337.92 381.036 337.92Z" fill="white"/>
<path d="M409.6 309.356C409.6 324.985 396.665 337.92 381.036 337.92C378.88 337.92 376.185 337.381 374.03 336.842C386.425 333.608 395.587 322.829 395.587 309.356C395.587 295.882 386.425 285.103 374.03 281.869C376.185 281.331 378.341 280.792 381.036 280.792C396.665 280.792 409.6 293.726 409.6 309.356Z" fill="#CFE096"/>
<path d="M130.964 337.92C146.74 337.92 159.528 325.131 159.528 309.356C159.528 293.58 146.74 280.792 130.964 280.792C115.189 280.792 102.4 293.58 102.4 309.356C102.4 325.131 115.189 337.92 130.964 337.92Z" fill="white"/>
<path d="M159.528 309.356C159.528 324.985 146.594 337.92 130.964 337.92C128.808 337.92 126.653 337.92 124.497 337.381C136.893 334.686 146.594 323.368 146.594 309.895C146.594 296.421 137.432 285.103 124.497 282.408C126.653 281.869 128.808 281.869 130.964 281.869C146.594 280.792 159.528 293.726 159.528 309.356Z" fill="#CFE096"/>
<path d="M130.964 210.728C146.74 210.728 159.528 197.94 159.528 182.164C159.528 166.389 146.74 153.6 130.964 153.6C115.189 153.6 102.4 166.389 102.4 182.164C102.4 197.94 115.189 210.728 130.964 210.728Z" fill="white"/>
<path d="M159.528 182.164C159.528 197.794 146.594 210.728 130.964 210.728C128.269 210.728 125.575 210.189 123.419 209.651C135.276 206.417 143.899 195.638 143.899 182.164C143.899 169.229 135.276 158.451 123.419 154.678C126.114 154.139 128.269 153.6 130.964 153.6C146.594 153.6 159.528 165.996 159.528 182.164Z" fill="#CFE096"/>
<path d="M381.036 210.728C396.811 210.728 409.6 197.94 409.6 182.164C409.6 166.389 396.811 153.6 381.036 153.6C365.26 153.6 352.472 166.389 352.472 182.164C352.472 197.94 365.26 210.728 381.036 210.728Z" fill="white"/>
<path d="M409.6 182.164C409.6 197.794 396.665 210.728 381.036 210.728C378.88 210.728 376.185 210.189 374.03 209.651C386.425 206.417 395.587 195.638 395.587 182.164C395.587 168.691 386.425 157.912 374.03 154.678C376.185 154.139 378.341 153.6 381.036 153.6C396.665 153.6 409.6 165.996 409.6 182.164Z" fill="#CFE096"/>
<path d="M322.83 244.143C322.83 280.792 292.648 310.973 256 310.973C219.352 310.973 189.171 280.792 189.171 244.143C189.171 206.956 219.352 177.314 256 177.314C292.648 177.314 322.83 206.956 322.83 244.143Z" fill="white"/>
<path d="M301.272 292.109C289.415 303.427 273.785 310.973 256 310.973C238.215 310.973 222.585 303.966 210.728 292.109C215.579 279.714 224.741 270.013 236.598 265.162C227.436 259.234 221.507 248.455 221.507 236.598C221.507 217.735 236.598 202.105 256 202.105C274.863 202.105 290.493 217.196 290.493 236.598C290.493 248.455 284.564 258.695 275.402 265.162C286.72 270.013 296.421 280.253 301.272 292.109Z" fill="white"/>
<path d="M322.829 244.143C322.829 280.792 292.648 310.973 256 310.973C250.611 310.973 245.76 310.434 240.909 309.356C274.863 306.122 301.272 277.558 301.272 242.526C301.272 210.728 279.175 184.32 250.072 177.314C252.227 177.314 254.383 176.775 256.539 176.775C292.648 177.314 322.829 206.956 322.829 244.143Z" fill="#CFE096"/>
<path d="M425.768 133.659H431.697V139.587C431.697 141.743 433.314 143.36 435.47 143.899C437.625 143.899 439.242 142.282 439.781 140.126V134.198H445.71C447.865 134.198 449.482 132.581 450.021 130.425C450.021 128.269 448.404 126.653 446.248 126.114H440.32V120.185C440.32 118.029 438.703 116.413 436.547 115.874C434.392 115.874 432.775 117.491 432.236 119.646V125.575H426.307C424.152 125.575 422.535 127.192 421.996 129.347C421.996 131.503 423.613 133.12 425.768 133.659Z" fill="#273A2C"/>
<path d="M18.8632 329.836L24.2527 327.68L26.4084 333.069C27.4863 335.225 29.6421 336.303 31.259 335.225C33.4148 334.147 34.4927 331.992 33.4148 330.375L31.259 324.985L36.6484 322.829C38.8042 322.291 39.8821 319.596 38.8042 317.44C38.2653 315.284 35.5705 314.206 33.9537 315.284L28.5642 317.44L26.4084 312.051C25.8695 309.895 23.1748 308.817 21.019 309.895C18.8632 310.434 17.7853 313.128 18.8632 314.745L21.019 320.135L15.6295 322.291C13.4737 323.368 12.3958 325.524 13.4737 327.141C14.5516 329.297 16.7074 330.375 18.8632 329.836Z" fill="#273A2C"/>
<path d="M320.674 423.613L315.284 424.691L314.206 419.301C313.667 417.145 312.051 415.528 309.895 416.067C307.739 416.606 306.122 418.223 306.661 420.379L307.739 425.768L302.349 426.846C300.194 427.385 298.577 429.002 299.116 431.158C299.655 433.314 301.272 434.931 303.427 434.392L308.817 433.314L309.895 438.703C310.434 440.859 312.051 442.476 314.206 441.937C316.362 441.398 317.979 439.781 317.44 437.625L316.362 432.236L321.752 431.158C323.907 430.619 325.524 429.002 324.985 426.846C324.446 424.691 322.829 423.074 320.674 423.613Z" fill="#273A2C"/>
<path d="M137.971 398.821H13.4737C10.24 398.821 8.08423 400.977 8.08423 404.211C8.08423 407.444 10.24 409.6 13.4737 409.6H137.971C141.204 409.6 143.36 407.444 143.36 404.211C143.36 400.977 140.665 398.821 137.971 398.821Z" fill="#273A2C"/>
<path d="M498.526 398.821H404.749C401.516 398.821 399.36 400.977 399.36 404.211C399.36 407.444 401.516 409.6 404.749 409.6H498.526C501.76 409.6 503.916 407.444 503.916 404.211C503.916 400.977 501.76 398.821 498.526 398.821Z" fill="#273A2C"/>
<path d="M381.036 342.771C399.899 342.771 414.99 327.68 414.99 308.817C414.99 292.109 402.594 278.097 386.425 275.402V215.04C402.594 212.345 414.99 198.333 414.99 181.625C414.99 162.762 399.899 147.672 381.036 147.672C370.796 147.672 362.173 151.983 355.705 158.989L287.798 122.88C288.876 119.646 289.415 115.874 289.415 112.101C289.415 93.2379 274.324 78.1474 255.461 78.1474C236.598 78.1474 221.507 93.2379 221.507 112.101C221.507 115.874 222.046 119.646 223.124 122.88L156.295 159.528C150.366 152.522 141.204 148.211 130.964 148.211C112.101 148.211 97.0106 163.301 97.0106 182.164C97.0106 198.872 109.406 212.884 125.575 215.579V276.48C109.406 279.175 97.0106 293.187 97.0106 309.895C97.0106 328.758 112.101 343.848 130.964 343.848C141.204 343.848 149.827 339.537 156.295 332.531L223.663 368.101C223.124 370.796 222.585 373.491 222.585 376.724C222.585 385.347 225.819 393.432 231.747 399.36H173.541C170.307 399.36 168.152 401.516 168.152 404.749C168.152 407.983 170.307 410.139 173.541 410.139H356.244C359.478 410.139 361.634 407.983 361.634 404.749C361.634 401.516 359.478 399.36 356.244 399.36H281.331C286.72 393.432 290.493 385.347 290.493 376.724C290.493 374.029 289.954 370.796 289.415 368.101L355.705 331.453C362.173 338.459 370.796 342.771 381.036 342.771ZM261.928 305.044C257.617 305.583 254.922 305.583 250.611 305.044C238.754 303.966 226.897 299.116 217.735 290.493C222.046 281.331 230.131 273.785 239.293 269.474C240.91 268.935 242.526 266.779 242.526 265.162C242.526 263.006 241.987 261.389 240.371 260.312C232.286 254.922 227.436 245.76 227.436 236.059C227.436 219.891 240.371 206.956 256.539 206.956C272.707 206.956 285.642 219.891 285.642 236.059C285.642 245.76 280.792 254.922 272.707 260.312C271.091 261.389 270.013 263.545 270.552 265.162C270.552 267.318 272.168 268.935 273.785 269.474C283.486 273.785 291.032 280.792 295.343 290.493C285.642 299.116 273.785 303.966 261.928 305.044ZM302.888 283.486C298.577 275.402 292.11 268.935 284.564 264.084C291.571 256.539 295.343 246.838 295.343 236.598C295.343 214.501 277.558 196.716 255.461 196.716C233.364 196.716 215.579 214.501 215.579 236.598C215.579 246.838 219.352 256.539 226.897 264.084C219.352 268.935 212.884 275.402 208.573 283.486C199.411 272.707 194.021 259.234 194.021 244.143C194.021 210.189 221.507 182.703 255.461 182.703C289.415 182.703 316.901 210.189 316.901 244.143C317.44 259.234 312.051 272.707 302.888 283.486ZM136.354 275.941V215.04C145.516 213.423 153.6 208.034 158.99 201.027L189.171 216.657C185.937 225.28 183.781 234.442 183.781 244.143C183.781 254.922 185.937 264.623 190.248 273.785L158.99 289.954C153.6 282.408 145.516 277.558 136.354 275.941ZM322.83 216.657L353.011 201.027C358.4 208.573 365.945 213.962 375.646 215.04V275.941C366.484 277.558 358.4 282.408 353.011 289.954L321.752 273.785C330.375 254.922 330.375 234.981 322.83 216.657ZM404.211 309.356C404.211 322.291 393.971 332.531 381.036 332.531C368.101 332.531 357.861 322.291 357.861 309.356C357.861 296.421 368.101 286.181 381.036 286.181C393.971 286.181 404.211 296.421 404.211 309.356ZM381.036 158.989C393.971 158.989 404.211 169.229 404.211 182.164C404.211 195.099 393.971 205.339 381.036 205.339C368.101 205.339 357.861 195.099 357.861 182.164C357.861 169.229 368.101 158.989 381.036 158.989ZM282.947 132.581L350.316 168.152C347.082 175.158 346.543 182.703 348.699 190.787L317.979 206.956C306.122 187.554 285.642 173.541 261.39 171.924V145.516C270.013 144.438 277.558 139.587 282.947 132.581ZM256 89.4653C268.935 89.4653 279.175 99.7053 279.175 112.64C279.175 125.575 268.935 135.815 256 135.815C243.065 135.815 232.825 125.575 232.825 112.64C232.825 99.7053 243.065 89.4653 256 89.4653ZM229.053 132.581C234.442 139.587 241.987 143.899 250.611 145.516V171.924C226.358 173.541 205.878 187.554 194.021 206.956L163.301 190.787C165.457 182.703 164.918 175.158 161.684 168.152L229.053 132.581ZM107.79 182.164C107.79 169.229 118.03 158.989 130.964 158.989C143.899 158.989 154.139 169.229 154.139 182.164C154.139 195.099 143.899 205.339 130.964 205.339C118.03 205.339 107.79 194.56 107.79 182.164ZM107.79 309.356C107.79 296.421 118.03 286.181 130.964 286.181C143.899 286.181 154.139 296.421 154.139 309.356C154.139 322.291 143.899 332.531 130.964 332.531C118.03 332.531 107.79 321.752 107.79 309.356ZM162.223 322.291C163.84 317.979 164.918 313.667 164.918 308.817C164.918 305.583 164.379 302.349 163.301 299.116L195.099 282.408C206.956 300.733 226.358 313.128 248.994 315.284H250.611V341.693C240.91 343.309 232.825 348.699 227.436 356.783L162.223 322.291ZM254.383 398.821C242.526 397.743 232.825 388.042 232.825 376.185C232.825 363.251 243.065 353.011 256 353.011C268.935 353.011 279.175 363.251 279.175 376.185C279.175 388.581 269.474 398.282 257.617 398.821H254.383ZM284.564 357.322C279.714 349.238 271.091 343.848 261.39 342.232V315.823H263.006C285.642 313.667 305.044 301.272 316.901 282.947L348.699 299.655C346.543 307.739 347.082 315.284 349.777 322.291L284.564 357.322Z" fill="#273A2C"/>
</svg>
