<svg width="540" height="374" viewBox="0 0 540 374" fill="none" xmlns="http://www.w3.org/2000/svg">
<path fill-rule="evenodd" clip-rule="evenodd" d="M147.399 154.967C142.321 150.498 134.679 150.498 129.601 154.967L110.829 171.491C107.961 174.016 106.319 177.639 106.319 181.443V210.081C106.319 217.429 112.323 223.385 119.728 223.385H157.272C164.677 223.385 170.681 217.429 170.681 210.081V181.443C170.681 177.639 169.039 174.016 166.171 171.491L147.399 154.967ZM120.703 145.016C130.857 136.077 146.143 136.077 156.298 145.016L175.07 161.54C180.806 166.589 184.089 173.834 184.089 181.443V210.081C184.089 224.776 172.083 236.688 157.272 236.688H119.728C104.917 236.688 92.9108 224.776 92.9108 210.081V181.443C92.9108 173.834 96.194 166.589 101.931 161.54L120.703 145.016Z" fill="#273A2C"/>
<path d="M135.627 196.18L126.498 193.734C124.021 193.07 122.782 192.738 122.481 191.787C122.18 190.837 123.002 189.852 124.645 187.883L142.836 166.081C143.875 164.836 144.395 164.214 144.72 164.382C145.044 164.551 144.835 165.334 144.415 166.9L139.735 184.367C139.624 184.781 139.568 184.989 139.662 185.152C139.757 185.315 139.964 185.371 140.378 185.482L149.507 187.928C151.984 188.592 153.223 188.923 153.524 189.874C153.825 190.825 153.004 191.809 151.361 193.778L133.169 215.58C132.13 216.825 131.61 217.448 131.286 217.279C130.961 217.111 131.171 216.328 131.59 214.761L136.271 197.295C136.382 196.88 136.437 196.673 136.343 196.51C136.249 196.346 136.041 196.291 135.627 196.18Z" fill="#273A2C"/>
<path d="M214.749 222L237.359 155.5H259.019L281.154 222H266.429L262.154 208.795H233.939L229.569 222H214.749ZM238.119 195.875H257.974L248.189 165.38L238.119 195.875ZM288.1 222V155.5H302.35V208.795H333.32V222H288.1ZM349.321 222L328.041 155.5H343.716L360.626 211.265L377.916 155.5H393.401L371.836 222H349.321ZM388.421 222L411.031 155.5H432.691L454.826 222H440.101L435.826 208.795H407.611L403.241 222H388.421ZM411.791 195.875H431.646L421.861 165.38L411.791 195.875Z" fill="#273A2C"/>
</svg>
