<svg width="500" height="500" viewBox="0 0 500 500" fill="none" xmlns="http://www.w3.org/2000/svg">
<path d="M441.722 281.053C430.55 277.897 419.293 282.126 413.047 291.831C411.793 293.782 410.876 295.562 410.247 297.27C405.616 309.829 397.834 330.569 392.519 344.703C386.907 339.479 379.074 337.244 371.135 339.037C364.289 340.584 359.73 343.697 358.885 344.307C358.849 344.332 358.814 344.359 358.778 344.386C358.74 344.414 358.636 344.493 358.598 344.523C358.558 344.554 358.518 344.586 358.479 344.619L334.904 363.917C332.017 366.281 328.91 368.011 325.669 369.062C308.137 374.744 292.513 390.281 289.03 398.919C286.186 405.974 284.098 434.357 283.526 442.889C283.491 443.416 283.519 443.931 283.597 444.432C275.603 447.065 269.526 454.116 268.476 462.878L267.851 468.088C266.393 480.253 275.104 491.336 287.269 492.793L345.373 499.756C346.256 499.861 347.151 499.915 348.036 499.915C359.265 499.915 368.741 491.499 370.078 480.338L370.702 475.129C371.437 468.997 369.586 463.141 366.013 458.653C387.421 437.29 419.432 405.128 425.138 398.155C434.417 386.823 459.794 309.332 459.993 308.628C460.279 307.628 460.393 306.52 460.362 305.029C460.119 293.593 452.803 284.183 441.722 281.053ZM356.801 473.461L356.177 478.67C355.682 482.8 352.182 485.913 348.035 485.913C347.705 485.913 347.369 485.893 347.038 485.854L288.934 478.89C284.434 478.351 281.211 474.251 281.75 469.752L282.375 464.542C282.87 460.413 286.37 457.3 290.517 457.3C290.847 457.3 291.183 457.32 291.514 457.36L349.618 464.322C354.118 464.861 357.34 468.961 356.801 473.461ZM414.303 389.285C410.272 394.212 387.772 417.181 353.944 450.912C353.077 450.7 352.191 450.531 351.283 450.422L297.476 443.975C297.48 443.925 297.49 443.876 297.493 443.825C298.593 427.432 300.633 407.604 302.013 404.152C303.528 400.395 315.497 387.073 329.985 382.379C334.891 380.788 339.53 378.221 343.77 374.75L367.166 355.598C367.701 355.242 370.351 353.568 374.218 352.694C379.748 351.449 383.522 354.583 385.213 357.932C385.85 359.195 386.288 360.673 386.372 362.226C386.37 362.398 386.371 362.57 386.381 362.742C386.387 365.257 385.434 367.926 382.839 370.169C367.977 383.02 350.541 397.65 350.366 397.796C347.404 400.28 347.017 404.695 349.502 407.658C351.986 410.619 356.401 411.005 359.364 408.522C359.539 408.374 377.052 393.679 391.995 380.759C397.234 376.23 400.106 370.046 400.359 363.611C402.987 356.639 416.572 320.577 423.381 302.114C423.566 301.611 423.966 300.734 424.819 299.408C428.262 294.054 433.84 293.379 437.914 294.526C441.912 295.656 446.23 299.086 446.363 305.322C446.365 305.329 446.365 305.338 446.365 305.346C443.369 315.31 420.381 381.865 414.303 389.285Z" fill="#273A2C"/>
<path d="M77.412 178.349H124.204V275.811C124.204 301.864 145.4 323.059 171.453 323.059H331.284C357.337 323.059 378.533 301.864 378.533 275.811V178.349H422.589C426.718 178.349 430.353 175.863 431.85 172.016C433.347 168.169 432.349 163.88 429.306 161.089L255.751 1.92466C253.087 -0.518396 248.998 -0.530359 246.318 1.89762L70.739 161.049C67.67 163.83 66.651 168.124 68.141 171.988C69.631 175.852 73.27 178.349 77.412 178.349ZM250.992 16.5566L412.146 164.349H371.532C367.666 164.349 364.532 167.483 364.532 171.349V275.811C364.532 294.144 349.617 309.059 331.283 309.059H171.452C153.119 309.059 138.203 294.144 138.203 275.811V171.349C138.203 167.483 135.069 164.349 131.203 164.349H87.9441L250.992 16.5566Z" fill="#273A2C"/>
<path d="M239.604 258.895C242.712 261.131 246.345 262.313 250.109 262.313C253.757 262.313 257.297 261.197 260.346 259.084C271.106 251.624 291.323 236.273 305.838 217.28C329.868 185.837 324.279 162.534 315.359 148.523C308.189 137.261 297.617 131.309 284.786 131.309C270.689 131.309 257.088 138.537 250.356 142.752C243.544 138.17 229.505 130.127 214.899 130.127C202.69 130.127 192.418 135.733 185.193 146.338C175.814 160.106 169.703 183.305 193.852 215.639C208.389 235.102 228.757 251.095 239.604 258.895ZM196.764 154.22C201.39 147.428 207.323 144.127 214.899 144.127C229.899 144.127 245.676 156.613 245.825 156.732C248.316 158.739 251.859 158.795 254.421 156.878C254.575 156.762 270.049 145.309 284.786 145.309C292.814 145.309 298.952 148.82 303.55 156.042C326.523 192.125 270.184 235.228 252.371 247.579C250.956 248.558 249.182 248.539 247.779 247.531C229.738 234.556 172.742 189.484 196.764 154.22Z" fill="#273A2C"/>
<path d="M231.525 462.877C230.475 454.114 224.398 447.064 216.404 444.431C216.481 443.929 216.51 443.415 216.475 442.887C215.903 434.356 213.815 405.973 210.972 398.918C207.49 390.278 191.866 374.742 174.333 369.061C171.092 368.01 167.984 366.28 165.097 363.916L141.522 344.618C141.482 344.586 141.377 344.504 141.337 344.472C141.263 344.414 141.188 344.358 141.112 344.303C140.267 343.695 135.703 340.581 128.865 339.036C120.927 337.243 113.094 339.478 107.481 344.703C102.166 330.569 94.3848 309.83 89.7537 297.274C89.1238 295.563 88.2078 293.783 86.9517 291.83C80.7068 282.127 69.4508 277.899 58.2778 281.053C47.1967 284.183 39.8808 293.594 39.6378 305.031C39.6068 306.513 39.7198 307.619 40.0028 308.613C40.2068 309.332 65.5948 386.835 74.8618 398.153C80.5618 405.118 112.572 437.281 133.984 458.646C133.954 458.683 133.92 458.716 133.891 458.753C130.224 463.419 128.593 469.234 129.299 475.127L129.923 480.336C131.26 491.496 140.736 499.912 151.965 499.913H151.967C152.85 499.913 153.746 499.859 154.628 499.754L212.732 492.791C224.897 491.334 233.607 480.251 232.149 468.086L231.525 462.877ZM85.6948 389.285C79.6288 381.876 56.6408 315.337 53.6348 305.347C53.6348 305.339 53.6348 305.332 53.6348 305.325C53.7668 299.085 58.0858 295.656 62.0828 294.527C66.1558 293.376 71.7338 294.053 75.1778 299.406C76.0318 300.734 76.4308 301.61 76.6168 302.115C83.4248 320.575 97.0088 356.632 99.6378 363.61C99.8898 370.046 102.763 376.23 108.002 380.759C122.945 393.679 140.459 408.374 140.634 408.522C143.595 411.004 148.01 410.619 150.496 407.658C152.98 404.695 152.593 400.28 149.631 397.796C149.457 397.65 132.021 383.02 117.158 370.169C114.566 367.927 113.612 365.262 113.617 362.747C113.628 362.573 113.629 362.398 113.627 362.224C113.711 360.672 114.15 359.195 114.786 357.933C116.477 354.582 120.253 351.449 125.78 352.695C129.641 353.567 132.287 355.236 132.83 355.599L156.228 374.752C160.47 378.224 165.108 380.789 170.015 382.38C184.501 387.075 196.471 400.398 197.986 404.153C199.365 407.603 201.405 427.432 202.505 443.827C202.508 443.877 202.518 443.926 202.522 443.976L148.715 450.424C147.812 450.531 146.931 450.71 146.061 450.922C112.225 417.179 89.7228 394.205 85.6948 389.285ZM216.55 475.809C215.193 477.536 213.246 478.63 211.066 478.892L152.962 485.855C152.63 485.895 152.295 485.915 151.967 485.915C151.967 485.915 151.967 485.915 151.966 485.915C147.819 485.915 144.318 482.801 143.823 478.671L143.199 473.463C142.938 471.283 143.541 469.132 144.898 467.406C146.254 465.679 148.202 464.585 150.382 464.323L208.485 457.361C208.817 457.321 209.152 457.301 209.482 457.301C213.629 457.301 217.129 460.414 217.624 464.544L218.248 469.752C218.51 471.932 217.906 474.083 216.55 475.809Z" fill="#273A2C"/>
</svg>
