<svg width="512" height="512" viewBox="0 0 512 512" fill="none" xmlns="http://www.w3.org/2000/svg">
<path d="M409.103 422.524C409.103 428.489 404.132 433.46 398.664 433.46H57.165C51.2 433.46 46.2291 428.489 46.2291 422.524C46.2291 416.559 51.2 411.588 57.165 411.588H398.664C404.629 411.588 409.103 416.559 409.103 422.524Z" fill="white"/>
<path d="M409.103 422.524C409.103 428.489 404.132 433.46 398.664 433.46H361.88C349.949 428.986 340.008 421.53 332.054 412.085H398.664C404.629 411.588 409.103 416.559 409.103 422.524Z" fill="#CFE096"/>
<path d="M369.833 256V411.588H85.9961V256C122.283 219.713 228.163 113.833 228.163 113.833L369.833 256Z" fill="#CFE096"/>
<path d="M369.833 411.588H331.557C320.621 398.664 314.159 382.26 314.159 363.868C314.159 329.072 338.019 300.241 369.833 292.287V411.588Z" fill="#CFE096"/>
<path d="M369.833 256V301.732L233.134 165.033C230.151 162.05 225.181 162.05 222.198 165.033L85.9961 301.235V256C122.283 219.713 228.163 113.833 228.163 113.833L369.833 256Z" fill="#CFE096"/>
<path d="M311.674 113.833V188.893L360.388 237.608V113.833H311.674Z" fill="#CFE096"/>
<path d="M372.318 278.866L233.134 139.682C230.151 136.699 225.181 136.699 222.198 139.682L83.0135 278.866C80.031 281.849 75.0601 281.849 72.0776 278.866L53.6854 260.474C50.7029 257.491 50.7029 252.52 53.6854 249.538L222.198 81.0252C225.181 78.0427 230.151 78.0427 233.134 81.0252L401.647 249.538C404.629 252.52 404.629 257.491 401.647 260.474L383.254 278.866C380.272 281.849 375.301 281.849 372.318 278.866Z" fill="white"/>
<path d="M185.414 299.247H265.445V411.588H185.414V299.247Z" fill="white"/>
<path d="M266.439 231.146C266.439 249.538 251.526 264.45 233.134 264.45C214.742 264.45 199.829 249.538 199.829 231.146C199.829 212.753 214.742 197.841 233.134 197.841C251.526 197.841 266.439 212.753 266.439 231.146Z" fill="#CFE096"/>
<path d="M368.342 93.9495V113.833C368.342 117.313 365.856 119.798 362.377 119.798H309.685C306.206 119.798 303.72 117.313 303.72 113.833V93.9495C303.72 90.4699 306.206 87.9845 309.685 87.9845H362.377C365.856 87.9845 368.342 90.4699 368.342 93.9495Z" fill="white"/>
<path d="M227.666 252.023C243.314 252.023 256 239.338 256 223.689C256 208.041 243.314 195.355 227.666 195.355C212.018 195.355 199.332 208.041 199.332 223.689C199.332 239.338 212.018 252.023 227.666 252.023Z" fill="white"/>
<path d="M460.8 410.097C448.373 424.016 429.98 432.963 409.6 432.963C371.324 432.963 340.505 402.144 340.505 363.868C340.505 325.592 371.324 294.773 409.6 294.773C447.876 294.773 478.695 325.592 478.695 363.868C478.695 375.301 475.713 386.237 470.742 395.682" fill="white"/>
<path d="M409.6 409.6C435.955 409.6 457.32 388.235 457.32 361.88C457.32 335.524 435.955 314.159 409.6 314.159C383.245 314.159 361.88 335.524 361.88 361.88C361.88 388.235 383.245 409.6 409.6 409.6Z" fill="#CFE096"/>
<path d="M25.3514 427.992H17.398C14.4155 427.992 12.4271 429.981 12.4271 432.963C12.4271 435.946 14.4155 437.934 17.398 437.934H25.3514C28.3339 437.934 30.3223 435.946 30.3223 432.963C30.3223 429.981 28.3339 427.992 25.3514 427.992Z" fill="#273A2C"/>
<path d="M494.602 427.992H481.678C478.695 427.992 476.707 429.981 476.707 432.963C476.707 435.946 478.695 437.934 481.678 437.934H494.602C497.584 437.934 499.573 435.946 499.573 432.963C499.573 429.981 497.087 427.992 494.602 427.992Z" fill="#273A2C"/>
<path d="M260.971 223.689C260.971 205.297 246.058 190.384 227.666 190.384C209.274 190.384 194.361 205.297 194.361 223.689C194.361 242.082 209.274 256.994 227.666 256.994C246.058 256.994 260.971 242.082 260.971 223.689ZM204.8 223.689C204.8 210.765 215.239 200.326 228.163 200.326C241.087 200.326 251.526 210.765 251.526 223.689C251.526 236.614 241.087 247.052 228.163 247.052C215.239 247.052 204.8 236.614 204.8 223.689Z" fill="#273A2C"/>
<path d="M243.573 343.487C240.59 343.487 238.602 345.476 238.602 348.458V362.874C238.602 365.856 240.59 367.845 243.573 367.845C246.555 367.845 248.544 365.856 248.544 362.874V348.458C248.544 345.476 246.555 343.487 243.573 343.487Z" fill="#273A2C"/>
<path d="M409.6 289.802C397.173 289.802 385.243 292.784 375.301 298.252V285.825C376.295 285.825 377.289 286.322 378.283 286.322C381.763 286.322 384.746 284.831 387.231 282.346L405.623 263.953C408.109 261.468 409.6 258.485 409.6 255.006C409.6 251.526 408.109 248.544 405.623 246.058L365.856 206.291V123.775C370.33 122.283 373.81 118.307 373.81 113.336V93.4524C373.81 87.4874 368.839 82.5165 362.874 82.5165H309.685C303.72 82.5165 298.749 87.4874 298.749 93.4524V113.336C298.749 118.307 302.229 122.781 306.703 123.775V147.138L237.111 77.5456C232.14 72.5748 223.689 72.5748 219.215 77.5456L50.7028 246.058C48.2174 248.544 46.7261 251.526 46.7261 255.006C46.7261 258.485 48.2174 261.468 50.7028 263.953L69.0951 282.346C72.0776 285.328 77.0485 286.322 81.0252 285.825V358.897C81.0252 361.88 83.0135 363.868 85.996 363.868C88.4815 363.868 90.9669 361.88 90.9669 358.897V278.866L226.175 143.658C227.169 142.664 229.157 142.664 230.151 143.658L364.862 278.369V304.715C346.967 318.136 335.037 339.511 335.037 363.868C335.037 379.775 340.008 394.687 348.458 406.618H270.415V299.247C270.415 296.264 268.427 294.276 265.445 294.276H185.414C182.928 294.276 180.443 296.264 180.443 299.247V406.618H90.9669V377.289C90.9669 374.307 88.4815 372.318 85.996 372.318C83.0135 372.318 81.0252 374.307 81.0252 377.289V406.618H57.165C48.7145 406.618 41.2582 413.577 41.2582 422.524C41.2582 425.01 41.7553 427.495 42.7494 429.484C41.7553 430.478 41.2582 431.472 41.2582 432.963C41.2582 435.946 43.2465 437.934 46.2291 437.934H461.794C464.777 437.934 466.765 435.946 466.765 432.963C466.765 429.981 464.777 427.992 461.794 427.992H445.887C452.349 424.016 458.812 419.045 463.782 413.577C465.771 411.588 465.274 408.606 463.285 406.618C461.297 404.629 458.314 405.126 456.326 407.115C444.893 419.542 429.483 426.998 412.582 427.992C408.606 428.489 404.629 427.992 400.155 427.495C368.342 423.518 344.482 396.179 344.482 363.868C344.482 328.575 373.313 299.744 408.606 299.744C443.899 299.744 472.73 328.575 472.73 363.868C472.73 374.307 470.245 384.249 465.274 393.693C463.782 396.179 464.777 399.161 467.262 400.155C469.747 401.647 472.73 400.652 474.221 398.167C479.689 387.728 482.672 375.798 482.672 363.868C483.169 323.107 450.361 289.802 409.6 289.802ZM308.691 93.9495C308.691 93.4524 309.188 92.9553 309.685 92.9553H362.377C362.874 92.9553 363.371 93.4524 363.371 93.9495V113.833C363.371 114.33 362.874 114.827 362.377 114.827H309.685C309.188 114.827 308.691 114.33 308.691 113.833V93.9495ZM316.645 124.272H355.417V196.35L316.645 157.577V124.272ZM237.111 136.699C234.625 134.214 231.146 132.722 228.163 132.722C224.683 132.722 221.701 134.214 219.215 136.699C179.448 176.466 123.278 232.637 80.031 275.884C79.0368 276.878 77.0485 276.878 76.0543 275.884L57.6621 257.491C56.6679 256.497 56.6679 254.509 57.6621 253.515L226.175 84.5049C227.169 83.5107 229.157 83.5107 230.151 84.5049C281.848 136.202 344.481 198.835 398.664 253.017C399.658 254.012 399.658 256 398.664 256.994L380.272 275.386C379.278 276.381 377.289 276.381 376.295 275.386C356.412 256 293.779 193.367 237.111 136.699ZM190.384 304.217H260.474V406.618H190.384V304.217ZM57.165 416.559H357.406C361.88 421.033 366.85 425.01 372.318 427.992H57.165C54.1824 427.992 51.697 425.507 51.697 422.524C51.1999 419.045 53.6854 416.559 57.165 416.559Z" fill="#273A2C"/>
<path d="M409.6 309.188C380.769 309.188 356.909 332.551 356.909 361.88C356.909 391.208 380.769 414.571 409.6 414.571C438.431 414.571 462.291 390.711 462.291 361.88C462.291 332.551 438.431 309.188 409.6 309.188ZM409.6 404.629C385.74 404.629 366.85 385.243 366.85 361.88C366.85 338.517 385.74 319.13 409.6 319.13C432.963 319.13 452.349 338.517 452.349 361.88C452.349 385.243 432.963 404.629 409.6 404.629Z" fill="#273A2C"/>
<path d="M409.6 358.897C405.623 358.897 402.144 355.417 402.144 351.441C402.144 347.464 405.623 343.984 409.6 343.984C413.577 343.984 417.056 347.464 417.056 351.441C417.056 354.423 419.045 356.412 422.027 356.412C425.01 356.412 426.998 354.423 426.998 351.441C426.998 343.487 421.53 337.025 414.571 335.037V332.054C414.571 329.569 412.085 327.083 409.6 327.083C406.617 327.083 404.629 329.569 404.629 332.054V335.037C397.67 337.025 392.202 343.984 392.202 351.441C392.202 360.885 400.155 368.839 409.6 368.839C413.577 368.839 417.056 372.318 417.056 376.295C417.056 380.272 413.577 383.751 409.6 383.751C405.623 383.751 402.144 380.272 402.144 376.295C402.144 373.313 400.155 371.324 397.173 371.324C394.19 371.324 392.202 373.313 392.202 376.295C392.202 384.249 397.67 390.711 404.629 392.699V395.682C404.629 398.167 407.115 400.652 409.6 400.652C412.582 400.652 414.571 398.167 414.571 395.682V392.699C421.53 390.711 426.998 383.751 426.998 376.295C426.501 366.85 419.045 358.897 409.6 358.897Z" fill="#273A2C"/>
</svg>
