<svg width="512" height="512" viewBox="0 0 512 512" fill="none" xmlns="http://www.w3.org/2000/svg">
<path d="M445.71 195.099C422.535 210.728 395.587 219.891 372.952 236.059C350.316 252.766 332.531 280.792 341.154 307.739C346.543 326.063 362.712 338.459 370.796 355.705C381.036 378.341 375.107 406.905 357.861 425.229C340.615 443.015 313.667 450.56 289.415 446.248C264.623 441.937 243.065 426.307 228.514 406.366C218.813 392.893 212.345 377.263 202.644 363.789C193.482 350.316 180.008 337.92 163.301 335.225C131.503 330.914 104.017 364.867 71.6801 362.712C51.2001 361.095 33.4148 343.309 29.1032 323.368C24.7916 303.427 31.7979 281.869 45.2716 266.24C58.7453 250.611 77.6085 240.371 97.5495 234.981C111.023 231.208 125.036 229.053 138.51 224.202C151.983 219.352 164.379 211.267 171.385 198.872C187.554 167.613 158.99 128.269 171.385 95.9326C178.392 77.0695 199.411 65.2126 219.352 65.7516C239.293 66.2905 258.695 77.0695 271.091 92.699C278.636 101.861 288.337 139.587 297.499 142.821C308.278 146.055 343.31 111.023 353.011 104.556C375.107 90.5432 400.438 79.7642 426.307 81.3811C452.177 83.5368 478.046 101.322 482.897 126.653C488.286 153.061 468.884 179.469 445.71 195.099Z" fill="#CFE096"/>
<path d="M199.411 430.619C199.411 429.002 201.027 427.385 202.644 427.385H207.495V422.535C207.495 420.918 209.112 419.301 210.728 419.301C212.345 419.301 213.962 420.918 213.962 422.535V427.385H218.813C220.429 427.385 222.046 429.002 222.046 430.619C222.046 432.236 220.429 433.853 218.813 433.853H213.962V438.703C213.962 440.32 212.345 441.937 210.728 441.937C209.112 441.937 207.495 440.32 207.495 438.703V433.853H202.644C201.027 433.853 199.411 432.775 199.411 430.619Z" fill="#CFE096"/>
<path d="M81.92 122.341C81.92 124.497 79.7642 126.114 77.6085 126.114H71.68V132.042C71.68 134.198 69.5242 135.815 67.3685 135.815C65.2127 135.815 63.5958 134.198 63.5958 131.503V125.575H57.6674C55.5116 125.575 53.8948 123.419 53.8948 121.263C53.8948 119.107 55.5116 117.491 58.2064 117.491H64.1348V111.562C64.1348 109.406 66.2906 107.789 68.4464 107.789C70.6021 107.789 72.219 109.945 72.219 112.101V118.029H78.1474C80.3032 118.568 81.92 120.185 81.92 122.341Z" fill="#CFE096"/>
<path d="M326.602 132.581V340.076L276.48 341.693C270.552 341.693 265.701 346.543 266.24 352.472L267.318 403.133H104.556V132.581C104.556 123.419 112.101 116.413 120.724 116.413H310.434C319.057 116.413 326.602 123.419 326.602 132.581Z" fill="white"/>
<path d="M300.733 340.076V132.581C300.733 123.419 293.726 116.413 284.564 116.413H310.434C319.596 116.413 326.602 123.419 326.602 132.581V340.076" fill="#CFE096"/>
<path d="M326.602 340.076L267.318 403.133L266.24 352.472C266.24 346.543 270.552 341.693 276.48 341.693L326.602 340.076Z" fill="white"/>
<path d="M326.602 340.076L267.318 403.133L266.779 384.808L308.817 340.615L326.602 340.076Z" fill="#CFE096"/>
<g opacity="0.3">
<path d="M326.602 161.145V318.518C300.733 316.901 277.019 302.35 264.084 279.714C253.305 261.39 250.611 240.371 256 219.891C261.39 199.411 274.324 182.164 292.648 171.924C302.35 165.996 314.206 162.223 326.602 161.145Z" fill="#CFE096"/>
</g>
<path d="M273.246 211.267C284.025 224.202 290.493 240.371 290.493 258.156C290.493 299.116 256.539 331.992 215.04 331.992C175.697 331.992 142.821 302.349 139.587 264.623H219.891L273.246 211.267Z" fill="#CFE096"/>
<path d="M264.623 203.722C252.766 194.021 237.676 187.554 220.968 186.476V252.227L264.623 203.722Z" fill="#CFE096"/>
<path d="M291.571 160.606H139.587C136.354 160.606 134.198 158.451 134.198 155.217C134.198 151.983 136.354 149.827 139.587 149.827H291.032C294.265 149.827 296.421 151.983 296.421 155.217C296.421 158.451 294.265 160.606 291.571 160.606Z" fill="#CFE096"/>
<path d="M237.676 368.64H139.587C136.354 368.64 134.198 366.484 134.198 363.251C134.198 360.017 136.354 357.861 139.587 357.861H237.137C240.371 357.861 242.526 360.017 242.526 363.251C242.526 366.484 240.371 368.64 237.676 368.64Z" fill="#CFE096"/>
<path d="M405.827 344.387L382.653 305.583L361.095 318.518L384.269 357.322C388.042 363.251 395.587 365.406 401.516 361.634C407.444 358.4 409.6 350.316 405.827 344.387Z" fill="white"/>
<path d="M407.444 350.316C407.444 354.627 405.288 359.478 400.977 361.634C399.899 362.173 398.282 362.712 396.665 363.251C397.743 361.095 398.282 358.939 398.282 356.244C398.282 354.088 397.743 352.472 396.665 350.316L373.491 311.512L361.095 319.057V318.518L382.653 305.583L405.827 344.387C406.905 346.543 407.444 348.16 407.444 350.316Z" fill="#CFE096"/>
<path d="M386.425 303.427L358.4 320.135C356.244 321.213 354.088 320.674 353.011 318.518L343.31 302.35C349.777 300.733 355.705 298.038 361.634 294.265C368.101 290.493 373.491 286.181 378.341 281.331L388.042 298.038C389.12 299.655 388.042 302.35 386.425 303.427Z" fill="white"/>
<path d="M386.425 303.427L358.4 320.135C356.244 321.213 354.088 320.674 353.011 318.518L343.31 302.35C349.777 300.733 355.705 298.038 361.634 294.265C368.101 290.493 373.491 286.181 378.341 281.331L388.042 298.038C389.12 299.655 388.042 302.35 386.425 303.427Z" fill="white"/>
<path d="M386.425 303.427L358.4 320.135C356.244 321.213 354.088 320.674 353.011 318.518L343.31 302.35C349.777 300.733 355.705 298.038 361.634 294.265C368.101 290.493 373.491 286.181 378.341 281.331L388.042 298.038C389.12 299.655 388.042 302.35 386.425 303.427Z" fill="white"/>
<path d="M388.042 302.349L379.958 307.2C380.497 306.122 381.036 304.505 379.958 302.888L370.796 287.798C374.03 285.642 376.724 282.947 379.419 280.253L389.12 296.96C390.737 298.577 390.198 301.272 388.042 302.349Z" fill="#CFE096"/>
<path d="M363.789 293.726C334.147 311.512 295.343 301.272 278.097 271.63C260.312 241.987 270.552 203.183 300.194 185.937C329.836 168.152 368.64 178.392 385.886 208.034C403.133 237.676 393.432 276.48 363.789 293.726Z" fill="white"/>
<path d="M425.768 280.253H431.697V286.181C431.697 288.337 433.314 289.954 435.47 290.493C437.625 290.493 439.242 288.876 439.781 286.72V280.792H445.71C447.865 280.792 449.482 279.175 450.021 277.019C450.021 274.863 448.404 273.246 446.248 272.707H440.32V266.779C440.32 264.623 438.703 263.006 436.547 262.467C434.392 262.467 432.775 264.084 432.236 266.24V272.168H426.307C424.152 272.168 422.535 273.785 421.996 275.941C421.996 278.097 423.613 279.714 425.768 280.253Z" fill="#273A2C"/>
<path d="M38.8043 216.657L33.4148 218.813L31.259 213.423C30.1811 211.267 28.0253 210.728 25.8695 211.267C23.7137 212.345 23.1748 214.501 23.7137 216.657L25.8695 222.046L20.4801 224.202C18.3243 225.28 17.7853 227.436 18.3243 229.592C19.4022 231.747 21.558 232.825 23.7137 231.747L29.1032 229.592L31.259 234.981C32.3369 237.137 34.4927 237.676 36.6485 237.137C38.8043 236.059 39.8822 233.903 38.8043 231.747L36.6485 226.358L42.038 224.202C44.1937 223.124 44.7327 220.968 44.1937 218.813C43.1158 216.657 40.9601 215.579 38.8043 216.657Z" fill="#273A2C"/>
<path d="M34.4927 397.743H13.4737C10.24 397.743 8.08423 399.899 8.08423 403.133C8.08423 406.366 10.24 408.522 13.4737 408.522H34.4927C37.7263 408.522 39.8821 406.366 39.8821 403.133C39.8821 399.899 37.1874 397.743 34.4927 397.743Z" fill="#273A2C"/>
<path d="M498.526 398.282C432.775 398.282 459.183 398.282 390.198 398.282C386.964 398.282 384.808 400.438 384.808 403.672C384.808 406.905 386.964 409.061 390.198 409.061H498.526C501.76 409.061 503.916 406.905 503.916 403.672C503.916 400.438 501.76 398.282 498.526 398.282Z" fill="#273A2C"/>
<path d="M140.126 253.844H210.19V186.476C173.002 188.632 143.36 217.735 140.126 253.844Z" fill="#273A2C"/>
<path d="M404.211 366.484C412.834 361.634 415.528 350.316 410.678 341.693L389.659 307.2C393.432 304.505 394.51 299.116 392.354 294.804L384.808 282.408C402.055 260.851 405.288 230.131 390.198 205.339C377.802 183.781 354.627 171.924 331.453 171.924V132.581C331.453 120.724 321.752 111.023 309.895 111.023H120.724C108.867 111.023 99.1664 120.724 99.1664 132.581V397.743H68.4464C65.2127 397.743 63.0569 399.899 63.0569 403.133C63.0569 406.366 65.2127 408.522 68.4464 408.522H343.31C346.543 408.522 348.699 406.366 348.699 403.133C348.699 399.899 346.543 397.743 343.31 397.743H279.714C308.817 367.023 301.811 374.568 330.375 343.31C330.914 342.771 330.914 342.232 331.453 341.693V341.154C331.453 340.615 331.453 340.076 331.992 339.537C331.992 339.537 331.992 339.537 331.992 338.998V307.2C334.686 307.2 337.381 307.2 340.076 306.661L348.16 320.135C349.777 323.368 353.011 324.985 356.244 324.985C357.322 324.985 357.861 324.985 358.939 324.446L379.958 359.478C384.808 368.64 395.587 371.335 404.211 366.484ZM313.667 346.004L272.168 390.198L271.091 353.011C271.091 350.316 273.246 347.621 276.48 347.621L313.667 346.004ZM321.213 334.686L276.48 336.303C267.857 336.842 260.851 343.848 260.851 353.011L261.928 397.743H109.945V132.581C109.945 126.653 114.796 121.802 120.724 121.802H310.434C316.362 121.802 321.213 126.653 321.213 132.581V173.002C313.128 174.08 305.044 176.775 297.499 181.625C265.162 200.488 254.383 242.526 273.246 274.863C284.025 293.187 301.811 304.505 321.213 307.2V334.686ZM282.408 268.935C266.24 241.448 275.402 206.417 302.888 190.248C329.836 174.08 365.406 183.242 381.575 210.728C397.743 238.215 388.581 273.246 361.095 289.415C333.608 305.583 298.577 296.421 282.408 268.935ZM350.855 305.044C360.556 302.35 369.179 297.499 377.263 290.493L382.653 299.116L356.783 314.206L350.855 305.044ZM389.12 354.627L368.64 320.674L381.036 313.128L401.516 347.082C403.672 350.316 402.594 355.166 398.821 356.783C395.048 358.939 390.737 357.861 389.12 354.627Z" fill="#273A2C"/>
<path d="M364.867 220.43C371.335 231.208 371.874 244.682 366.484 256C364.867 258.695 366.484 262.467 369.179 263.545C371.874 265.162 375.646 263.545 376.724 260.851C383.731 245.76 382.653 228.514 374.568 214.501C367.023 201.566 353.55 192.404 338.459 190.248C335.764 190.248 333.07 191.865 332.531 194.56C331.453 197.794 334.147 201.566 337.381 202.105C348.699 203.722 358.939 210.728 364.867 220.43Z" fill="#273A2C"/>
<path d="M365.406 276.48C365.945 275.941 366.484 275.402 367.023 274.863C369.179 272.707 369.179 268.935 367.023 266.779C364.867 264.623 361.095 264.623 358.939 266.779L357.861 267.857C355.705 270.013 355.166 273.785 357.322 275.941C358.4 277.019 360.017 278.097 361.634 277.558C362.712 278.097 364.329 277.558 365.406 276.48Z" fill="#273A2C"/>
</svg>
