<svg width="512" height="512" viewBox="0 0 512 512" fill="none" xmlns="http://www.w3.org/2000/svg">
<path d="M447.326 195.099C424.152 210.728 397.204 219.891 374.568 236.059C351.933 252.766 334.147 280.792 342.771 307.739C348.16 326.063 364.328 338.459 372.413 355.705C382.653 378.341 376.724 406.905 359.478 425.229C342.232 443.015 315.284 450.56 291.032 446.248C266.24 441.937 244.682 426.307 230.131 406.366C220.429 392.893 213.962 377.263 204.261 363.789C195.099 350.316 181.625 337.92 164.918 335.225C133.12 330.914 105.634 364.867 73.2968 362.712C52.8168 361.095 35.5705 343.309 31.2589 323.368C26.9474 303.427 33.9537 281.869 47.4274 266.24C60.901 250.611 79.7642 240.371 99.7053 234.981C113.179 231.208 127.192 229.053 140.665 224.202C154.139 219.352 166.535 211.267 173.541 198.872C189.709 167.613 161.145 128.269 173.541 95.9326C180.547 77.0695 201.566 65.2126 221.507 65.7516C241.448 66.2905 260.851 77.0695 273.246 92.6989C280.792 101.861 290.493 139.587 299.655 142.821C310.434 146.055 345.465 111.023 355.166 104.556C377.263 90.5431 402.594 79.7642 428.463 81.381C454.333 83.5368 480.202 101.322 485.053 126.653C490.442 153.061 470.501 179.469 447.326 195.099Z" fill="#CFE096"/>
<path d="M321.752 91.0821C321.752 93.2379 319.596 94.8547 317.44 94.8547L312.051 94.3158L311.512 99.7053C311.512 101.861 309.356 103.478 307.2 103.478C305.044 103.478 303.427 101.322 303.427 99.1663L303.966 93.7768L298.577 93.2379C296.421 93.2379 294.804 91.0821 294.804 88.9263C294.804 86.7705 296.96 85.1537 299.116 85.1537L304.505 85.6926L305.044 80.3031C305.044 78.1474 307.2 76.5305 309.356 76.5305C311.512 76.5305 313.128 78.6863 313.128 80.8421L312.589 86.2316L317.979 86.7705C320.674 86.7705 322.291 88.9263 321.752 91.0821Z" fill="#CFE096"/>
<path d="M100.244 431.158C100.244 433.314 98.0884 434.931 95.9326 434.931L90.5431 434.392L90.0042 439.781C90.0042 441.937 87.8484 443.554 85.6926 443.554C83.5368 443.554 81.92 441.398 81.92 439.242L82.4589 433.853L77.0695 433.314C74.9137 433.314 73.2968 431.158 73.2968 429.002C73.2968 426.846 75.4526 425.23 77.6084 425.23L82.9979 425.768L83.5368 420.379C83.5368 418.223 85.6926 416.606 87.8484 416.606C90.0042 416.606 91.621 418.762 91.621 420.918L91.0821 426.307L96.4716 426.846C98.6274 426.846 100.244 429.002 100.244 431.158Z" fill="#CFE096"/>
<path d="M190.787 313.128C188.093 295.343 208.034 281.331 220.968 283.486C222.585 284.025 224.741 283.486 226.358 284.025C229.053 273.246 238.754 265.162 250.072 265.162C256 265.162 261.389 267.318 265.701 271.091V270.552C265.701 253.844 279.175 240.909 295.343 240.909C311.512 240.909 324.446 253.305 324.985 269.474C328.758 267.318 333.069 265.701 337.92 265.701C349.777 265.701 359.478 273.785 362.173 284.564C363.789 284.025 365.406 284.025 367.562 284.025C381.036 284.025 393.432 296.96 392.354 312.589C392.354 312.589 384.808 334.147 381.575 335.225C378.341 336.303 328.758 359.478 328.219 359.478C327.68 359.478 275.402 369.179 273.246 368.64C270.552 368.64 219.352 356.783 219.352 356.783L190.787 313.128Z" fill="white"/>
<path d="M392.893 312.051C392.893 312.051 385.347 333.608 382.114 334.686C381.036 334.686 376.185 337.381 369.179 340.076C372.413 333.608 377.263 320.674 377.263 320.674C378.341 305.583 366.484 292.109 352.472 292.109C350.855 292.109 348.699 292.109 347.082 292.648C344.387 281.869 334.686 273.785 322.829 273.785C320.135 273.785 317.979 274.324 315.284 274.863C312.589 275.941 309.895 274.324 309.356 271.629C306.122 258.695 294.265 248.994 280.253 248.994C278.097 248.994 275.941 248.994 273.785 249.533C279.175 243.604 286.72 239.832 295.343 239.832C311.512 239.832 324.446 252.227 324.985 268.396C328.758 266.24 333.069 264.623 337.92 264.623C349.777 264.623 359.478 272.707 362.173 283.486C363.789 282.947 365.406 282.947 367.562 282.947C381.575 284.025 393.971 296.96 392.893 312.051Z" fill="#CFE096"/>
<path d="M253.844 186.476L256 195.099L246.299 197.794C218.274 204.8 189.709 188.093 182.703 160.067L182.164 157.912C181.086 154.139 183.781 149.827 187.554 148.749L189.17 148.211C217.735 140.665 246.299 157.912 253.844 186.476Z" fill="white"/>
<path d="M256 195.099L250.611 196.716L250.072 194.56C242.526 165.996 213.423 148.749 184.859 156.295L183.781 156.834C183.242 156.834 182.703 157.373 182.164 157.373C181.625 153.6 183.781 149.827 187.554 148.749L188.632 148.211C217.196 140.665 246.299 157.912 253.844 186.476L256 195.099Z" fill="#CFE096"/>
<path d="M326.602 189.171L315.284 188.093L316.362 175.697C319.596 138.509 352.472 110.484 389.659 113.718L396.126 114.257C399.36 114.796 402.055 117.491 401.516 121.263L400.977 126.653C398.282 164.379 364.867 192.404 326.602 189.171Z" fill="white"/>
<path d="M326.602 189.171L315.284 188.093L315.823 181.625H319.057C357.322 184.859 390.737 156.834 393.971 118.568L394.509 113.179H396.665C399.899 113.718 402.594 116.413 402.594 120.185L402.055 125.575C398.282 164.379 364.867 192.404 326.602 189.171Z" fill="#CFE096"/>
<path d="M327.68 304.505C324.446 304.505 322.829 301.811 322.829 299.655C322.829 298.038 322.829 295.882 322.291 294.804C322.291 294.265 321.752 293.726 320.135 293.187C316.362 291.571 311.512 292.109 307.739 294.804C306.661 295.882 305.044 295.882 303.427 295.343C301.811 294.804 300.733 293.726 300.194 292.109C299.655 290.493 299.655 288.337 299.655 286.72C299.655 285.642 299.655 284.564 299.655 284.025C299.655 283.486 299.116 282.947 296.421 281.869C295.882 281.869 293.726 280.792 292.648 281.331C292.648 283.486 291.032 285.642 288.876 286.181C286.181 286.72 284.025 285.103 283.486 282.408C282.408 278.097 285.642 273.246 290.493 272.168C294.265 271.091 297.499 272.168 299.655 272.707C301.272 273.246 306.661 274.863 308.817 279.714C309.356 280.792 309.356 281.869 309.895 282.947C314.745 281.869 319.596 281.869 323.907 283.486C327.141 284.564 329.297 286.181 330.914 288.876C333.069 292.648 333.069 296.96 332.531 299.655C331.992 302.349 329.836 304.505 327.68 304.505Z" fill="#CFE096"/>
<path d="M305.044 344.926L398.821 302.888C408.522 298.577 419.84 302.888 424.152 312.589C428.463 322.291 424.691 333.608 414.989 337.92L317.44 388.042C300.194 396.665 280.792 401.516 261.389 401.516C246.299 401.516 231.747 398.821 217.196 393.432L155.217 369.718V285.642H161.145C176.236 285.642 191.326 289.415 204.261 296.96C217.196 304.505 232.286 308.278 247.377 308.278H293.726C304.505 308.278 313.667 317.44 313.667 328.219C313.667 338.998 305.044 348.16 293.726 348.16H225.28" fill="white"/>
<path d="M426.307 321.213C426.307 328.219 422.535 335.225 415.528 338.459L404.211 343.848C406.366 340.615 407.444 336.842 407.444 333.069C407.444 330.375 406.905 327.68 405.827 324.985C401.516 315.284 390.198 310.973 380.497 315.284L287.798 350.855C288.876 350.316 285.642 351.394 286.72 350.316C288.337 348.699 292.109 350.855 293.187 348.699C293.726 347.621 293.726 346.543 294.265 345.465L304.505 344.926L398.821 302.888C408.522 298.577 419.84 302.888 424.152 312.589C425.768 315.284 426.307 318.518 426.307 321.213Z" fill="#CFE096"/>
<path d="M305.044 344.926C301.811 347.082 298.038 348.699 293.726 348.699H291.032C291.571 347.621 292.109 346.543 292.109 345.465L305.044 344.926Z" fill="white"/>
<path d="M101.322 262.467H149.288C157.912 262.467 164.918 269.474 164.918 278.097V375.646C164.918 384.269 157.912 391.276 149.288 391.276H101.322C92.6989 391.276 85.6926 384.269 85.6926 375.646V278.097C85.6926 269.474 92.6989 262.467 101.322 262.467Z" fill="white"/>
<path d="M164.379 278.097V375.646C164.379 384.269 157.373 391.276 148.749 391.276H133.659C142.282 391.276 149.288 384.269 149.288 375.646V278.097C149.288 269.474 142.282 263.006 133.659 263.006H148.749C157.373 262.467 164.379 269.474 164.379 278.097Z" fill="#CFE096"/>
<path d="M21.5579 204.261L26.9474 202.644L28.5642 208.034C29.1031 210.189 31.2589 211.267 33.4147 210.728C35.5705 210.189 36.6484 208.034 36.1095 205.878L34.4926 200.488L39.8821 198.872C42.0379 198.333 43.1158 196.177 42.5768 194.021C42.0379 191.865 39.8821 190.787 37.7263 191.326L32.3368 192.943L30.72 187.554C30.181 185.398 28.0253 184.32 25.8695 184.859C23.7137 185.398 22.6358 187.554 23.1747 189.709L24.7916 195.099L19.4021 196.716C17.2463 197.255 16.1684 199.411 16.7074 201.566C17.2463 203.183 19.4021 204.8 21.5579 204.261Z" fill="#273A2C"/>
<path d="M421.457 125.575L426.846 126.114L426.307 131.503C426.307 133.659 427.924 135.815 430.08 135.815C432.236 135.815 434.392 134.198 434.392 132.042L434.931 126.653L440.32 127.192C442.476 127.192 444.632 125.575 444.632 123.419C444.632 121.263 443.015 119.107 440.859 119.107L435.469 118.568L436.008 113.179C436.008 111.023 434.392 108.867 432.236 108.867C430.08 108.867 427.924 110.484 427.924 112.64L427.385 118.029L421.996 117.491C419.84 117.491 417.684 119.107 417.684 121.263C417.684 123.419 419.301 125.575 421.457 125.575Z" fill="#273A2C"/>
<path d="M110.484 398.282H13.4737C10.24 398.282 8.0842 400.438 8.0842 403.672C8.0842 406.905 10.24 409.061 13.4737 409.061H110.484C113.718 409.061 115.874 406.905 115.874 403.672C115.874 400.438 113.179 398.282 110.484 398.282Z" fill="#273A2C"/>
<path d="M460.8 398.282H306.661C310.973 396.665 315.284 394.509 319.596 392.893L417.684 343.309C429.541 337.381 434.392 322.829 429.002 310.973C423.613 298.577 408.522 292.648 396.126 298.577L395.587 299.116C393.971 295.343 392.354 292.109 389.12 288.876C383.192 282.408 374.568 278.636 365.945 279.175C361.634 268.396 350.316 260.851 338.459 260.851C335.764 260.851 332.531 261.389 329.836 261.928C326.063 247.916 313.667 237.676 299.116 236.059C301.272 223.663 307.739 208.034 317.44 194.56L326.063 195.099C328.219 195.099 330.375 195.638 332.531 195.638C370.796 195.638 403.672 165.996 406.905 127.192L407.444 121.802C407.983 118.568 406.905 115.874 404.749 113.179C402.594 111.023 399.899 109.406 396.665 108.867L390.198 108.328C370.796 106.712 351.933 112.64 336.842 125.575C321.752 137.971 312.589 155.756 310.973 175.697L309.895 187.015C298.577 202.644 291.032 220.429 288.337 234.981C282.947 222.046 273.785 205.878 260.851 192.404L259.234 185.398C255.461 170.307 245.76 157.373 232.286 149.288C218.813 141.204 203.183 139.048 187.554 142.821L185.937 143.36C182.703 144.438 180.008 146.055 177.853 149.288C176.236 151.983 175.697 155.756 176.236 158.989L176.775 161.145C183.242 187.015 206.956 204.261 232.825 204.261C237.676 204.261 242.526 203.722 247.377 202.644L253.844 201.027C265.701 213.423 273.785 227.975 278.636 239.832C270.013 244.682 264.084 252.766 261.389 262.467C257.617 260.851 253.844 260.312 250.072 260.312C237.676 260.312 226.897 267.857 222.585 278.636H222.046C213.962 277.019 203.722 280.253 196.177 287.259C187.554 284.025 178.931 281.331 169.768 280.792V278.097C169.768 266.779 160.606 257.078 148.749 257.078H100.783C89.4653 257.078 79.7642 266.24 79.7642 278.097V375.646C79.7642 386.964 88.9263 396.665 100.783 396.665H148.749C158.451 396.665 166.535 390.198 168.691 381.036C178.392 384.808 211.806 397.204 215.579 398.821H149.288C146.055 398.821 143.899 400.977 143.899 404.211C143.899 407.444 146.055 409.6 149.288 409.6H460.8C464.034 409.6 466.189 407.444 466.189 404.211C466.189 400.977 463.495 398.282 460.8 398.282ZM343.848 133.659C356.783 122.88 372.952 117.491 389.659 119.107L396.126 119.646C396.665 119.646 396.665 119.646 396.665 120.185V120.724L396.126 126.114C392.893 161.145 362.173 187.015 327.141 184.32H326.063C336.303 173.002 348.699 164.379 362.712 160.067C365.406 159.528 367.023 156.295 366.484 153.6C365.945 150.905 362.712 149.288 360.017 149.827C345.465 153.6 333.069 162.223 322.291 173.002C324.446 157.373 331.992 143.36 343.848 133.659ZM209.112 178.392C223.124 179.469 234.981 184.859 245.221 192.404C220.429 198.333 195.099 183.242 188.632 158.451L187.554 156.295C187.554 155.756 187.554 155.217 187.554 154.678C187.554 154.139 188.093 154.139 188.632 153.6L190.248 153.061C194.021 151.983 198.333 151.444 202.105 151.444C210.728 151.444 218.813 153.6 226.358 157.912C234.981 162.762 241.448 170.307 245.76 179.469C235.52 172.463 223.124 168.152 209.651 167.074C206.956 167.074 204.261 169.229 203.722 171.924C203.183 174.619 205.878 177.853 209.112 178.392ZM158.989 375.646C158.989 381.036 154.678 385.886 148.749 385.886H100.783C95.3937 385.886 90.5431 381.575 90.5431 375.646V278.097C90.5431 272.707 94.8547 267.857 100.783 267.857H148.749C154.139 267.857 158.989 272.168 158.989 278.097V375.646ZM220.429 288.876C221.507 288.876 222.585 289.415 223.663 289.415H225.28C227.975 289.954 231.208 288.337 231.747 285.642C233.903 277.019 241.448 271.091 250.611 271.091C254.922 271.091 259.773 272.707 263.006 275.402C264.623 276.48 266.779 277.019 268.935 275.941C271.091 274.863 272.168 273.246 272.168 271.091V270.552C272.168 257.078 282.947 246.299 296.421 246.299C309.356 246.299 320.135 256.539 320.674 269.474C320.674 271.629 321.752 273.246 323.368 273.785C324.985 274.863 327.141 274.863 328.758 273.785C331.992 272.168 335.225 271.091 338.459 271.091C347.621 271.091 355.166 277.019 357.322 285.642C357.861 288.337 361.095 290.493 363.789 289.954C370.257 288.337 376.724 290.493 381.575 295.882C383.731 298.038 384.808 300.733 385.886 302.888L317.979 333.069C320.674 317.44 308.817 303.427 293.187 303.427H246.838C232.825 303.427 218.813 299.655 206.417 292.648C211.806 289.954 216.657 288.337 220.429 288.876ZM169.768 369.718V291.571C181.086 292.648 191.865 295.882 201.566 301.811C215.579 309.895 231.208 314.206 247.377 314.206H293.726C301.811 314.206 308.278 320.674 308.278 328.758C308.278 333.608 306.122 337.92 302.349 340.615C302.349 340.615 302.349 340.615 301.811 341.154C299.655 342.771 296.96 343.848 293.726 343.848H225.28C222.046 343.848 219.891 346.004 219.891 349.238C219.891 352.472 222.046 354.627 225.28 354.627H293.726C299.116 354.627 303.427 353.011 307.739 350.316L401.516 308.817C408.522 305.583 416.606 308.817 419.84 315.823C423.074 322.829 420.379 330.914 413.373 334.147L315.284 383.731C285.642 398.821 250.611 400.438 219.352 388.581L169.768 369.718Z" fill="#273A2C"/>
<path d="M498.526 398.282H486.131C482.897 398.282 480.741 400.438 480.741 403.672C480.741 406.905 482.897 409.061 486.131 409.061H498.526C501.76 409.061 503.916 406.905 503.916 403.672C503.916 400.438 501.76 398.282 498.526 398.282Z" fill="#273A2C"/>
<path d="M136.893 293.726C136.893 300.194 131.503 305.044 125.575 305.044C119.107 305.044 113.718 299.655 113.718 293.726C113.718 287.259 119.107 282.408 125.575 282.408C131.503 281.869 136.893 287.259 136.893 293.726Z" fill="#CFE096"/>
</svg>
