<svg width="512" height="512" viewBox="0 0 512 512" fill="none" xmlns="http://www.w3.org/2000/svg">
<path d="M478.585 273.246C478.585 299.655 455.411 321.213 430.08 329.836C404.75 338.459 377.263 337.92 350.855 340.615C324.446 342.771 295.882 349.238 277.558 368.64C265.701 381.036 259.234 397.743 250.611 413.373C241.987 428.463 229.592 443.554 212.345 446.787C193.482 450.56 174.08 438.703 162.762 423.074C151.444 407.444 146.594 388.581 141.204 370.257C135.815 351.933 129.347 333.069 116.413 319.057C105.095 307.2 95.3937 301.272 80.8421 292.109C65.7516 282.408 57.1284 276.48 47.4274 263.006C37.7263 249.533 34.4926 229.592 45.2716 217.196C58.2063 201.027 76.5305 203.183 97.0105 201.566C136.354 198.333 166.535 175.158 185.937 141.743C193.482 129.347 198.333 100.783 206.417 88.9263C214.501 77.0695 226.358 66.2905 240.909 64.6737C261.389 62.5179 278.636 78.6863 292.648 93.2379C320.135 121.263 346.004 171.385 381.575 190.248C417.684 208.573 478.585 224.202 478.585 273.246Z" fill="#CFE096"/>
<path d="M52.8169 102.939C52.8169 105.095 50.6611 106.712 48.5053 106.712L43.1158 106.173L42.5769 111.562C42.5769 113.718 40.4211 115.335 38.2653 115.335C36.1095 115.335 34.4927 113.179 34.4927 111.023L35.0316 105.634L29.6421 105.095C27.4863 105.095 25.8695 102.939 25.8695 100.783C25.8695 98.6274 28.0253 97.0105 30.1811 97.0105L35.5706 97.5495L36.1095 92.16C36.1095 90.0042 38.2653 88.3874 40.4211 88.3874C42.5769 88.3874 44.1937 90.5432 44.1937 92.6989L43.6548 98.0884L49.0442 98.6274C51.2 99.1663 52.8169 100.783 52.8169 102.939Z" fill="#CFE096"/>
<path d="M32.8758 302.888C32.8758 305.044 30.72 306.661 28.5643 306.661L23.1748 306.122L22.6358 311.512C22.6358 313.667 20.48 315.284 18.3243 315.284C16.1685 315.284 14.5516 313.128 14.5516 310.973L15.0906 305.583L9.7011 305.044C7.54531 305.044 5.92847 302.888 5.92847 300.733C5.92847 298.577 8.08426 296.96 10.24 296.96L15.6295 297.499L16.1685 292.109C16.1685 289.954 18.3243 288.337 20.48 288.337C22.6358 288.337 24.2527 290.493 24.2527 292.648L23.7137 298.038L29.1032 298.577C31.259 299.116 32.8758 300.733 32.8758 302.888Z" fill="#CFE096"/>
<path d="M364.867 157.373V404.211H126.114V117.491C126.114 108.328 133.12 101.322 142.282 101.322H308.817V146.594C308.817 152.522 313.667 157.373 319.596 157.373H364.867Z" fill="white"/>
<path d="M344.387 157.373H364.867V404.211H344.387V157.373Z" fill="#CFE096"/>
<g opacity="0.3">
<path d="M364.867 219.891V330.375L350.316 344.926C349.238 346.004 347.621 347.082 346.004 348.16L345.465 348.699L343.309 349.238L296.421 363.789C294.804 364.328 293.187 364.328 291.57 364.328C287.259 364.328 282.947 362.712 280.253 359.478C275.941 355.166 274.324 348.699 276.48 343.309L292.109 294.265L292.648 293.726C293.187 292.109 294.265 290.493 295.882 289.415L364.867 219.891Z" fill="#CFE096"/>
</g>
<path d="M202.105 141.743V172.463C202.105 175.697 199.949 177.853 196.716 177.853H166.535C163.301 177.853 161.145 175.697 161.145 172.463V142.282C161.145 139.048 163.301 136.893 166.535 136.893H196.716C199.949 136.354 202.105 139.048 202.105 141.743Z" fill="white"/>
<path d="M202.105 141.743V172.463C202.105 175.697 199.949 177.853 196.716 177.853H183.242C186.476 177.853 188.632 175.158 188.632 172.463V142.282C188.632 139.048 186.476 136.893 183.242 136.893H196.716C199.949 136.354 202.105 139.048 202.105 141.743Z" fill="#CFE096"/>
<path d="M202.105 205.878V236.059C202.105 239.293 199.949 241.448 196.716 241.448H166.535C163.301 241.448 161.145 239.293 161.145 236.059V205.878C161.145 202.644 163.301 200.488 166.535 200.488H196.716C199.949 200.488 202.105 202.644 202.105 205.878Z" fill="white"/>
<path d="M202.105 205.878V236.059C202.105 239.293 199.949 241.448 196.716 241.448H183.242C186.476 241.448 188.632 238.754 188.632 236.059V205.878C188.632 202.644 186.476 200.488 183.242 200.488H196.716C199.949 200.488 202.105 202.644 202.105 205.878Z" fill="#CFE096"/>
<path d="M202.105 269.474V299.655C202.105 302.888 199.949 305.044 196.716 305.044H166.535C163.301 305.044 161.145 302.888 161.145 299.655V269.474C161.145 266.24 163.301 264.084 166.535 264.084H196.716C199.949 264.084 202.105 266.779 202.105 269.474Z" fill="white"/>
<path d="M202.105 269.474V299.655C202.105 302.888 199.949 305.044 196.716 305.044H183.242C186.476 305.044 188.632 302.349 188.632 299.655V269.474C188.632 266.24 186.476 264.084 183.242 264.084H196.716C199.949 264.084 202.105 266.779 202.105 269.474Z" fill="#CFE096"/>
<path d="M202.105 333.608V363.789C202.105 367.023 199.949 369.179 196.716 369.179H166.535C163.301 369.179 161.145 367.023 161.145 363.789V333.608C161.145 330.375 163.301 328.219 166.535 328.219H196.716C199.949 328.219 202.105 330.375 202.105 333.608Z" fill="white"/>
<path d="M202.105 333.608V363.789C202.105 367.023 199.949 369.179 196.716 369.179H183.242C186.476 369.179 188.632 366.484 188.632 363.789V333.608C188.632 330.375 186.476 328.219 183.242 328.219H196.716C199.949 328.219 202.105 330.375 202.105 333.608Z" fill="#CFE096"/>
<path d="M364.867 157.373H319.596C313.667 157.373 308.817 152.522 308.817 146.594V101.322L364.867 157.373Z" fill="white"/>
<path d="M421.457 186.476L306.122 301.272L291.57 348.699L338.459 333.608L453.255 218.813" fill="white"/>
<path d="M431.158 196.177L315.823 310.973L305.583 344.387L291.57 348.699L306.122 301.272L421.457 186.476" fill="#CFE096"/>
<path d="M338.459 333.608L306.122 301.272Z" fill="#CFE096"/>
<path d="M316.362 310.973L306.661 301.272Z" fill="white"/>
<path d="M462.417 132.581C462.417 134.737 464.034 136.893 466.19 136.893C468.345 136.893 470.501 135.276 470.501 133.12L471.04 127.731L476.43 128.269C478.585 128.269 480.741 126.653 480.741 124.497C480.741 122.341 479.124 120.185 476.968 120.185L471.579 119.646L472.118 114.257C472.118 112.101 470.501 109.945 468.345 109.945C466.19 109.945 464.034 111.562 464.034 113.718L463.495 119.107L458.105 118.568C455.95 118.568 453.794 120.185 453.794 122.341C453.794 124.497 455.411 126.653 457.566 126.653L462.956 127.192L462.417 132.581Z" fill="#273A2C"/>
<path d="M371.335 426.846L365.945 426.307L366.484 420.918C366.484 418.762 364.867 416.606 362.712 416.606C360.556 416.606 358.4 418.223 358.4 420.379L357.861 425.768L352.472 425.229C350.316 425.229 348.16 426.846 348.16 429.002C348.16 431.158 349.777 433.314 351.933 433.314L357.322 433.853L356.783 439.242C356.783 441.398 358.4 443.554 360.556 443.554C362.712 443.554 364.867 441.937 364.867 439.781L365.406 434.392L370.796 434.931C372.952 434.931 375.107 433.314 375.107 431.158C375.107 429.002 373.491 427.385 371.335 426.846Z" fill="#273A2C"/>
<path d="M25.3305 398.821H15.6295C12.3958 398.821 10.24 400.977 10.24 404.211C10.24 407.444 12.3958 409.6 15.6295 409.6H25.3305C28.5642 409.6 30.72 407.444 30.72 404.211C30.72 400.977 28.5642 398.821 25.3305 398.821Z" fill="#273A2C"/>
<path d="M500.682 398.821H465.112C461.878 398.821 459.722 400.977 459.722 404.211C459.722 407.444 461.878 409.6 465.112 409.6H500.682C503.916 409.6 506.072 407.444 506.072 404.211C506.072 400.977 503.916 398.821 500.682 398.821Z" fill="#273A2C"/>
<path d="M196.716 130.964H166.535C160.606 130.964 155.756 135.815 155.756 141.743V172.463C155.756 178.392 160.606 183.242 166.535 183.242H196.716C202.644 183.242 207.495 178.392 207.495 172.463V142.282C207.495 135.815 202.644 130.964 196.716 130.964ZM196.716 172.463H166.535V142.282H196.716V172.463Z" fill="#273A2C"/>
<path d="M196.716 195.099H166.535C160.606 195.099 155.756 199.949 155.756 205.878V236.059C155.756 241.987 160.606 246.838 166.535 246.838H196.716C202.644 246.838 207.495 241.987 207.495 236.059V205.878C207.495 199.949 202.644 195.099 196.716 195.099ZM196.716 236.059H166.535V205.878H196.716V236.059Z" fill="#273A2C"/>
<path d="M196.716 258.695H166.535C160.606 258.695 155.756 263.545 155.756 269.474V299.655C155.756 305.583 160.606 310.434 166.535 310.434H196.716C202.644 310.434 207.495 305.583 207.495 299.655V269.474C207.495 263.545 202.644 258.695 196.716 258.695ZM196.716 300.194H166.535V269.474H196.716V300.194Z" fill="#273A2C"/>
<path d="M196.716 322.829H166.535C160.606 322.829 155.756 327.68 155.756 333.608V363.789C155.756 369.718 160.606 374.568 166.535 374.568H196.716C202.644 374.568 207.495 369.718 207.495 363.789V333.608C207.495 327.68 202.644 322.829 196.716 322.829ZM196.716 363.789H166.535V333.608H196.716V363.789Z" fill="#273A2C"/>
<path d="M225.28 226.358H330.375C333.608 226.358 335.764 224.202 335.764 220.968C335.764 217.735 333.608 215.579 330.375 215.579H225.28C222.046 215.579 219.891 217.735 219.891 220.968C219.891 224.202 222.046 226.358 225.28 226.358Z" fill="#273A2C"/>
<path d="M225.28 162.223H287.259C290.493 162.223 292.648 160.067 292.648 156.834C292.648 153.6 290.493 151.444 287.259 151.444H225.28C222.046 151.444 219.891 153.6 219.891 156.834C219.891 160.067 222.046 162.223 225.28 162.223Z" fill="#273A2C"/>
<path d="M432.775 190.248C426.307 183.781 416.067 184.32 409.6 190.248C406.366 193.482 372.413 227.436 370.257 229.592V157.373C370.257 156.834 370.257 155.756 369.718 155.217C369.718 154.678 369.179 154.678 369.179 154.139C369.179 153.6 368.64 153.6 368.64 153.061L313.128 98.0884L312.59 97.5495C312.051 97.5495 312.051 97.0105 311.512 97.0105C310.973 96.4716 310.434 96.4716 309.356 96.4716H142.282C130.425 96.4716 120.724 106.173 120.724 118.029V398.821H60.9011C57.6674 398.821 55.5116 400.977 55.5116 404.211C55.5116 407.444 57.6674 409.6 60.9011 409.6H411.217C414.451 409.6 416.606 407.444 416.606 404.211C416.606 400.977 414.451 398.821 411.217 398.821H370.257V309.356C384.269 295.343 410.139 269.474 449.482 230.131C450.021 229.592 451.099 228.514 451.638 227.975C455.95 221.507 455.411 212.884 449.482 207.495L432.775 190.248ZM351.933 151.983H319.596C316.901 151.983 314.206 149.827 314.206 146.594V114.796L351.933 151.983ZM359.478 398.821H131.503V117.491C131.503 111.562 136.354 106.712 142.282 106.712H303.427V146.594C303.427 155.756 310.973 162.762 319.596 162.762H359.478V240.371L320.135 279.714H225.28C222.046 279.714 219.891 281.869 219.891 285.103C219.891 287.798 222.046 290.493 225.28 290.493H309.895L302.349 298.038C301.811 298.577 301.272 299.116 301.272 300.194L287.798 343.848H225.28C222.046 343.848 219.891 346.004 219.891 349.238C219.891 352.472 222.046 354.627 225.28 354.627H291.571H292.11H292.648C305.583 350.316 341.693 338.998 339.537 339.537H340.076C341.154 338.998 341.693 338.998 342.232 338.459L359.478 321.213V398.821ZM308.817 311.512L328.758 330.914L299.655 340.076L308.817 311.512ZM370.257 294.265L359.478 305.044L338.459 326.063L313.667 301.272L324.985 289.954L334.147 280.792L400.438 214.501L425.229 239.293L370.257 294.265ZM441.937 222.585L432.775 231.747L407.983 206.956L417.684 197.255L418.223 196.716C420.379 195.099 423.074 195.638 425.229 197.255L442.476 214.501C444.093 217.196 444.093 220.429 441.937 222.585Z" fill="#273A2C"/>
<path d="M176.236 227.436C176.775 227.975 177.853 228.514 178.392 228.514C178.931 228.514 180.008 227.975 180.547 227.436L192.404 216.118C193.482 215.04 193.482 212.884 192.404 211.806C191.326 210.728 189.171 210.728 188.093 211.806L178.392 220.968L175.697 218.274C174.619 217.196 172.463 217.196 171.385 218.274C170.307 219.352 170.307 221.507 171.385 222.585L176.236 227.436Z" fill="#273A2C"/>
<path d="M176.236 164.379C176.775 164.918 177.853 165.457 178.392 165.457C178.931 165.457 180.008 164.918 180.547 164.379L192.404 153.061C193.482 151.983 193.482 149.827 192.404 148.749C191.326 147.672 189.171 147.672 188.093 148.749L178.392 157.912L175.697 155.217C174.619 154.139 172.463 154.139 171.385 155.217C170.307 156.295 170.307 158.451 171.385 159.528L176.236 164.379Z" fill="#273A2C"/>
</svg>
