<svg width="667" height="667" viewBox="0 0 667 667" fill="none" xmlns="http://www.w3.org/2000/svg">
<mask id="mask0_100_1077" style="mask-type:luminance" maskUnits="userSpaceOnUse" x="0" y="0" width="667" height="667">
<path d="M0 0.000121117H666.667V666.667H0V0.000121117Z" fill="white"/>
</mask>
<g mask="url(#mask0_100_1077)">
<path d="M517.686 95.3622C517.686 95.3622 430.852 22.7715 321.084 48.7102C211.316 74.6488 133.464 176.753 68.3475 257.547C3.23016 338.342 2.27817 444.117 63.2968 514.557C124.316 584.995 189.914 537.373 292.017 570.798C394.12 604.223 417.334 630.031 517.311 597.339C617.286 564.65 670.072 421.193 631.578 287.021C593.085 152.846 517.686 95.3622 517.686 95.3622Z" fill="#CFE096"/>
<mask id="mask1_100_1077" style="mask-type:luminance" maskUnits="userSpaceOnUse" x="18" y="43" width="627" height="570">
<path d="M18.4945 43.1108H644.201V612.424H18.4945V43.1108Z" fill="white"/>
</mask>
<g mask="url(#mask1_100_1077)">
<g opacity="0.699997">
<path d="M517.686 95.3622C517.686 95.3622 430.852 22.7715 321.084 48.7102C211.316 74.6488 133.464 176.753 68.3475 257.547C3.23016 338.342 2.27817 444.117 63.2968 514.557C124.316 584.995 189.914 537.373 292.017 570.798C394.12 604.223 417.334 630.031 517.311 597.339C617.286 564.65 670.072 421.193 631.578 287.021C593.085 152.846 517.686 95.3622 517.686 95.3622Z" fill="white"/>
</g>
</g>
</g>
<mask id="mask2_100_1077" style="mask-type:luminance" maskUnits="userSpaceOnUse" x="0" y="0" width="667" height="667">
<path d="M0 0.000121117H666.667V666.667H0V0.000121117Z" fill="white"/>
</mask>
<g mask="url(#mask2_100_1077)">
<path d="M607.264 279.038C604.722 277.651 603.567 278.807 602.642 277.651C601.718 276.495 605.183 273.49 598.25 270.485C598.25 270.485 597.788 264.014 588.311 263.782C578.834 263.551 581.376 270.255 578.834 271.873C576.292 273.49 575.598 270.949 573.055 272.566C570.512 274.183 571.668 277.421 569.587 277.882C567.508 278.345 564.734 275.802 562.191 277.421C559.648 279.038 559.648 280.425 558.492 280.425C557.338 280.425 555.026 279.501 553.638 280.425C552.251 281.35 550.634 282.506 550.634 282.506H609.114C609.114 282.506 609.807 280.425 607.264 279.038Z" stroke="#92999E" stroke-width="1.312" stroke-miterlimit="10" stroke-linecap="round" stroke-linejoin="round"/>
<path d="M572.67 278.089C572.396 278.247 572.057 278.409 571.638 278.577" stroke="#92999E" stroke-width="1.312" stroke-miterlimit="10" stroke-linecap="round" stroke-linejoin="round"/>
<path d="M585.181 267.291C585.181 267.291 583.346 267.996 582.924 270.112C582.5 272.228 581.513 273.639 580.384 273.779C579.257 273.92 575.024 273.498 574.32 275.05C574.07 275.595 574.014 276.052 573.924 276.466" stroke="#92999E" stroke-width="1.312" stroke-miterlimit="10" stroke-linecap="round" stroke-linejoin="round"/>
<path d="M566.812 277.58H570.872" stroke="#92999E" stroke-width="1.312" stroke-miterlimit="10" stroke-linecap="round" stroke-linejoin="round"/>
<path d="M602.642 277.58H629.974C629.974 277.58 632.17 270.989 624.115 266.594C616.059 262.201 612.398 265.862 609.469 262.201C606.539 258.538 617.524 249.018 595.555 239.497C595.555 239.497 594.09 218.993 564.063 218.26C534.038 217.528 542.094 238.766 534.038 243.892C525.982 249.018 523.784 240.962 515.727 246.089C507.671 251.216 511.335 261.469 504.743 262.933C498.152 264.397 489.364 256.342 481.308 261.469C473.252 266.594 473.252 270.989 469.591 270.989C465.93 270.989 458.606 268.06 454.211 270.989C449.818 273.918 444.691 277.58 444.691 277.58H562.191" stroke="#92999E" stroke-width="1.312" stroke-miterlimit="10" stroke-linecap="round" stroke-linejoin="round"/>
<path d="M514.509 263.586C513.641 264.087 512.569 264.599 511.241 265.131" stroke="#92999E" stroke-width="1.312" stroke-miterlimit="10" stroke-linecap="round" stroke-linejoin="round"/>
<path d="M518.48 258.446C518.77 257.136 518.948 255.684 519.731 253.957C521.967 249.041 535.375 250.382 538.951 249.936C542.526 249.488 545.655 245.018 546.996 238.314C548.336 231.61 554.147 229.376 554.147 229.376" stroke="#92999E" stroke-width="1.312" stroke-miterlimit="10" stroke-linecap="round" stroke-linejoin="round"/>
<path d="M190.987 139.717C189.08 138.677 188.212 139.544 187.519 138.677C186.826 137.809 189.427 135.556 184.226 133.301C184.226 133.301 183.878 128.446 176.77 128.273C169.66 128.1 171.568 133.129 169.66 134.342C167.754 135.556 167.234 133.649 165.326 134.862C163.419 136.076 164.286 138.504 162.726 138.85C161.164 139.197 159.084 137.29 157.178 138.504C155.27 139.717 155.27 140.757 154.403 140.757C153.536 140.757 151.802 140.064 150.762 140.757C149.722 141.45 148.507 142.318 148.507 142.318H192.375C192.375 142.318 192.895 140.757 190.987 139.717Z" stroke="#92999E" stroke-width="1.312" stroke-miterlimit="10" stroke-linecap="round" stroke-linejoin="round"/>
<path d="M165.037 139.005C164.832 139.123 164.577 139.245 164.264 139.37" stroke="#92999E" stroke-width="1.312" stroke-miterlimit="10" stroke-linecap="round" stroke-linejoin="round"/>
<path d="M174.422 130.905C174.422 130.905 173.046 131.434 172.728 133.021C172.411 134.609 171.671 135.666 170.823 135.772C169.978 135.878 166.803 135.561 166.274 136.725C166.088 137.133 166.046 137.477 165.978 137.788" stroke="#92999E" stroke-width="1.312" stroke-miterlimit="10" stroke-linecap="round" stroke-linejoin="round"/>
<path d="M160.644 138.623H163.689" stroke="#92999E" stroke-width="1.312" stroke-miterlimit="10" stroke-linecap="round" stroke-linejoin="round"/>
<path d="M187.519 138.623H208.022C208.022 138.623 209.67 133.679 203.627 130.382C197.585 127.087 194.838 129.834 192.641 127.087C190.443 124.341 198.683 117.199 182.203 110.057C182.203 110.057 181.105 94.6765 158.581 94.1258C136.058 93.5765 142.101 109.509 136.058 113.353C130.015 117.199 128.367 111.155 122.325 115.001C116.281 118.846 119.029 126.538 114.085 127.637C109.141 128.734 102.547 122.693 96.5047 126.538C90.4634 130.382 90.4634 133.679 87.7154 133.679C84.9688 133.679 79.4754 131.482 76.1794 133.679C72.8834 135.877 69.0381 138.623 69.0381 138.623H157.177" stroke="#92999E" stroke-width="1.312" stroke-miterlimit="10" stroke-linecap="round" stroke-linejoin="round"/>
<path d="M121.41 128.126C120.758 128.503 119.954 128.886 118.958 129.284" stroke="#92999E" stroke-width="1.312" stroke-miterlimit="10" stroke-linecap="round" stroke-linejoin="round"/>
<path d="M124.389 124.271C124.605 123.287 124.739 122.199 125.328 120.903C127.004 117.215 137.061 118.222 139.744 117.886C142.425 117.551 144.773 114.198 145.779 109.17C146.784 104.14 151.143 102.464 151.143 102.464" stroke="#92999E" stroke-width="1.312" stroke-miterlimit="10" stroke-linecap="round" stroke-linejoin="round"/>
</g>
<mask id="mask3_100_1077" style="mask-type:luminance" maskUnits="userSpaceOnUse" x="0" y="0" width="667" height="667">
<path d="M0 0.000121117H666.667V666.667H0V0.000121117Z" fill="white"/>
</mask>
<g mask="url(#mask3_100_1077)">
<path d="M120.653 364.162C120.653 364.162 139.364 366.014 148.848 377.612C148.848 377.612 158.868 364.175 176.864 364.451C182.086 358.156 185.228 350.074 185.23 341.255C185.237 321.168 168.96 304.88 148.873 304.874C128.786 304.866 112.497 321.144 112.49 341.231C112.488 349.938 115.546 357.93 120.648 364.192L120.653 364.162Z" fill="#CFE096"/>
<mask id="mask4_100_1077" style="mask-type:luminance" maskUnits="userSpaceOnUse" x="112" y="304" width="74" height="74">
<path d="M112.491 304.873H185.231V377.612H112.491V304.873Z" fill="white"/>
</mask>
<g mask="url(#mask4_100_1077)">
<g opacity="0.199997">
<path d="M120.653 364.162C120.653 364.162 139.364 366.014 148.848 377.612C148.848 377.612 158.868 364.175 176.864 364.451C182.086 358.156 185.228 350.074 185.23 341.255C185.237 321.168 168.96 304.88 148.873 304.874C128.786 304.866 112.497 321.144 112.49 341.231C112.488 349.938 115.546 357.93 120.648 364.192L120.653 364.162Z" fill="white"/>
</g>
</g>
<path d="M150.077 414.771L148.229 321.196L147.769 415.734L150.077 414.771Z" fill="#838383"/>
<path d="M149.176 374.077C149.176 374.077 155.492 362.708 166.863 359.233C166.863 359.233 154.862 362.076 148.86 371.866L149.176 374.077Z" fill="#838383"/>
<path d="M148.702 342.494C148.702 342.494 155.492 330.494 166.863 327.019C166.863 327.019 154.75 330.315 148.748 340.106L148.702 342.494Z" fill="#838383"/>
<path d="M148.889 358.375C148.889 358.375 155.493 346.6 166.863 343.126C166.863 343.126 154.861 345.968 148.861 355.759L148.889 358.375Z" fill="#838383"/>
<path d="M148.24 350.074C148.24 350.074 142.145 338.705 131.174 335.23C131.174 335.23 142.754 338.073 148.545 347.864L148.24 350.074Z" fill="#838383"/>
<path d="M148.24 365.866C148.24 365.866 142.145 354.497 131.174 351.022C131.174 351.022 142.754 353.865 148.545 363.655L148.24 365.866Z" fill="#838383"/>
<path d="M578.358 406.568C578.358 406.568 597.069 408.42 606.553 420.018C606.553 420.018 616.573 406.581 634.569 406.857C639.79 400.562 642.933 392.48 642.935 383.661C642.942 363.574 626.665 347.285 606.578 347.278C586.493 347.272 570.203 363.549 570.195 383.637C570.193 392.344 573.251 400.336 578.353 406.598L578.358 406.568Z" fill="#CFE096"/>
<mask id="mask5_100_1077" style="mask-type:luminance" maskUnits="userSpaceOnUse" x="570" y="347" width="73" height="74">
<path d="M570.196 347.279H642.936V420.019H570.196V347.279Z" fill="white"/>
</mask>
<g mask="url(#mask5_100_1077)">
<g opacity="0.199997">
<path d="M578.358 406.568C578.358 406.568 597.069 408.42 606.553 420.019C606.553 420.019 616.573 406.581 634.569 406.857C639.79 400.563 642.933 392.48 642.935 383.661C642.942 363.575 626.665 347.285 606.578 347.279C586.493 347.272 570.203 363.549 570.195 383.637C570.193 392.344 573.251 400.336 578.353 406.599L578.358 406.568Z" fill="white"/>
</g>
</g>
<path d="M607.782 457.177L605.933 363.602L605.474 458.14L607.782 457.177Z" fill="#838383"/>
<path d="M606.881 416.483C606.881 416.483 613.197 405.114 624.568 401.639C624.568 401.639 612.567 404.482 606.565 414.272L606.881 416.483Z" fill="#838383"/>
<path d="M606.408 384.9C606.408 384.9 613.198 372.898 624.568 369.425C624.568 369.425 612.454 372.72 606.454 382.51L606.408 384.9Z" fill="#838383"/>
<path d="M606.595 400.781C606.595 400.781 613.198 389.007 624.567 385.531C624.567 385.531 612.567 388.375 606.566 398.165L606.595 400.781Z" fill="#838383"/>
<path d="M605.945 392.481C605.945 392.481 599.851 381.111 588.879 377.635C588.879 377.635 600.46 380.479 606.251 390.27L605.945 392.481Z" fill="#838383"/>
<path d="M605.945 408.271C605.945 408.271 599.851 396.902 588.879 393.427C588.879 393.427 600.46 396.27 606.251 406.062L605.945 408.271Z" fill="#838383"/>
<path d="M139.859 322.374C139.859 322.374 177.611 326.109 196.746 349.512C196.746 349.512 216.961 322.401 253.27 322.957C263.806 310.257 270.143 293.949 270.15 276.158C270.165 235.632 237.323 202.768 196.797 202.753C156.27 202.74 123.406 235.581 123.391 276.108C123.385 293.676 129.555 309.801 139.847 322.437L139.859 322.374Z" fill="#CFE096"/>
<mask id="mask6_100_1077" style="mask-type:luminance" maskUnits="userSpaceOnUse" x="123" y="202" width="148" height="148">
<path d="M123.392 202.753H270.151V349.512H123.392V202.753Z" fill="white"/>
</mask>
<g mask="url(#mask6_100_1077)">
<g opacity="0.399994">
<path d="M139.859 322.374C139.859 322.374 177.611 326.109 196.746 349.512C196.746 349.512 216.961 322.401 253.27 322.957C263.806 310.257 270.143 293.949 270.15 276.158C270.165 235.632 237.323 202.768 196.797 202.753C156.27 202.74 123.406 235.581 123.391 276.108C123.385 293.676 129.555 309.801 139.847 322.437L139.859 322.374Z" fill="white"/>
</g>
</g>
<path d="M199.226 424.483L195.496 235.688L194.568 426.424L199.226 424.483Z" fill="#838383"/>
<path d="M197.408 342.379C197.408 342.379 210.152 319.439 233.092 312.431C233.092 312.431 208.878 318.166 196.77 337.919L197.408 342.379Z" fill="#838383"/>
<path d="M196.45 278.658C196.45 278.658 210.152 254.444 233.092 247.435C233.092 247.435 208.652 254.083 196.545 273.838L196.45 278.658Z" fill="#838383"/>
<path d="M196.829 310.7C196.829 310.7 210.151 286.943 233.091 279.932C233.091 279.932 208.878 285.668 196.77 305.421L196.829 310.7Z" fill="#838383"/>
<path d="M195.519 293.951C195.519 293.951 183.222 271.011 161.087 264.002C161.087 264.002 184.451 269.738 196.134 289.491L195.519 293.951Z" fill="#838383"/>
<path d="M195.519 325.812C195.519 325.812 183.222 302.872 161.087 295.863C161.087 295.863 184.451 301.597 196.134 321.352L195.519 325.812Z" fill="#838383"/>
<path d="M235.869 395.417H232.911V324.399H235.869V395.417Z" fill="white" stroke="#273A2C" stroke-width="1.312" stroke-miterlimit="10"/>
<path d="M593.917 424.021H590.957V353.003H593.917V424.021Z" fill="white" stroke="#273A2C" stroke-width="1.312" stroke-miterlimit="10"/>
<path d="M359.164 449.665H587.999V356.948H359.164V449.665Z" fill="white" stroke="#273A2C" stroke-width="1.312" stroke-miterlimit="10"/>
<path d="M359.164 365.825H587.999V356.948H359.164V365.825Z" fill="#273A2C" stroke="#273A2C" stroke-width="1.312" stroke-miterlimit="10"/>
<path d="M597.863 349.057H360.15V290.863H561.367L597.863 349.057Z" fill="#273A2C"/>
<path d="M597.863 349.057H360.15V290.863H561.367L597.863 349.057Z" stroke="#273A2C" stroke-width="1.312" stroke-miterlimit="10"/>
<path d="M358.177 359.908H597.864V349.057H358.177V359.908Z" fill="white" stroke="#273A2C" stroke-width="1.312" stroke-miterlimit="10"/>
<path d="M399.793 326.413H239.42V403.989H399.793V326.413Z" fill="white" stroke="#273A2C" stroke-width="1.312" stroke-miterlimit="10"/>
<path d="M399.793 326.413H239.42V334.263H399.793V326.413Z" fill="#273A2C" stroke="#273A2C" stroke-width="1.312" stroke-miterlimit="10"/>
<path d="M317.742 247.345L230.468 312.986H405.015L317.742 247.345Z" fill="white"/>
<path d="M317.742 247.345L230.468 312.986H405.015L317.742 247.345Z" stroke="#273A2C" stroke-width="1.312" stroke-miterlimit="10"/>
<path d="M317.742 256.296L248.32 308.511H387.163L317.742 256.296Z" fill="#273A2C"/>
<path d="M317.742 256.296L248.32 308.511H387.163L317.742 256.296Z" stroke="#273A2C" stroke-width="1.312" stroke-miterlimit="10"/>
<path d="M122.309 556.613H111.865V435.317H122.309V556.613Z" fill="white" stroke="#273A2C" stroke-width="1.312" stroke-miterlimit="10"/>
<path d="M620.585 556.256H137.227V435.317H620.585V556.256Z" fill="white" stroke="#273A2C" stroke-width="1.312" stroke-miterlimit="10"/>
<path d="M620.585 448.68H137.227V435.319H620.585V448.68Z" fill="#273A2C" stroke="#273A2C" stroke-width="1.312" stroke-miterlimit="10"/>
<path d="M425.9 431.589H98.4397L126.038 395.783H425.9V431.589Z" fill="#273A2C"/>
<path d="M425.9 431.589H98.4397L126.038 395.783H425.9V431.589Z" stroke="#273A2C" stroke-width="1.312" stroke-miterlimit="10"/>
<path d="M364.735 439.047H98.4399V431.588H364.735V439.047Z" fill="white" stroke="#273A2C" stroke-width="1.312" stroke-miterlimit="10"/>
<path d="M620.585 431.588H350.561V556.256H620.585V431.588Z" fill="white" stroke="#273A2C" stroke-width="1.312" stroke-miterlimit="10"/>
<path d="M613.644 438.816H357.504V556.256H613.644V438.816Z" fill="#273A2C" stroke="#273A2C" stroke-width="1.312" stroke-miterlimit="10"/>
<path d="M592.241 455.457H378.908V556.257H592.241V455.457Z" fill="white" stroke="#273A2C" stroke-width="1.312" stroke-miterlimit="10"/>
<path d="M432.647 506.072H384.468V487.077H432.647V506.072Z" stroke="#A8A8A8" stroke-width="1.312" stroke-miterlimit="10" stroke-linecap="round" stroke-linejoin="round"/>
<path d="M484.075 506.072H435.896V487.077H484.075V506.072Z" stroke="#A8A8A8" stroke-width="1.312" stroke-miterlimit="10" stroke-linecap="round" stroke-linejoin="round"/>
<path d="M432.647 528.773H384.468V509.779H432.647V528.773Z" stroke="#A8A8A8" stroke-width="1.312" stroke-miterlimit="10" stroke-linecap="round" stroke-linejoin="round"/>
<path d="M484.075 528.773H435.896V509.779H484.075V528.773Z" stroke="#A8A8A8" stroke-width="1.312" stroke-miterlimit="10" stroke-linecap="round" stroke-linejoin="round"/>
<path d="M432.647 551.475H384.468V532.479H432.647V551.475Z" stroke="#A8A8A8" stroke-width="1.312" stroke-miterlimit="10" stroke-linecap="round" stroke-linejoin="round"/>
<path d="M484.075 551.475H435.896V532.479H484.075V551.475Z" stroke="#A8A8A8" stroke-width="1.312" stroke-miterlimit="10" stroke-linecap="round" stroke-linejoin="round"/>
<path d="M535.501 506.072H487.321V487.077H535.501V506.072Z" stroke="#A8A8A8" stroke-width="1.312" stroke-miterlimit="10" stroke-linecap="round" stroke-linejoin="round"/>
<path d="M586.928 506.072H538.748V487.077H586.928V506.072Z" stroke="#A8A8A8" stroke-width="1.312" stroke-miterlimit="10" stroke-linecap="round" stroke-linejoin="round"/>
<path d="M535.501 528.773H487.321V509.779H535.501V528.773Z" stroke="#A8A8A8" stroke-width="1.312" stroke-miterlimit="10" stroke-linecap="round" stroke-linejoin="round"/>
<path d="M586.928 528.773H538.748V509.779H586.928V528.773Z" stroke="#A8A8A8" stroke-width="1.312" stroke-miterlimit="10" stroke-linecap="round" stroke-linejoin="round"/>
<path d="M535.501 551.475H487.321V532.479H535.501V551.475Z" stroke="#A8A8A8" stroke-width="1.312" stroke-miterlimit="10" stroke-linecap="round" stroke-linejoin="round"/>
<path d="M586.928 551.475H538.748V532.479H586.928V551.475Z" stroke="#A8A8A8" stroke-width="1.312" stroke-miterlimit="10" stroke-linecap="round" stroke-linejoin="round"/>
<path d="M482.59 311.437L340.118 433.08H625.062L482.59 311.437Z" fill="white"/>
<path d="M482.59 311.437L340.118 433.08H625.062L482.59 311.437Z" stroke="#273A2C" stroke-width="1.312" stroke-miterlimit="10"/>
<path d="M482.59 328.025L369.26 424.786H595.919L482.59 328.025Z" fill="#273A2C"/>
<path d="M482.59 328.025L369.26 424.786H595.919L482.59 328.025Z" stroke="#273A2C" stroke-width="1.312" stroke-miterlimit="10"/>
<path d="M407.252 327.159H230.468V312.987H407.252V327.159Z" fill="white" stroke="#273A2C" stroke-width="1.312" stroke-miterlimit="10"/>
<path d="M371.448 391.308H267.019V330.888H371.448V391.308Z" fill="#273A2C" stroke="#273A2C" stroke-width="1.312" stroke-miterlimit="10"/>
<path d="M356.529 391.308H281.937V330.888H356.529V391.308Z" fill="white" stroke="#273A2C" stroke-width="1.312" stroke-miterlimit="10"/>
<path d="M322.217 391.308H316.249V330.888H322.217V391.308Z" fill="#273A2C" stroke="#273A2C" stroke-width="1.312" stroke-miterlimit="10"/>
<path d="M282.309 358.487H356.148V363.708H282.309V358.487Z" fill="#273A2C" stroke="#273A2C" stroke-width="1.312" stroke-miterlimit="10"/>
<path d="M264.035 536.763H159.605V462.171H264.035V536.763Z" fill="#273A2C" stroke="#273A2C" stroke-width="1.312" stroke-miterlimit="10"/>
<path d="M249.116 536.763H174.524V462.171H249.116V536.763Z" fill="white" stroke="#273A2C" stroke-width="1.312" stroke-miterlimit="10"/>
<path d="M214.804 536.763H208.836V462.171H214.804V536.763Z" fill="#273A2C" stroke="#273A2C" stroke-width="1.312" stroke-miterlimit="10"/>
<path d="M174.897 496.244H248.983V502.691H174.897V496.244Z" fill="#273A2C" stroke="#273A2C" stroke-width="1.312" stroke-miterlimit="10"/>
<path d="M337.881 463.663H297.601V555.412H337.881V463.663Z" fill="#273A2C" stroke="#273A2C" stroke-width="1.312" stroke-miterlimit="10"/>
<path d="M331.168 469.393H304.315V540.492H331.168V469.393Z" fill="white"/>
<path d="M390.951 465.9H383.924V469.857H390.951V465.9Z" fill="#273A2C"/>
<path d="M394.053 469.857H401.081V465.9H394.053V469.857Z" fill="#273A2C"/>
<path d="M390.951 472.028H383.924V476.993H390.951V472.028Z" fill="#273A2C"/>
<path d="M394.053 476.993H401.081V472.028H394.053V476.993Z" fill="#273A2C"/>
<path d="M417.415 465.9H410.387V469.857H417.415V465.9Z" fill="#273A2C"/>
<path d="M420.517 469.857H427.544V465.9H420.517V469.857Z" fill="#273A2C"/>
<path d="M417.415 472.028H410.387V476.993H417.415V472.028Z" fill="#273A2C"/>
<path d="M420.517 476.993H427.544V472.028H420.517V476.993Z" fill="#273A2C"/>
<path d="M443.876 465.9H436.849V469.857H443.876V465.9Z" fill="#273A2C"/>
<path d="M446.979 469.857H454.007V465.9H446.979V469.857Z" fill="#273A2C"/>
<path d="M443.876 472.028H436.849V476.993H443.876V472.028Z" fill="#273A2C"/>
<path d="M446.979 476.993H454.007V472.028H446.979V476.993Z" fill="#273A2C"/>
<path d="M470.34 465.9H463.312V469.857H470.34V465.9Z" fill="#273A2C"/>
<path d="M473.443 469.857H480.469V465.9H473.443V469.857Z" fill="#273A2C"/>
<path d="M470.34 472.028H463.312V476.993H470.34V472.028Z" fill="#273A2C"/>
<path d="M473.443 476.993H480.469V472.028H473.443V476.993Z" fill="#273A2C"/>
<path d="M496.804 465.9H489.776V469.857H496.804V465.9Z" fill="#273A2C"/>
<path d="M499.907 469.857H506.933V465.9H499.907V469.857Z" fill="#273A2C"/>
<path d="M496.804 472.028H489.776V476.993H496.804V472.028Z" fill="#273A2C"/>
<path d="M499.907 476.993H506.933V472.028H499.907V476.993Z" fill="#273A2C"/>
<path d="M523.265 465.9H516.239V469.857H523.265V465.9Z" fill="#273A2C"/>
<path d="M526.368 469.857H533.396V465.9H526.368V469.857Z" fill="#273A2C"/>
<path d="M523.265 472.028H516.239V476.993H523.265V472.028Z" fill="#273A2C"/>
<path d="M526.368 476.993H533.396V472.028H526.368V476.993Z" fill="#273A2C"/>
<path d="M549.729 465.9H542.701V469.857H549.729V465.9Z" fill="#273A2C"/>
<path d="M552.832 469.857H559.859V465.9H552.832V469.857Z" fill="#273A2C"/>
<path d="M549.729 472.028H542.701V476.993H549.729V472.028Z" fill="#273A2C"/>
<path d="M552.832 476.993H559.859V472.028H552.832V476.993Z" fill="#273A2C"/>
<path d="M576.192 465.9H569.165V469.857H576.192V465.9Z" fill="#273A2C"/>
<path d="M579.295 469.857H586.323V465.9H579.295V469.857Z" fill="#273A2C"/>
<path d="M576.192 472.028H569.165V476.993H576.192V472.028Z" fill="#273A2C"/>
<path d="M579.295 476.993H586.323V472.028H579.295V476.993Z" fill="#273A2C"/>
</g>
<mask id="mask7_100_1077" style="mask-type:luminance" maskUnits="userSpaceOnUse" x="0" y="0" width="667" height="667">
<path d="M0 0.000121117H666.667V666.667H0V0.000121117Z" fill="white"/>
</mask>
<g mask="url(#mask7_100_1077)">
<path d="M510.342 229.262H199.272C188.042 229.262 178.938 220.16 178.938 208.93V54.1798C178.938 42.9505 188.042 33.8478 199.272 33.8478H510.342C521.572 33.8478 530.674 42.9505 530.674 54.1798V208.93C530.674 220.16 521.572 229.262 510.342 229.262Z" fill="white"/>
<path d="M510.342 229.262H199.272C188.042 229.262 178.938 220.16 178.938 208.93V54.1798C178.938 42.9505 188.042 33.8478 199.272 33.8478H510.342C521.572 33.8478 530.674 42.9505 530.674 54.1798V208.93C530.674 220.16 521.572 229.262 510.342 229.262Z" stroke="#273A2C" stroke-width="1.33333" stroke-miterlimit="10"/>
<path d="M200.21 122.654C200.21 122.654 212.834 123.904 219.232 131.729C219.232 131.729 225.992 122.664 238.134 122.849C241.658 118.602 243.776 113.149 243.779 107.2C243.784 93.6477 232.802 82.657 219.25 82.653C205.698 82.649 194.707 93.6303 194.703 107.182C194.7 113.057 196.764 118.45 200.206 122.676L200.21 122.654Z" fill="#CFE096"/>
<mask id="mask8_100_1077" style="mask-type:luminance" maskUnits="userSpaceOnUse" x="194" y="82" width="50" height="50">
<path d="M194.703 82.6534H243.779V131.729H194.703V82.6534Z" fill="white"/>
</mask>
<g mask="url(#mask8_100_1077)">
<g opacity="0.199997">
<path d="M200.21 122.654C200.21 122.654 212.834 123.904 219.232 131.729C219.232 131.729 225.992 122.664 238.134 122.849C241.658 118.602 243.776 113.149 243.779 107.2C243.784 93.6477 232.802 82.657 219.25 82.653C205.698 82.649 194.707 93.6303 194.703 107.182C194.7 113.057 196.764 118.45 200.206 122.676L200.21 122.654Z" fill="white"/>
</g>
</g>
<path d="M220.062 156.8L218.814 93.6662L218.505 157.449L220.062 156.8Z" fill="#838383"/>
<path d="M219.454 129.344C219.454 129.344 223.715 121.673 231.387 119.329C231.387 119.329 223.29 121.246 219.24 127.852L219.454 129.344Z" fill="#838383"/>
<path d="M219.134 108.035C219.134 108.035 223.716 99.9379 231.387 97.5939C231.387 97.5939 223.215 99.8179 219.166 106.423L219.134 108.035Z" fill="#838383"/>
<path d="M219.26 118.75C219.26 118.75 223.715 110.806 231.387 108.462C231.387 108.462 223.29 110.379 219.24 116.985L219.26 118.75Z" fill="#838383"/>
<path d="M218.822 113.15C218.822 113.15 214.71 105.479 207.308 103.135C207.308 103.135 215.121 105.052 219.028 111.658L218.822 113.15Z" fill="#838383"/>
<path d="M218.822 123.803C218.822 123.803 214.71 116.133 207.308 113.789C207.308 113.789 215.121 115.706 219.028 122.313L218.822 123.803Z" fill="#838383"/>
<path d="M475.626 97.7358C475.626 97.7358 488.252 98.9851 494.65 106.81C494.65 106.81 501.41 97.7451 513.55 97.9304C517.074 93.6838 519.194 88.2304 519.197 82.2811C519.201 68.7291 508.218 57.7384 494.666 57.7344C481.114 57.7304 470.125 68.7118 470.12 82.2638C470.117 88.1384 472.181 93.5318 475.622 97.7571L475.626 97.7358Z" fill="#CFE096"/>
<mask id="mask9_100_1077" style="mask-type:luminance" maskUnits="userSpaceOnUse" x="470" y="57" width="50" height="50">
<path d="M470.12 57.7347H519.196V106.811H470.12V57.7347Z" fill="white"/>
</mask>
<g mask="url(#mask9_100_1077)">
<g opacity="0.199997">
<path d="M475.626 97.7358C475.626 97.7358 488.252 98.9851 494.65 106.81C494.65 106.81 501.41 97.7451 513.55 97.9304C517.074 93.6838 519.194 88.2304 519.197 82.2811C519.201 68.7291 508.218 57.7384 494.666 57.7344C481.114 57.7304 470.125 68.7118 470.12 82.2638C470.117 88.1384 472.181 93.5318 475.622 97.7571L475.626 97.7358Z" fill="white"/>
</g>
</g>
<path d="M495.479 131.881L494.231 68.7475L493.922 132.53L495.479 131.881Z" fill="#838383"/>
<path d="M494.871 104.425C494.871 104.425 499.132 96.7544 506.803 94.4104C506.803 94.4104 498.707 96.3277 494.658 102.933L494.871 104.425Z" fill="#838383"/>
<path d="M494.551 83.1166C494.551 83.1166 499.133 75.0192 506.803 72.6752C506.803 72.6752 498.632 74.8992 494.583 81.5046L494.551 83.1166Z" fill="#838383"/>
<path d="M494.677 93.8314C494.677 93.8314 499.133 85.8874 506.804 83.5434C506.804 83.5434 498.706 85.4608 494.657 92.0661L494.677 93.8314Z" fill="#838383"/>
<path d="M494.24 88.2311C494.24 88.2311 490.128 80.5604 482.725 78.2151C482.725 78.2151 490.54 80.1337 494.445 86.7391L494.24 88.2311Z" fill="#838383"/>
<path d="M494.24 98.8849C494.24 98.8849 490.128 91.2142 482.725 88.8702C482.725 88.8702 490.54 90.7876 494.445 97.3929L494.24 98.8849Z" fill="#838383"/>
<path d="M214.38 93.8191C214.38 93.8191 231.606 95.5231 240.337 106.203C240.337 106.203 249.562 93.8311 266.13 94.0858C270.938 88.2898 273.83 80.8485 273.833 72.7311C273.84 54.2365 258.853 39.2405 240.361 39.2338C221.868 39.2285 206.872 54.2138 206.865 72.7071C206.862 80.7231 209.678 88.0818 214.374 93.8471L214.38 93.8191Z" fill="#CFE096"/>
<mask id="mask10_100_1077" style="mask-type:luminance" maskUnits="userSpaceOnUse" x="206" y="39" width="68" height="68">
<path d="M206.865 39.2347H273.833V106.203H206.865V39.2347Z" fill="white"/>
</mask>
<g mask="url(#mask10_100_1077)">
<g opacity="0.399994">
<path d="M214.38 93.8191C214.38 93.8191 231.606 95.5231 240.337 106.203C240.337 106.203 249.562 93.8311 266.13 94.0858C270.938 88.2898 273.83 80.8485 273.833 72.7311C273.84 54.2365 258.853 39.2405 240.361 39.2338C221.868 39.2285 206.872 54.2138 206.865 72.7071C206.862 80.7231 209.678 88.0818 214.374 93.8471L214.38 93.8191Z" fill="white"/>
</g>
</g>
<path d="M241.47 140.413L239.768 54.2628L239.344 141.299L241.47 140.413Z" fill="#838383"/>
<path d="M240.64 102.948C240.64 102.948 246.455 92.4799 256.923 89.2812C256.923 89.2812 245.873 91.8985 240.349 100.912L240.64 102.948Z" fill="#838383"/>
<path d="M240.203 73.8705C240.203 73.8705 246.455 62.8212 256.923 59.6225C256.923 59.6225 245.771 62.6572 240.246 71.6705L240.203 73.8705Z" fill="#838383"/>
<path d="M240.376 88.4922C240.376 88.4922 246.456 77.6509 256.924 74.4522C256.924 74.4522 245.874 77.0695 240.349 86.0829L240.376 88.4922Z" fill="#838383"/>
<path d="M239.777 80.8496C239.777 80.8496 234.167 70.3816 224.065 67.1829C224.065 67.1829 234.727 69.8003 240.059 78.8136L239.777 80.8496Z" fill="#838383"/>
<path d="M239.777 95.3881C239.777 95.3881 234.167 84.9201 224.065 81.7214C224.065 81.7214 234.727 84.3387 240.059 93.3521L239.777 95.3881Z" fill="#838383"/>
<path d="M196.521 200.624H521.237" stroke="#273A2C" stroke-width="1.312" stroke-miterlimit="10"/>
<path d="M216.267 154.001H349.004V200.56H216.267V154.001Z" fill="#CFE096" stroke="#273A2C" stroke-width="1.312" stroke-miterlimit="10"/>
<path d="M223.752 154.001H341.517V200.56H223.752V154.001Z" fill="white" stroke="#273A2C" stroke-width="1.312" stroke-miterlimit="10"/>
<path d="M246.958 161.601V200.49Z" fill="white"/>
<path d="M246.958 161.601V200.49" stroke="#273A2C" stroke-width="1.312" stroke-miterlimit="10"/>
<path d="M293.409 161.601V200.49Z" fill="white"/>
<path d="M293.409 161.601V200.49" stroke="#273A2C" stroke-width="1.312" stroke-miterlimit="10"/>
<path d="M310.828 161.601V200.49Z" fill="white"/>
<path d="M310.828 161.601V200.49" stroke="#273A2C" stroke-width="1.312" stroke-miterlimit="10"/>
<path d="M328.247 161.601V200.49Z" fill="white"/>
<path d="M328.247 161.601V200.49" stroke="#273A2C" stroke-width="1.312" stroke-miterlimit="10"/>
<path d="M223.732 170.667H341.653Z" fill="white"/>
<path d="M223.732 170.667H341.653" stroke="#273A2C" stroke-width="1.312" stroke-miterlimit="10"/>
<path d="M223.732 180.944H341.653Z" fill="white"/>
<path d="M223.732 180.944H341.653" stroke="#273A2C" stroke-width="1.312" stroke-miterlimit="10"/>
<path d="M223.732 191.654H341.653Z" fill="white"/>
<path d="M223.732 191.654H341.653" stroke="#273A2C" stroke-width="1.312" stroke-miterlimit="10"/>
<path d="M270.204 154.001H278.479V200.56H270.204V154.001Z" fill="#CFE096" stroke="#273A2C" stroke-width="1.312" stroke-miterlimit="10"/>
<path d="M202.995 160.91H353.962V125.678H234.516L202.995 160.91Z" fill="#273A2C"/>
<path d="M202.995 160.91H353.962V125.678H234.516L202.995 160.91Z" stroke="#273A2C" stroke-width="1.312" stroke-miterlimit="10"/>
<path d="M251.105 124.296H354.737V93.773H275.99L251.105 124.296Z" fill="white"/>
<path d="M251.105 124.296H354.737V93.773H275.99L251.105 124.296Z" stroke="#273A2C" stroke-width="1.312" stroke-miterlimit="10"/>
<path d="M295.897 131.895H251.935V107.025H295.897V131.895Z" fill="#CFE096" stroke="#273A2C" stroke-width="1.312" stroke-miterlimit="10"/>
<path d="M269.317 128.441H255.252V117.388H269.317V128.441Z" fill="white" stroke="#273A2C" stroke-width="1.312" stroke-miterlimit="10"/>
<path d="M287.603 128.441H273.537V117.388H287.603V128.441Z" fill="white" stroke="#273A2C" stroke-width="1.312" stroke-miterlimit="10"/>
<path d="M241.151 114.624H355.62V84.1017H268.638L241.151 114.624Z" fill="#273A2C"/>
<path d="M241.151 114.624H355.62V84.1017H268.638L241.151 114.624Z" stroke="#273A2C" stroke-width="1.312" stroke-miterlimit="10"/>
<path d="M453.499 131.895H497.461V107.025H453.499V131.895Z" fill="#CFE096" stroke="#273A2C" stroke-width="1.312" stroke-miterlimit="10"/>
<path d="M480.079 128.441H494.144V117.388H480.079V128.441Z" fill="white" stroke="#273A2C" stroke-width="1.312" stroke-miterlimit="10"/>
<path d="M461.795 128.441H475.86V117.388H461.795V128.441Z" fill="white" stroke="#273A2C" stroke-width="1.312" stroke-miterlimit="10"/>
<path d="M508.245 114.624H393.776V84.1017H480.758L508.245 114.624Z" fill="#273A2C"/>
<path d="M508.245 114.624H393.776V84.1017H480.758L508.245 114.624Z" stroke="#273A2C" stroke-width="1.312" stroke-miterlimit="10"/>
<path d="M352.302 99.4258L290.09 124.295V145.021H351.473L352.302 99.4258Z" fill="#273A2C"/>
<path d="M352.302 99.4258L290.09 124.295V145.021H351.473L352.302 99.4258Z" stroke="#273A2C" stroke-width="1.312" stroke-miterlimit="10"/>
<path d="M381.133 89.269L285.061 129.006L281.5 123.036L377.573 83.2984L381.133 89.269Z" fill="#273A2C"/>
<path d="M381.133 89.269L285.061 129.006L281.5 123.036L377.573 83.2984L381.133 89.269Z" stroke="#273A2C" stroke-width="1.312" stroke-miterlimit="10"/>
<path d="M504.023 131.891L370.338 97.2233V200.561H504.023V131.891Z" fill="#CFE096"/>
<path d="M504.023 131.891L370.338 97.2233V200.561H504.023V131.891Z" stroke="#273A2C" stroke-width="1.312" stroke-miterlimit="10"/>
<path d="M471.202 200.561H504.023V131.891L471.202 123.379V200.561Z" fill="#273A2C"/>
<path d="M471.202 200.561H504.023V131.891L471.202 123.379V200.561Z" stroke="#273A2C" stroke-width="1.312" stroke-miterlimit="10"/>
<path d="M512.879 136.331L431.928 115.144L434.328 108.784L515.279 129.969L512.879 136.331Z" fill="#273A2C"/>
<path d="M512.879 136.331L431.928 115.144L434.328 108.784L515.279 129.969L512.879 136.331Z" stroke="#273A2C" stroke-width="1.312" stroke-miterlimit="10"/>
<path d="M349.004 200.561H437.4V55.8885L349.004 91.2232V200.561Z" fill="white"/>
<path d="M349.004 200.561H437.4V55.8885L349.004 91.2232V200.561Z" stroke="#273A2C" stroke-width="1.312" stroke-miterlimit="10"/>
<path d="M357.279 151.929H437.4V55.8878L357.279 87.9144V151.929Z" fill="#273A2C"/>
<path d="M357.279 151.929H437.4V55.8878L357.279 87.9144V151.929Z" stroke="#273A2C" stroke-width="1.312" stroke-miterlimit="10"/>
<path d="M349.004 151.892H398.357V104.557L349.004 91.2226V151.892Z" fill="white"/>
<path d="M349.004 151.892H398.357V104.557L349.004 91.2226V151.892Z" stroke="#273A2C" stroke-width="1.312" stroke-miterlimit="10"/>
<path d="M380.745 151.892H398.357V104.557L380.745 99.7986V151.892Z" fill="#CFE096"/>
<path d="M380.745 151.892H398.357V104.557L380.745 99.7986V151.892Z" stroke="#273A2C" stroke-width="1.312" stroke-miterlimit="10"/>
<path d="M380.745 200.425H398.357V153.892H380.745V200.425Z" fill="#CFE096" stroke="#273A2C" stroke-width="1.312" stroke-miterlimit="10"/>
<path d="M446.387 155.225H339.119V148.559H446.387V155.225Z" fill="#273A2C" stroke="#273A2C" stroke-width="1.312" stroke-miterlimit="10"/>
<path d="M450.81 54.0371L354.737 93.7731L351.177 87.8024L447.249 48.0651L450.81 54.0371Z" fill="#273A2C"/>
<path d="M450.81 54.0371L354.737 93.7731L351.177 87.8024L447.249 48.0651L450.81 54.0371Z" stroke="#273A2C" stroke-width="1.312" stroke-miterlimit="10"/>
<path d="M405.612 108.329L340.671 90.4761L343.071 84.1161L408.012 101.968L405.612 108.329Z" fill="#273A2C"/>
<path d="M405.612 108.329L340.671 90.4761L343.071 84.1161L408.012 101.968L405.612 108.329Z" stroke="#273A2C" stroke-width="1.312" stroke-miterlimit="10"/>
<path d="M430.376 111.692H411.964V81.2227H430.376V111.692Z" fill="white" stroke="#273A2C" stroke-width="1.312" stroke-miterlimit="10"/>
<path d="M430.376 145.892H411.964V115.423H430.376V145.892Z" fill="white" stroke="#273A2C" stroke-width="1.312" stroke-miterlimit="10"/>
<path d="M358.331 143.224H375.943V108.556H358.331V143.224Z" fill="white" stroke="#273A2C" stroke-width="1.312" stroke-miterlimit="10"/>
<path d="M358.331 183.984H375.943V158.296H358.331V183.984Z" fill="white" stroke="#273A2C" stroke-width="1.312" stroke-miterlimit="10"/>
<path d="M495.803 191.997H477.553V145.712H495.803V191.997Z" fill="white" stroke="#273A2C" stroke-width="1.312" stroke-miterlimit="10"/>
<path d="M415.305 196.833H401.24V158.837H415.305V196.833Z" fill="white" stroke="#273A2C" stroke-width="1.312" stroke-miterlimit="10"/>
<path d="M433.591 196.833H419.525V158.837H433.591V196.833Z" fill="#273A2C" stroke="#273A2C" stroke-width="1.312" stroke-miterlimit="10"/>
<path d="M345.667 132.585H296.727V127.059H345.667V132.585Z" fill="white" stroke="#273A2C" stroke-width="1.312" stroke-miterlimit="10"/>
<path d="M431.932 167.667H421.236V160.195H431.932V167.667Z" fill="white" stroke="#273A2C" stroke-width="1.312" stroke-miterlimit="10"/>
<path d="M431.932 176.288H421.236V168.816H431.932V176.288Z" fill="white" stroke="#273A2C" stroke-width="1.312" stroke-miterlimit="10"/>
<path d="M431.932 184.908H421.236V177.436H431.932V184.908Z" fill="white" stroke="#273A2C" stroke-width="1.312" stroke-miterlimit="10"/>
<path d="M431.932 193.529H421.236V186.057H431.932V193.529Z" fill="white" stroke="#273A2C" stroke-width="1.312" stroke-miterlimit="10"/>
<path d="M261.192 243.599C261.192 249.032 253.265 253.435 243.486 253.435C233.708 253.435 225.781 249.032 225.781 243.599C225.781 238.167 233.708 233.763 243.486 233.763C253.265 233.763 261.192 238.167 261.192 243.599Z" fill="white"/>
<path d="M261.192 243.599C261.192 249.032 253.265 253.435 243.486 253.435C233.708 253.435 225.781 249.032 225.781 243.599C225.781 238.167 233.708 233.763 243.486 233.763C253.265 233.763 261.192 238.167 261.192 243.599Z" stroke="#273A2C" stroke-width="1.33333" stroke-miterlimit="10"/>
<path d="M238.896 263.928C238.896 266.825 235.08 269.174 230.371 269.174C225.663 269.174 221.847 266.825 221.847 263.928C221.847 261.03 225.663 258.681 230.371 258.681C235.08 258.681 238.896 261.03 238.896 263.928Z" fill="white"/>
<path d="M238.896 263.928C238.896 266.825 235.08 269.174 230.371 269.174C225.663 269.174 221.847 266.825 221.847 263.928C221.847 261.03 225.663 258.681 230.371 258.681C235.08 258.681 238.896 261.03 238.896 263.928Z" stroke="#273A2C" stroke-width="1.33333" stroke-miterlimit="10"/>
</g>
<path d="M23.5638 556.613H653.333" stroke="#273A2C" stroke-width="1.312" stroke-miterlimit="10"/>
<path d="M12.2637 580.001H280.7L253.157 623.281" stroke="#273A2C" stroke-width="1.312" stroke-miterlimit="10"/>
<path d="M36.5377 561.443H294.204L284.639 574.423H18.879" fill="#CFE096"/>
<path d="M623.499 562.809L652.193 591.503" stroke="#273A2C" stroke-width="1.312" stroke-miterlimit="10"/>
<mask id="mask11_100_1077" style="mask-type:luminance" maskUnits="userSpaceOnUse" x="0" y="0" width="667" height="667">
<path d="M0 0.000121117H666.667V666.667H0V0.000121117Z" fill="white"/>
</mask>
<g mask="url(#mask11_100_1077)">
<path d="M236.111 633.119C236.111 639.999 189.136 645.577 131.189 645.577C73.2439 645.577 26.2693 639.999 26.2693 633.119C26.2693 626.237 73.2439 620.659 131.189 620.659C189.136 620.659 236.111 626.237 236.111 633.119Z" fill="#273A2C"/>
<path d="M205.018 309.83C205.018 309.83 207.258 295.274 205.542 291.166C203.826 287.058 197.681 284.965 194.606 283.918C191.534 282.872 184.065 282.909 182.557 281.608C181.049 280.308 184.846 278.581 187.033 278.35C189.22 278.12 194.813 278.325 196.068 278.06C197.322 277.796 199.714 271.97 200.806 267.656C201.898 263.338 204.634 248.192 207.212 245.798C209.789 243.404 209.917 248.386 209.504 251.172C209.089 253.957 208.47 262.336 208.47 262.336C208.47 262.336 211.013 260.874 212.233 261.541C213.453 262.208 215.261 263.83 215.261 263.83C215.261 263.83 219.634 263.369 220.554 263.714C221.476 264.058 224.329 262.608 225.792 265.152C227.254 267.694 224.597 272.264 222.906 275.936C221.214 279.608 218.397 288.528 218.317 290.702C218.237 292.878 221.325 310.417 221.325 310.417L205.018 309.83Z" fill="white"/>
<path d="M205.018 309.83C205.018 309.83 207.258 295.274 205.542 291.166C203.826 287.058 197.681 284.965 194.606 283.918C191.534 282.872 184.065 282.909 182.557 281.608C181.049 280.308 184.846 278.581 187.033 278.35C189.22 278.12 194.813 278.325 196.068 278.06C197.322 277.796 199.714 271.97 200.806 267.656C201.898 263.338 204.634 248.192 207.212 245.798C209.789 243.404 209.917 248.386 209.504 251.172C209.089 253.957 208.47 262.336 208.47 262.336C208.47 262.336 211.013 260.874 212.233 261.541C213.453 262.208 215.261 263.83 215.261 263.83C215.261 263.83 219.634 263.369 220.554 263.714C221.476 264.058 224.329 262.608 225.792 265.152C227.254 267.694 224.597 272.264 222.906 275.936C221.214 279.608 218.397 288.528 218.317 290.702C218.237 292.878 221.325 310.417 221.325 310.417L205.018 309.83Z" stroke="#273A2C" stroke-width="1.312" stroke-miterlimit="10"/>
<path d="M145.309 286.911C145.309 286.911 155.021 280.966 158.493 280.245C161.964 279.523 167.24 279.847 169.064 280.583C170.888 281.318 173.953 282.13 172.534 279.862C171.117 277.594 168.146 275.23 166.614 274.825C165.081 274.418 160.774 273.531 158.444 270.895C156.114 268.259 156.146 262.654 156.844 261.451C157.541 260.247 164.296 246.643 164.486 243.539C164.677 240.437 161.904 239.954 160.838 242.07C159.774 244.185 155.865 252.045 154.857 253.229C153.849 254.413 149.853 253.545 148.921 253.487C147.99 253.43 144.228 253.822 144.228 253.822C144.228 253.822 142.113 252.757 139.825 254.486C137.538 256.214 136.378 259.882 136.226 262.365C136.073 264.847 136.184 278.25 136.184 278.25L125.881 293.817L137.99 299.546L145.309 286.911Z" fill="white"/>
<path d="M145.309 286.911C145.309 286.911 155.021 280.966 158.493 280.245C161.964 279.523 167.24 279.847 169.064 280.583C170.888 281.318 173.953 282.13 172.534 279.862C171.117 277.594 168.146 275.23 166.614 274.825C165.081 274.418 160.774 273.531 158.444 270.895C156.114 268.259 156.146 262.654 156.844 261.451C157.541 260.247 164.296 246.643 164.486 243.539C164.677 240.437 161.904 239.954 160.838 242.07C159.774 244.185 155.865 252.045 154.857 253.229C153.849 254.413 149.853 253.545 148.921 253.487C147.99 253.43 144.228 253.822 144.228 253.822C144.228 253.822 142.113 252.757 139.825 254.486C137.538 256.214 136.378 259.882 136.226 262.365C136.073 264.847 136.184 278.25 136.184 278.25L125.881 293.817L137.99 299.546L145.309 286.911Z" stroke="#273A2C" stroke-width="1.312" stroke-miterlimit="10"/>
<path d="M124.978 620.225C124.978 620.225 123.079 631.237 123.839 632.376C124.598 633.516 149.279 637.693 155.354 637.693C161.43 637.693 172.821 639.211 173.959 636.933C175.099 634.655 175.859 633.896 174.339 633.136C172.821 632.376 159.911 626.681 157.253 624.403C154.595 622.124 149.659 616.049 149.659 616.049L124.978 620.225Z" fill="#CFE096"/>
<path d="M124.978 620.225C124.978 620.225 123.079 631.237 123.839 632.376C124.598 633.516 149.279 637.693 155.354 637.693C161.43 637.693 172.821 639.211 173.959 636.933C175.099 634.655 175.859 633.896 174.339 633.136C172.821 632.376 159.911 626.681 157.253 624.403C154.595 622.124 149.659 616.049 149.659 616.049L124.978 620.225Z" stroke="#273A2C" stroke-width="1.312" stroke-miterlimit="10"/>
<path d="M173.96 636.934C174.064 636.726 174.16 636.544 174.256 636.36C170.652 636.215 165.256 636.004 159.152 635.795C150.353 635.491 131.148 630.828 123.774 628.963C123.626 630.651 123.597 632.015 123.838 632.376C124.598 633.516 149.278 637.692 155.354 637.692C161.43 637.692 172.821 639.211 173.96 636.934Z" fill="white"/>
<path d="M173.96 636.934C174.064 636.726 174.16 636.544 174.256 636.36C170.652 636.215 165.256 636.004 159.152 635.795C150.353 635.491 131.148 630.828 123.774 628.963C123.626 630.651 123.597 632.015 123.838 632.376C124.598 633.516 149.278 637.692 155.354 637.692C161.43 637.692 172.821 639.211 173.96 636.934Z" stroke="#273A2C" stroke-width="1.312" stroke-miterlimit="10"/>
<path d="M52.0736 617.568C52.0736 617.568 56.2509 625.161 57.3896 626.301C58.5282 627.44 61.9456 629.338 61.9456 630.858V634.274H30.8096C30.8096 634.274 30.8096 628.58 33.0882 618.706C35.3669 608.834 52.0736 617.568 52.0736 617.568Z" fill="#CFE096"/>
<path d="M52.0736 617.568C52.0736 617.568 56.2509 625.161 57.3896 626.301C58.5282 627.44 61.9456 629.338 61.9456 630.858V634.274H30.8096C30.8096 634.274 30.8096 628.58 33.0882 618.706C35.3669 608.834 52.0736 617.568 52.0736 617.568Z" stroke="#273A2C" stroke-width="1.312" stroke-miterlimit="10"/>
<path d="M61.9459 630.858C61.9459 630.613 61.8499 630.358 61.6966 630.098H31.1059C30.8113 632.814 30.8099 634.276 30.8099 634.276H61.9459V630.858Z" fill="white"/>
<path d="M61.9459 630.858C61.9459 630.613 61.8499 630.358 61.6966 630.098H31.1059C30.8113 632.814 30.8099 634.276 30.8099 634.276H61.9459V630.858Z" stroke="#273A2C" stroke-width="1.312" stroke-miterlimit="10"/>
<path d="M51.694 433.789C51.694 433.789 52.074 448.597 52.074 463.028V526.817C52.074 526.817 41.822 554.156 40.3033 567.066C38.7833 579.977 32.7086 620.985 32.7086 620.985C32.7086 620.985 38.4046 623.644 42.2006 624.024C45.9993 624.402 51.314 620.985 51.314 620.985C51.314 620.985 54.3526 611.113 56.25 606.936C58.1486 602.76 83.5886 533.652 85.1086 527.577C86.6273 521.501 86.6273 504.794 86.6273 504.794L89.6646 463.406H94.222L133.331 529.476C133.331 529.476 129.534 552.638 129.534 564.409C129.534 576.18 124.598 623.644 124.598 623.644C124.598 623.644 134.47 625.161 140.166 624.782C145.861 624.402 151.937 619.088 151.937 619.088V612.632C151.937 610.353 151.178 608.834 151.178 607.317C151.178 605.797 166.366 530.994 164.847 524.16C163.329 517.325 135.989 447.838 135.989 447.838L132.951 439.105L51.694 433.789Z" fill="#273A2C"/>
<path d="M51.694 433.789C51.694 433.789 52.074 448.597 52.074 463.028V526.817C52.074 526.817 41.822 554.156 40.3033 567.066C38.7833 579.977 32.7086 620.985 32.7086 620.985C32.7086 620.985 38.4046 623.644 42.2006 624.024C45.9993 624.402 51.314 620.985 51.314 620.985C51.314 620.985 54.3526 611.113 56.25 606.936C58.1486 602.76 83.5886 533.652 85.1086 527.577C86.6273 521.501 86.6273 504.794 86.6273 504.794L89.6646 463.406H94.222L133.331 529.476C133.331 529.476 129.534 552.638 129.534 564.409C129.534 576.18 124.598 623.644 124.598 623.644C124.598 623.644 134.47 625.161 140.166 624.782C145.861 624.402 151.937 619.088 151.937 619.088V612.632C151.937 610.353 151.178 608.834 151.178 607.317C151.178 605.797 166.366 530.994 164.847 524.16C163.329 517.325 135.989 447.838 135.989 447.838L132.951 439.105L51.694 433.789Z" stroke="#273A2C" stroke-width="1.312" stroke-miterlimit="10"/>
<path d="M112.057 293.983L106.151 304.97L132.069 320.919C132.069 320.919 135.796 311.006 137.628 308.417C139.46 305.829 141.765 304.471 141.765 304.471C141.765 304.471 135.673 292.914 128.001 289.503C120.331 286.093 112.057 293.983 112.057 293.983Z" fill="white"/>
<path d="M112.057 293.983L106.151 304.97L132.069 320.919C132.069 320.919 135.796 311.006 137.628 308.417C139.46 305.829 141.765 304.471 141.765 304.471C141.765 304.471 135.673 292.914 128.001 289.503C120.331 286.093 112.057 293.983 112.057 293.983Z" stroke="#273A2C" stroke-width="1.312" stroke-miterlimit="10"/>
<path d="M149.824 264.154C149.824 264.154 152.664 271.544 151.906 273.248C151.148 274.953 149.601 277.668 150.2 278.614C150.8 279.562 155.157 280.478 154.966 282.436C154.777 284.393 151.588 287.74 151.588 287.74C151.588 287.74 151.237 301.537 148.017 304.188C144.796 306.84 141.48 307.408 138.86 304.881C136.24 302.354 129.99 296.513 129.99 296.513C129.99 296.513 122.79 300.458 117.013 298.909C111.236 297.361 104.197 289.466 100.441 280.31C96.6849 271.153 99.8129 260.293 106.918 254.264C114.024 248.236 131.925 247.008 139.124 249.186C146.322 251.366 152.698 256.925 149.824 264.154Z" fill="white"/>
<path d="M149.824 264.154C149.824 264.154 152.664 271.544 151.906 273.248C151.148 274.953 149.601 277.668 150.2 278.614C150.8 279.562 155.157 280.478 154.966 282.436C154.777 284.393 151.588 287.74 151.588 287.74C151.588 287.74 151.237 301.537 148.017 304.188C144.796 306.84 141.48 307.408 138.86 304.881C136.24 302.354 129.99 296.513 129.99 296.513C129.99 296.513 122.79 300.458 117.013 298.909C111.236 297.361 104.197 289.466 100.441 280.31C96.6849 271.153 99.8129 260.293 106.918 254.264C114.024 248.236 131.925 247.008 139.124 249.186C146.322 251.366 152.698 256.925 149.824 264.154Z" stroke="#273A2C" stroke-width="1.312" stroke-miterlimit="10"/>
<path d="M150.04 287.392C145.683 286.476 143.662 291.021 143.567 295.063C143.471 299.104 141.828 299.735 139.051 296.799C136.274 293.861 136.495 286.473 137.034 282.969C137.57 279.465 141.928 277.319 143.444 273.909C144.96 270.5 137.89 264.973 137.89 264.973C132.27 260.773 122.387 266.928 116.355 272.073C112.147 275.663 103.627 273.689 98.8563 272.167C98.871 274.919 99.3643 277.684 100.44 280.309C104.196 289.467 111.235 297.361 117.012 298.909C122.791 300.457 129.99 296.512 129.99 296.512C129.99 296.512 136.24 302.355 138.86 304.881C141.48 307.408 144.795 306.84 148.016 304.188C150.838 301.865 151.456 290.992 151.567 288.329C151.12 287.845 150.615 287.512 150.04 287.392Z" fill="#273A2C"/>
<path d="M150.04 287.392C145.683 286.476 143.662 291.021 143.567 295.063C143.471 299.104 141.828 299.735 139.051 296.799C136.274 293.861 136.495 286.473 137.034 282.969C137.57 279.465 141.928 277.319 143.444 273.909C144.96 270.5 137.89 264.973 137.89 264.973C132.27 260.773 122.387 266.928 116.355 272.073C112.147 275.663 103.627 273.689 98.8563 272.167C98.871 274.919 99.3643 277.684 100.44 280.309C104.196 289.467 111.235 297.361 117.012 298.909C122.791 300.457 129.99 296.512 129.99 296.512C129.99 296.512 136.24 302.355 138.86 304.881C141.48 307.408 144.795 306.84 148.016 304.188C150.838 301.865 151.456 290.992 151.567 288.329C151.12 287.845 150.615 287.512 150.04 287.392Z" stroke="#273A2C" stroke-width="1.312" stroke-miterlimit="10"/>
<path d="M132.768 296.387C132.673 297.365 126.895 298.88 124.339 294.68C121.781 290.48 122.415 282.935 126.583 282.747C130.749 282.557 133.591 289.945 133.591 289.945C133.591 289.945 133.052 293.451 132.768 296.387Z" fill="white"/>
<path d="M132.768 296.387C132.673 297.365 126.895 298.88 124.339 294.68C121.781 290.48 122.415 282.935 126.583 282.747C130.749 282.557 133.591 289.945 133.591 289.945C133.591 289.945 133.052 293.451 132.768 296.387Z" stroke="#273A2C" stroke-width="1.312" stroke-miterlimit="10"/>
<path d="M139.124 249.187C131.925 247.007 114.024 248.235 106.918 254.264C101.262 259.064 98.1397 266.926 98.9917 274.554C100.905 279.199 104.64 281.599 112.06 281.734C120.837 281.892 125.669 271.791 133.657 266.835C141.646 261.88 149.824 264.155 149.824 264.155C152.698 256.924 146.321 251.367 139.124 249.187Z" fill="#273A2C"/>
<path d="M139.124 249.187C131.925 247.007 114.024 248.235 106.918 254.264C101.262 259.064 98.1397 266.926 98.9917 274.554C100.905 279.199 104.64 281.599 112.06 281.734C120.837 281.892 125.669 271.791 133.657 266.835C141.646 261.88 149.824 264.155 149.824 264.155C152.698 256.924 146.321 251.367 139.124 249.187Z" stroke="#273A2C" stroke-width="1.312" stroke-miterlimit="10"/>
<path d="M99.8417 276.3C99.8417 276.3 96.8124 270.87 91.2244 267.363C85.6364 263.858 84.4044 267.394 84.0884 272.698C83.7711 278.002 85.7284 281.255 89.5804 280.244C93.4324 279.235 99.8417 276.3 99.8417 276.3Z" fill="#273A2C"/>
<path d="M99.8417 276.3C99.8417 276.3 96.8124 270.87 91.2244 267.363C85.6364 263.858 84.4044 267.394 84.0884 272.698C83.7711 278.002 85.7284 281.255 89.5804 280.244C93.4324 279.235 99.8417 276.3 99.8417 276.3Z" stroke="#273A2C" stroke-width="1.312" stroke-miterlimit="10"/>
<path d="M99.8417 276.3C99.8417 276.3 91.7577 282.235 89.1683 286.528" stroke="#273A2C" stroke-width="1.312" stroke-miterlimit="10"/>
<path d="M91.8157 306.719C91.8157 306.719 78.605 309.358 72.197 315.094C65.789 320.83 64.3157 331.927 63.9704 336.9C63.6237 341.872 51.601 396.702 49.781 408.08C47.961 419.458 42.5624 435.148 42.5624 435.148C42.5624 435.148 65.0277 447.512 90.077 450.142C115.126 452.771 148.766 445.047 148.766 445.047C148.766 445.047 138.08 409.844 138.596 393.015C139.112 376.186 145.788 360.935 145.788 360.935C145.788 360.935 203.71 367.592 212.765 364.866C221.821 362.139 223.792 353.41 223.081 347.858C222.372 342.304 222.929 312.651 222.929 312.651C222.929 312.651 210.968 309.212 206.865 310.24L202.762 311.268L194.012 338.724C194.012 338.724 165.289 327.45 153.862 323.738C142.434 320.024 132.92 318.448 132.92 318.448L91.8157 306.719Z" fill="#CFE096"/>
<path d="M91.8157 306.719C91.8157 306.719 78.605 309.358 72.197 315.094C65.789 320.83 64.3157 331.927 63.9704 336.9C63.6237 341.872 51.601 396.702 49.781 408.08C47.961 419.458 42.5624 435.148 42.5624 435.148C42.5624 435.148 65.0277 447.512 90.077 450.142C115.126 452.771 148.766 445.047 148.766 445.047C148.766 445.047 138.08 409.844 138.596 393.015C139.112 376.186 145.788 360.935 145.788 360.935C145.788 360.935 203.71 367.592 212.765 364.866C221.821 362.139 223.792 353.41 223.081 347.858C222.372 342.304 222.929 312.651 222.929 312.651C222.929 312.651 210.968 309.212 206.865 310.24L202.762 311.268L194.012 338.724C194.012 338.724 165.289 327.45 153.862 323.738C142.434 320.024 132.92 318.448 132.92 318.448L91.8157 306.719Z" stroke="#273A2C" stroke-width="1.312" stroke-miterlimit="10"/>
<path d="M145.788 360.935L123.482 358.582L138.053 363.044L126.75 378.391L145.788 360.935Z" fill="#273A2C"/>
<path d="M145.788 360.935L123.482 358.582L138.053 363.044L126.75 378.391L145.788 360.935Z" stroke="#273A2C" stroke-width="1.312" stroke-miterlimit="10"/>
<path d="M138.532 383.678C138.532 383.678 128.306 385.124 123.322 384.601" stroke="#273A2C" stroke-width="1.312" stroke-miterlimit="10"/>
<path d="M122.799 389.585L124.343 438.866" stroke="#273A2C" stroke-width="1.312" stroke-miterlimit="10"/>
<path d="M131.693 388.839L136.276 437.18" stroke="#273A2C" stroke-width="1.312" stroke-miterlimit="10"/>
<path d="M143.508 436.259C143.508 436.259 115.602 442.147 92.719 440.165C69.8377 438.182 48.6577 427.982 48.6577 427.982" stroke="#273A2C" stroke-width="1.312" stroke-miterlimit="10"/>
<path d="M194.012 338.724L207.746 343.533" stroke="#273A2C" stroke-width="1.312" stroke-miterlimit="10"/>
<path d="M139.085 319.266C139.085 319.266 132.587 311.504 126.586 309.452C120.585 307.401 104.37 304.308 98.2459 303.181C92.1219 302.054 89.8433 307.398 89.8433 307.398C89.8433 307.398 98.8273 312.982 111.034 315.544C123.242 318.104 139.085 319.266 139.085 319.266Z" fill="#DCDCDC"/>
<path d="M139.085 319.266C139.085 319.266 132.587 311.504 126.586 309.452C120.585 307.401 104.37 304.308 98.2459 303.181C92.1219 302.054 89.8433 307.398 89.8433 307.398C89.8433 307.398 98.8273 312.982 111.034 315.544C123.242 318.104 139.085 319.266 139.085 319.266Z" stroke="#273A2C" stroke-width="1.312" stroke-miterlimit="10"/>
<path d="M199.544 307.359C199.544 307.359 197.136 317.507 198.019 318.489C198.9 319.47 199.767 320.761 200.453 319.553C201.14 318.343 204.393 315.714 211.536 316.093C218.677 316.473 222.777 321.361 222.777 321.361C222.777 321.361 224.901 322.409 225.033 319.925C225.165 317.441 225.317 308.73 224.779 307.143C224.24 305.558 216.853 303.919 209.695 303.851C202.537 303.782 200.541 306.167 199.544 307.359Z" fill="#DCDCDC"/>
<path d="M199.544 307.359C199.544 307.359 197.136 317.507 198.019 318.489C198.9 319.47 199.767 320.761 200.453 319.553C201.14 318.343 204.393 315.714 211.536 316.093C218.677 316.473 222.777 321.361 222.777 321.361C222.777 321.361 224.901 322.409 225.033 319.925C225.165 317.441 225.317 308.73 224.779 307.143C224.24 305.558 216.853 303.919 209.695 303.851C202.537 303.782 200.541 306.167 199.544 307.359Z" stroke="#273A2C" stroke-width="1.312" stroke-miterlimit="10"/>
</g>
</svg>
