<svg width="500" height="500" viewBox="0 0 500 500" fill="none" xmlns="http://www.w3.org/2000/svg">
<path d="M407.925 468H87.1152C85.6565 468 84.2576 467.421 83.2262 466.389C82.1947 465.358 81.6152 463.959 81.6152 462.5V241.28C81.6152 239.821 82.1947 238.422 83.2262 237.391C84.2576 236.36 85.6565 235.78 87.1152 235.78C88.5739 235.78 89.9729 236.36 91.0043 237.391C92.0358 238.422 92.6152 239.821 92.6152 241.28V457H402.425V240.935C402.425 239.476 403.005 238.077 404.036 237.046C405.068 236.015 406.467 235.435 407.925 235.435C409.384 235.435 410.783 236.015 411.814 237.046C412.846 238.077 413.425 239.476 413.425 240.935V462.5C413.425 463.959 412.846 465.358 411.814 466.389C410.783 467.421 409.384 468 407.925 468Z" fill="#273A2C"/>
<path d="M433.915 260.055C429.646 260.056 425.468 258.822 421.885 256.5L404.94 245.55L362.315 218.55C361.701 218.165 361.168 217.663 360.749 217.072C360.329 216.481 360.031 215.813 359.87 215.106C359.71 214.399 359.691 213.667 359.814 212.953C359.937 212.239 360.201 211.556 360.589 210.944C360.977 210.331 361.482 209.802 362.076 209.386C362.669 208.97 363.339 208.675 364.047 208.518C364.755 208.362 365.486 208.347 366.2 208.474C366.914 208.601 367.595 208.869 368.205 209.26L410.87 236.295L427.87 247.295C429.109 248.111 430.498 248.673 431.955 248.949C433.413 249.224 434.911 249.207 436.363 248.899C437.814 248.59 439.19 247.997 440.41 247.153C441.63 246.309 442.67 245.231 443.47 243.981C444.27 242.732 444.814 241.336 445.071 239.875C445.327 238.413 445.291 236.916 444.964 235.468C444.637 234.021 444.026 232.654 443.166 231.444C442.306 230.235 441.215 229.209 439.955 228.425L406.085 206.885C405.457 206.507 404.91 206.006 404.478 205.414C404.046 204.821 403.737 204.148 403.568 203.434C403.4 202.72 403.377 201.979 403.499 201.256C403.621 200.533 403.887 199.841 404.281 199.222C404.674 198.603 405.188 198.069 405.791 197.652C406.394 197.234 407.074 196.941 407.792 196.791C408.51 196.64 409.251 196.634 409.971 196.774C410.691 196.914 411.376 197.197 411.985 197.605L445.86 219.145C449.92 221.723 453.032 225.55 454.73 230.05C456.427 234.55 456.617 239.479 455.272 244.096C453.926 248.713 451.118 252.768 447.269 255.652C443.42 258.536 438.739 260.091 433.93 260.085L433.915 260.055Z" fill="#273A2C"/>
<path d="M63.3099 259.47C61.7719 259.459 60.2389 259.292 58.7349 258.97C54.4453 258.074 50.5197 255.92 47.4588 252.784C44.3979 249.648 42.3404 245.672 41.5486 241.362C40.7568 237.051 41.2667 232.603 43.0133 228.584C44.7598 224.565 47.6638 221.157 51.3549 218.795L210.655 116.75L244.84 95.0849C245.721 94.5265 246.742 94.23 247.785 94.23C248.828 94.23 249.849 94.5265 250.73 95.0849L280.165 113.735C281.397 114.517 282.268 115.756 282.586 117.18C282.904 118.603 282.644 120.095 281.862 121.327C281.081 122.559 279.842 123.43 278.418 123.749C276.994 124.067 275.502 123.807 274.27 123.025L247.77 106.24L216.565 126.05L57.2849 228.085C56.0702 228.883 55.0246 229.913 54.2077 231.115C53.3909 232.317 52.8188 233.668 52.5242 235.092C52.2296 236.515 52.2183 237.982 52.4908 239.41C52.7633 240.838 53.3143 242.198 54.1124 243.412C54.9105 244.627 55.9401 245.673 57.1423 246.49C58.3445 247.306 59.6958 247.878 61.1191 248.173C62.5424 248.468 64.0098 248.479 65.4375 248.207C66.8652 247.934 68.2252 247.383 69.4399 246.585L84.0349 236.735L84.1699 236.65L244.84 134.805C245.721 134.246 246.742 133.95 247.785 133.95C248.828 133.95 249.849 134.246 250.73 134.805L256.14 138.23L288.21 158.555C289.433 159.34 290.296 160.577 290.609 161.996C290.923 163.415 290.662 164.901 289.884 166.128C289.106 167.356 287.873 168.225 286.456 168.547C285.039 168.869 283.552 168.616 282.32 167.845L250.25 147.5L247.79 145.94L90.1249 245.88L75.5949 255.69C71.9702 258.15 67.6908 259.467 63.3099 259.47Z" fill="#273A2C"/>
<path d="M196.345 343.81H119.09C117.631 343.81 116.232 343.231 115.201 342.199C114.169 341.168 113.59 339.769 113.59 338.31V277.85C113.59 276.391 114.169 274.992 115.201 273.961C116.232 272.93 117.631 272.35 119.09 272.35H196.345C197.804 272.35 199.202 272.93 200.234 273.961C201.265 274.992 201.845 276.391 201.845 277.85V338.31C201.845 339.769 201.265 341.168 200.234 342.199C199.202 343.231 197.804 343.81 196.345 343.81ZM124.59 332.81H190.845V283.35H124.59V332.81Z" fill="#273A2C"/>
<path d="M157.715 343.62C156.256 343.62 154.857 343.041 153.826 342.009C152.794 340.978 152.215 339.579 152.215 338.12V277.85C152.215 276.391 152.794 274.992 153.826 273.961C154.857 272.93 156.256 272.35 157.715 272.35C159.174 272.35 160.572 272.93 161.604 273.961C162.635 274.992 163.215 276.391 163.215 277.85V338.12C163.215 339.579 162.635 340.978 161.604 342.009C160.572 343.041 159.174 343.62 157.715 343.62Z" fill="#273A2C"/>
<path d="M196.345 313.58H119.09C117.631 313.58 116.232 313.001 115.201 311.969C114.169 310.938 113.59 309.539 113.59 308.08C113.59 306.621 114.169 305.222 115.201 304.191C116.232 303.16 117.631 302.58 119.09 302.58H196.345C197.804 302.58 199.202 303.16 200.234 304.191C201.265 305.222 201.845 306.621 201.845 308.08C201.845 309.539 201.265 310.938 200.234 311.969C199.202 313.001 197.804 313.58 196.345 313.58Z" fill="#273A2C"/>
<path d="M372.19 343.81H294.935C293.476 343.81 292.077 343.231 291.046 342.199C290.015 341.168 289.435 339.769 289.435 338.31V277.85C289.435 276.391 290.015 274.992 291.046 273.961C292.077 272.93 293.476 272.35 294.935 272.35H372.19C373.649 272.35 375.048 272.93 376.079 273.961C377.111 274.992 377.69 276.391 377.69 277.85V338.31C377.69 339.769 377.111 341.168 376.079 342.199C375.048 343.231 373.649 343.81 372.19 343.81ZM300.435 332.81H366.69V283.35H300.435V332.81Z" fill="#273A2C"/>
<path d="M333.56 343.62C332.101 343.62 330.702 343.041 329.671 342.009C328.64 340.978 328.06 339.579 328.06 338.12V277.85C328.06 276.391 328.64 274.992 329.671 273.961C330.702 272.93 332.101 272.35 333.56 272.35C335.019 272.35 336.418 272.93 337.449 273.961C338.481 274.992 339.06 276.391 339.06 277.85V338.12C339.06 339.579 338.481 340.978 337.449 342.009C336.418 343.041 335.019 343.62 333.56 343.62Z" fill="#273A2C"/>
<path d="M372.19 313.58H294.935C293.476 313.58 292.077 313.001 291.046 311.969C290.015 310.938 289.435 309.539 289.435 308.08C289.435 306.621 290.015 305.222 291.046 304.191C292.077 303.16 293.476 302.58 294.935 302.58H372.19C373.649 302.58 375.048 303.16 376.079 304.191C377.111 305.222 377.69 306.621 377.69 308.08C377.69 309.539 377.111 310.938 376.079 311.969C375.048 313.001 373.649 313.58 372.19 313.58Z" fill="#273A2C"/>
<path d="M290.845 468C289.386 468 287.987 467.42 286.956 466.389C285.924 465.358 285.345 463.959 285.345 462.5V404C285.345 389.795 281.215 376.465 273.715 366.46C266.575 356.92 257.27 351.67 247.52 351.67C237.77 351.67 228.465 356.92 221.32 366.455C213.82 376.455 209.695 389.8 209.695 404V462.5C209.695 463.959 209.115 465.358 208.084 466.389C207.052 467.42 205.654 468 204.195 468C202.736 468 201.337 467.42 200.306 466.389C199.274 465.358 198.695 463.959 198.695 462.5V404C198.695 369.08 220.595 340.67 247.52 340.67C260.82 340.67 273.25 347.49 282.52 359.865C291.435 371.755 296.345 387.43 296.345 404V462.5C296.345 463.959 295.765 465.358 294.734 466.389C293.702 467.42 292.304 468 290.845 468Z" fill="#273A2C"/>
<path d="M372.41 173.075H338.665C337.206 173.075 335.807 172.496 334.776 171.464C333.744 170.433 333.165 169.034 333.165 167.575C333.165 166.116 333.744 164.717 334.776 163.686C335.807 162.654 337.206 162.075 338.665 162.075H372.41C376.033 162.075 379.507 160.636 382.069 158.074C384.631 155.512 386.07 152.038 386.07 148.415C386.07 144.792 384.631 141.318 382.069 138.756C379.507 136.194 376.033 134.755 372.41 134.755H357.825C351.286 134.747 345.018 132.146 340.395 127.522C335.772 122.898 333.172 116.629 333.165 110.09V104.305C333.172 97.7668 335.772 91.4983 340.395 86.8751C345.018 82.2519 351.287 79.6516 357.825 79.645H391.57C393.029 79.645 394.428 80.2245 395.459 81.2559C396.491 82.2874 397.07 83.6863 397.07 85.145C397.07 86.6037 396.491 88.0027 395.459 89.0341C394.428 90.0656 393.029 90.645 391.57 90.645H357.825C354.203 90.6477 350.73 92.0877 348.169 94.6489C345.608 97.21 344.168 100.683 344.165 104.305V110.09C344.168 113.713 345.608 117.186 348.169 119.748C350.73 122.31 354.203 123.751 357.825 123.755H372.41C378.95 123.755 385.223 126.353 389.847 130.978C394.472 135.602 397.07 141.875 397.07 148.415C397.07 154.955 394.472 161.228 389.847 165.852C385.223 170.477 378.95 173.075 372.41 173.075Z" fill="#273A2C"/>
<path d="M365.115 196.185C363.657 196.185 362.258 195.605 361.226 194.574C360.195 193.543 359.615 192.144 359.615 190.685V60.71C359.615 59.2513 360.195 57.8523 361.226 56.8209C362.258 55.7894 363.657 55.21 365.115 55.21C366.574 55.21 367.973 55.7894 369.004 56.8209C370.036 57.8523 370.615 59.2513 370.615 60.71V190.71C370.609 192.164 370.026 193.557 368.996 194.583C367.965 195.609 366.57 196.185 365.115 196.185Z" fill="#273A2C"/>
<path d="M249.58 246.73C243.086 246.729 236.738 244.803 231.339 241.194C225.94 237.585 221.732 232.457 219.248 226.457C216.764 220.457 216.114 213.855 217.382 207.486C218.649 201.117 221.777 195.267 226.369 190.675C230.961 186.084 236.812 182.957 243.181 181.691C249.55 180.424 256.152 181.075 262.152 183.56C268.151 186.045 273.279 190.254 276.887 195.653C280.494 201.053 282.42 207.401 282.42 213.895C282.409 222.601 278.946 230.947 272.789 237.103C266.633 243.259 258.286 246.721 249.58 246.73ZM249.58 192.06C245.262 192.061 241.041 193.343 237.45 195.742C233.86 198.142 231.063 201.553 229.411 205.543C227.759 209.533 227.327 213.923 228.17 218.158C229.013 222.393 231.093 226.283 234.147 229.337C237.201 232.39 241.092 234.469 245.327 235.311C249.562 236.153 253.953 235.72 257.942 234.068C261.932 232.415 265.341 229.616 267.74 226.025C270.14 222.435 271.42 218.213 271.42 213.895C271.413 208.105 269.11 202.555 265.016 198.461C260.921 194.367 255.37 192.065 249.58 192.06Z" fill="#273A2C"/>
<path d="M365.115 219.395C313.45 219.395 271.42 177.365 271.42 125.7C271.42 74.035 313.45 32 365.115 32C416.78 32 458.815 74.035 458.815 125.7C458.815 177.365 416.78 219.395 365.115 219.395ZM365.115 43C319.5 43 282.42 80.1 282.42 125.7C282.42 171.3 319.5 208.395 365.115 208.395C410.73 208.395 447.815 171.3 447.815 125.7C447.815 80.1 410.715 43 365.115 43Z" fill="#273A2C"/>
</svg>
