<svg width="512" height="512" viewBox="0 0 512 512" fill="none" xmlns="http://www.w3.org/2000/svg">
<path d="M445.171 440.32C425.229 451.099 400.438 440.859 383.192 426.307C365.945 411.756 344.926 384.808 327.141 371.335C297.499 349.238 253.844 347.621 222.585 367.023C203.722 378.341 189.709 396.126 174.619 412.295C159.528 428.463 141.743 443.554 120.185 447.326C94.3158 452.177 66.8295 439.242 52.2779 417.145C37.7263 395.587 35.0316 367.023 42.5768 341.693C50.661 316.901 68.4463 295.343 90.0042 280.792C108.867 267.857 133.12 256 136.354 233.903C139.048 214.501 125.575 200.488 118.029 183.781C110.484 167.613 105.634 149.827 103.478 132.042C101.861 119.107 101.861 105.634 108.328 94.8547C119.646 75.9916 148.211 72.7579 167.613 84.0758C187.015 95.3937 198.333 116.413 205.339 137.432C208.034 145.516 210.189 153.6 214.501 160.606C218.813 167.613 225.28 174.08 233.364 175.697C241.987 177.314 251.149 173.541 257.617 167.074C267.857 156.834 271.629 141.204 278.636 128.269C286.72 114.257 295.882 100.244 307.739 88.9263C323.907 73.8358 344.926 63.5958 367.023 64.1347C389.12 64.6737 411.217 78.1474 418.762 98.6274C426.307 119.107 418.762 141.743 406.905 160.067C395.048 178.392 378.88 193.482 367.023 211.267C354.627 229.053 346.543 251.688 352.472 272.168C361.634 288.876 378.88 294.265 398.821 310.434C418.762 326.602 448.404 349.777 459.722 372.413C471.579 395.587 467.806 427.924 445.171 440.32Z" fill="#CFE096"/>
<path d="M455.411 280.253C455.411 282.408 453.255 284.025 451.099 284.025H445.17V289.954C445.17 292.109 443.015 293.726 440.859 293.726C438.703 293.726 437.086 292.109 437.086 289.415V283.486H431.158C429.002 283.486 427.385 281.331 427.385 279.175C427.385 277.019 429.002 275.402 431.697 275.402H437.625V269.474C437.625 267.318 439.781 265.701 441.937 265.701C444.093 265.701 445.709 267.857 445.709 270.013V275.941H451.638C453.255 275.941 455.411 278.097 455.411 280.253Z" fill="#CFE096"/>
<path d="M232.286 434.931C232.286 437.086 230.131 438.703 227.975 438.703H222.046V444.632C222.046 446.787 219.891 448.404 217.735 448.404C215.579 448.404 213.962 446.787 213.962 444.093V438.164H208.034C205.878 438.164 204.261 436.008 204.261 433.853C204.261 431.697 205.878 430.08 208.573 430.08H214.501V424.152C214.501 421.996 216.657 420.379 218.813 420.379C220.968 420.379 222.585 422.535 222.585 424.691V430.619H228.514C230.669 430.619 232.286 432.775 232.286 434.931Z" fill="#CFE096"/>
<path d="M344.387 191.326V120.185H387.503V191.326" fill="white"/>
<path d="M387.503 120.185H371.335V191.326H387.503V120.185Z" fill="#CFE096"/>
<path d="M328.219 95.9326V107.789C328.219 114.257 333.608 119.646 340.076 119.646H391.276C397.743 119.646 403.133 114.257 403.133 107.789V95.9326" fill="white"/>
<path d="M403.672 95.9326V107.789C403.672 114.257 398.282 120.185 391.276 120.185H375.107C381.575 120.185 386.964 114.796 386.964 107.789V95.9326H403.672Z" fill="#CFE096"/>
<path d="M390.737 202.644V399.36H121.263V202.644L256 125.575L390.737 202.644Z" fill="white"/>
<path d="M390.737 202.644V399.36H365.945V202.644L243.604 132.581L256 125.575L390.737 202.644Z" fill="#CFE096"/>
<path d="M106.712 224.741C99.1663 224.741 92.16 220.429 89.4652 212.345C86.2316 203.722 90.5431 194.021 98.6273 189.709L247.377 105.095C252.766 102.4 259.234 102.4 264.623 105.095L413.373 189.709C420.918 194.021 425.229 202.644 423.074 211.267C419.84 222.585 406.905 227.436 397.204 222.585L262.467 146.055C258.695 143.899 253.844 143.899 249.533 146.055L115.335 222.585C112.64 223.663 109.945 224.741 106.712 224.741Z" fill="white"/>
<path d="M422.535 211.267C419.301 222.585 406.366 227.436 396.665 222.585L376.185 210.728C385.886 214.501 397.204 209.112 399.899 198.333C402.594 189.709 398.282 181.086 390.737 176.775L262.467 104.556C263.006 104.556 263.545 105.095 264.623 105.634L413.373 190.248C420.918 194.021 425.23 203.183 422.535 211.267Z" fill="#CFE096"/>
<path d="M55.5116 120.185L50.1221 119.646L50.661 114.257C50.661 112.101 49.0442 109.945 46.8884 109.945C44.7326 109.945 42.5768 111.562 42.5768 113.718L42.0379 119.107L36.6484 118.568C34.4926 118.568 32.3368 120.185 32.3368 122.341C32.3368 124.497 33.9537 126.653 36.1095 126.653L41.4989 127.192L40.96 132.581C40.96 134.737 42.5768 136.893 44.7326 136.893C46.8884 136.893 49.0442 135.276 49.0442 133.12L49.5831 127.731L54.9726 128.269C57.1284 128.269 59.2842 126.653 59.2842 124.497C59.2842 122.341 57.6674 120.185 55.5116 120.185Z" fill="#273A2C"/>
<path d="M479.663 120.185C479.663 118.029 478.046 116.413 475.891 115.874H469.962V109.945C469.962 107.789 468.345 106.173 466.19 105.634C464.034 105.634 462.417 107.251 461.878 109.406V115.335H455.949C453.794 115.335 452.177 116.952 451.638 119.107C451.638 121.263 453.255 122.88 455.411 123.419H461.339V129.347C461.339 131.503 462.956 133.12 465.112 133.659C467.267 133.659 468.884 132.042 469.423 129.886V123.958H475.352C478.046 123.958 479.663 122.341 479.663 120.185Z" fill="#273A2C"/>
<path d="M42.0379 393.971H13.4737C10.24 393.971 8.0842 396.126 8.0842 399.36C8.0842 402.594 10.24 404.749 13.4737 404.749H42.0379C45.2716 404.749 47.4274 402.594 47.4274 399.36C47.4274 396.126 44.7326 393.971 42.0379 393.971Z" fill="#273A2C"/>
<path d="M444.632 393.971H396.126V227.975C409.6 233.364 424.152 226.358 427.924 212.884C431.158 202.105 425.768 190.787 416.067 185.398L392.893 172.463V125.575C402.055 125.036 409.061 117.491 409.061 108.328C409.061 98.6274 400.977 91.0821 391.815 91.0821H340.615C330.914 91.0821 323.368 99.1663 323.368 108.328C323.368 117.491 330.375 125.036 339.537 125.575V141.743L267.857 100.783C260.851 97.0105 252.766 97.0105 245.76 100.783L96.4716 184.859C85.6926 190.248 80.8421 203.183 84.6147 213.962C88.9263 226.358 102.939 233.364 115.874 227.975V393.971H92.16C88.9263 393.971 86.7705 396.126 86.7705 399.36C86.7705 402.594 88.9263 404.749 92.16 404.749C148.211 404.749 386.964 404.749 444.632 405.288C447.865 405.288 450.021 403.133 450.021 399.899C450.021 396.665 447.326 393.971 444.632 393.971ZM333.608 107.789C333.608 104.017 336.842 101.322 340.076 101.322H391.276C395.048 101.322 397.743 104.556 397.743 107.789C397.743 111.023 394.509 114.257 391.276 114.257H340.076C336.303 114.796 333.608 111.562 333.608 107.789ZM349.777 125.575H382.114V165.996L349.777 147.672V125.575ZM94.8547 210.728C92.6989 204.8 95.9326 197.794 101.861 194.56L250.072 109.945C253.844 107.789 258.156 107.789 261.928 109.945L410.678 194.56C416.067 197.794 419.301 203.722 417.684 209.651C416.606 213.423 413.912 216.657 410.139 218.274C406.366 219.891 402.594 219.352 399.36 217.735L265.162 141.204C259.773 137.971 252.766 137.971 246.838 141.204L112.64 217.735C106.173 221.507 97.5495 218.274 94.8547 210.728ZM126.653 222.046L252.227 150.366C254.383 149.288 257.617 149.288 259.773 150.366L385.347 222.046V393.971C365.945 393.971 466.728 393.971 126.653 393.971V222.046Z" fill="#273A2C"/>
<path d="M498.526 394.509H479.124C475.891 394.509 473.735 396.665 473.735 399.899C473.735 403.133 475.891 405.288 479.124 405.288H498.526C501.76 405.288 503.916 403.133 503.916 399.899C503.916 396.665 501.76 394.509 498.526 394.509Z" fill="#273A2C"/>
<path d="M343.309 282.408C343.309 330.914 303.966 369.718 256 369.718C207.495 369.718 168.69 330.375 168.69 282.408C168.69 234.442 208.034 195.099 256 195.099C304.505 195.099 343.309 233.903 343.309 282.408Z" fill="white"/>
<path d="M343.309 282.408C343.309 330.914 303.966 369.718 256 369.718C252.766 369.718 250.072 369.718 246.838 369.179C291.032 364.328 324.985 327.141 324.985 282.408C324.985 237.676 291.032 199.949 246.838 195.638C250.072 195.099 252.766 195.099 256 195.099C303.966 195.099 343.309 233.903 343.309 282.408Z" fill="#CFE096"/>
<path d="M256 375.107C204.8 375.107 163.301 333.608 163.301 282.408C163.301 231.208 204.8 189.709 256 189.709C307.2 189.709 348.699 231.208 348.699 282.408C348.699 333.608 307.2 375.107 256 375.107ZM256 200.488C210.728 200.488 174.08 237.137 174.08 282.408C174.08 327.68 210.728 364.328 256 364.328C301.272 364.328 337.92 327.68 337.92 282.408C337.92 237.137 301.272 200.488 256 200.488Z" fill="#273A2C"/>
<path d="M256 355.705C215.579 355.705 182.703 322.829 182.703 282.408C182.703 241.987 215.579 209.112 256 209.112C296.421 209.112 329.297 241.987 329.297 282.408C329.297 322.829 296.421 355.705 256 355.705Z" fill="#273A2C"/>
<path d="M250.072 269.474C255.461 261.389 257.078 251.688 256.539 242.526C256 233.903 253.305 225.28 250.072 217.196C249.533 216.118 250.072 215.04 251.149 215.04C257.617 214.501 264.084 217.196 270.552 219.891C272.168 220.429 274.324 221.507 274.863 223.124C275.941 224.202 275.941 225.819 275.941 227.436C277.019 237.676 275.402 246.299 271.09 255.461C268.396 260.851 264.623 265.701 261.389 270.552C260.85 271.629 259.773 272.168 258.695 272.707C257.078 273.246 255.461 272.168 254.383 271.091C253.305 270.013 251.149 270.013 250.072 271.091V269.474Z" fill="white"/>
<path d="M261.928 295.343C256.539 303.427 254.922 313.128 255.461 322.291C256 330.914 258.695 339.537 261.928 347.621C262.467 348.699 261.928 349.777 260.85 349.777C254.383 350.316 247.916 347.621 241.448 344.926C239.832 344.387 237.676 343.309 237.137 341.693C236.059 340.615 236.059 338.998 236.059 337.381C234.981 327.141 236.598 318.518 240.909 309.356C243.604 303.966 247.377 299.116 250.61 294.265C251.149 293.187 252.227 292.648 253.305 292.109C254.922 291.571 256.539 292.648 257.617 293.726C258.695 294.804 260.85 294.804 261.928 293.726V295.343Z" fill="white"/>
<path d="M264.084 271.091C273.246 271.629 282.947 267.857 290.493 263.006C297.499 258.156 303.427 251.688 308.817 244.682C309.356 243.604 310.973 243.604 311.512 244.682C315.284 250.072 316.362 257.078 317.44 263.545C317.44 265.701 317.44 267.318 316.901 268.935C316.362 270.552 314.745 271.091 313.667 272.168C305.583 278.097 296.96 281.331 286.72 281.869C280.792 282.408 274.863 281.869 268.935 281.331C267.857 281.331 266.779 281.331 265.701 280.253C264.623 279.175 264.623 277.558 264.623 275.941C264.623 274.324 264.084 272.168 262.467 272.168L264.084 271.091Z" fill="white"/>
<path d="M247.916 293.726C238.754 293.187 229.053 296.96 221.507 301.811C214.501 306.661 208.573 313.128 203.183 320.135C202.644 321.213 201.027 321.213 200.488 320.135C196.716 314.745 195.638 307.739 194.56 301.272C194.56 299.116 194.56 297.499 195.099 295.882C195.638 294.265 197.255 293.726 198.333 292.648C206.417 286.72 215.04 283.486 225.28 282.947C231.208 282.408 237.137 282.947 243.065 283.486C244.143 283.486 245.221 283.486 246.299 284.564C247.377 285.642 247.377 287.259 247.377 288.876C247.377 290.493 247.916 292.648 249.533 292.648L247.916 293.726Z" fill="white"/>
<path d="M270.013 284.025C274.324 292.648 281.869 299.116 289.954 302.888C297.499 306.661 306.122 308.817 314.745 309.895C315.823 309.895 316.362 310.973 315.823 312.051C313.128 317.979 307.739 322.291 301.81 326.063C300.194 327.141 298.577 328.219 296.421 328.219C294.804 328.219 293.187 327.68 292.109 327.141C282.947 322.829 275.941 316.901 270.552 308.817C267.318 303.966 265.162 298.577 262.467 292.648C261.928 291.571 261.389 290.493 261.928 289.415C262.467 287.798 264.084 287.259 265.162 286.181C266.779 285.642 267.857 284.025 267.318 282.408L270.013 284.025Z" fill="white"/>
<path d="M241.987 280.792C237.676 272.168 230.131 265.701 222.046 261.928C214.501 258.156 205.878 256 197.255 254.922C196.177 254.922 195.638 253.844 196.177 252.766C198.872 246.838 204.261 242.526 210.189 238.754C211.806 237.676 213.423 236.598 215.579 236.598C217.196 236.598 218.813 237.137 219.89 237.676C229.053 241.987 236.059 247.916 241.448 256C244.682 260.851 246.838 266.24 249.533 272.168C250.072 273.246 250.611 274.324 250.072 275.402C249.533 277.019 247.916 277.558 246.838 278.636C245.221 279.175 244.143 280.792 244.682 282.408L241.987 280.792Z" fill="white"/>
<path d="M275.941 282.408C275.941 293.187 267.318 302.349 256 302.349C245.221 302.349 236.059 293.726 236.059 282.408C236.059 271.629 244.682 262.467 256 262.467C266.779 262.467 275.941 271.629 275.941 282.408Z" fill="white"/>
<path d="M256 294.265C249.533 294.265 244.682 288.876 244.682 282.947C244.682 276.48 250.072 271.629 256 271.629C262.467 271.629 267.318 277.019 267.318 282.947C267.318 288.876 262.467 294.265 256 294.265Z" fill="#273A2C"/>
</svg>
